<svg width="172" height="63" viewBox="0 0 172 63" fill="none" xmlns="http://www.w3.org/2000/svg">
<path fill-rule="evenodd" clip-rule="evenodd" d="M52.0672 48.8977C51.8647 47.4794 51.7423 46.1964 51.4942 44.9363C50.8085 41.4069 47.5274 39.1865 44.2217 39.1164C38.0887 38.9876 33.655 41.984 30.6693 47.1468C29.8939 48.4901 29.1707 49.1944 27.5448 49.0151C25.9956 48.8439 24.4122 48.9874 22.8451 48.9759C20.9302 48.958 20.0667 47.8495 20.5384 45.9943C20.9759 44.2663 21.4346 42.5399 21.9211 40.8232C22.019 40.4776 22.277 40.1793 22.2998 39.8565C22.4108 39.3495 22.5186 38.8376 22.6345 38.3046C22.4925 38.2671 22.6671 38.3127 22.6345 38.3046C23.1324 36.4266 23.6286 34.56 24.1869 32.4586C23.498 32.4586 23.0556 32.4586 22.6149 32.4586C15.8828 32.4586 9.15062 32.4521 2.41686 32.4602C1.49127 32.4619 0.678316 32.3282 0.226134 31.3615C-0.330524 30.1633 0.164101 28.939 1.45045 28.6031C1.99569 28.4613 2.5801 28.4255 3.14981 28.4255C11.7543 28.4124 20.3621 28.4059 28.9716 28.4222C30.5518 28.4255 32.1303 28.5966 33.7089 28.5852C37.9026 28.5559 42.0947 28.4923 46.29 28.3929C47.0295 28.3749 47.8865 28.3032 48.466 27.9201C48.866 27.656 49.1549 26.7366 49.0178 26.2475C48.7631 25.3476 47.8865 24.9368 46.9462 24.9205C45.0722 24.8863 43.1998 24.9058 41.3225 24.9058C39.1938 24.9058 37.0619 24.9058 34.9283 24.9058C26.3597 24.9058 17.7927 24.9058 9.22571 24.9075C8.4095 24.9075 7.64879 24.8765 7.10519 24.0875C6.24816 22.8452 6.82768 21.2851 8.32461 21.0389C8.88454 20.946 9.46894 20.9591 10.0403 20.9591C25.1125 20.9558 40.1831 20.9607 55.2553 20.9444C55.9311 20.9444 56.6102 20.7993 57.273 20.6591C58.1104 20.483 58.321 19.8032 58.2949 19.0876C58.2704 18.4094 57.9912 17.8062 57.1979 17.6921C56.4829 17.591 55.7646 17.4541 55.0496 17.4541C39.2885 17.4427 23.5258 17.4476 7.76796 17.4443C7.1558 17.4443 6.542 17.4411 5.938 17.353C4.83121 17.1933 4.21579 16.4695 4.21579 15.4229C4.21579 14.3078 4.86713 13.584 6.02452 13.447C6.47997 13.3932 6.94194 13.3981 7.39902 13.3981C21.4363 13.4144 35.4752 13.434 49.5157 13.4503C50.5931 13.4503 51.6852 13.4813 52.2712 12.2945C52.6956 11.4354 52.2467 10.379 51.3228 10.1589C50.9555 10.0709 50.5653 10.048 50.1866 10.048C38.7106 10.0497 27.233 10.0611 15.7587 10.048C15.1253 10.0464 14.4691 9.90132 13.8634 9.7008C12.835 9.36172 12.4824 8.53683 12.6407 7.52284C12.7958 6.53004 13.457 5.9725 14.4381 5.9187C15.5824 5.85676 16.7332 5.89914 17.8808 5.89914C21.7056 5.89751 25.5304 5.89914 29.3568 5.89914C31.4904 5.90077 31.5247 5.90566 31.9034 3.76682C32.2185 1.98663 33.1457 0.763969 34.8809 0.227628C35.3446 0.0857995 35.862 0.0711274 36.3501 0.0694972C42.2432 0.0613461 48.1379 -0.100049 54.0212 0.0988374C64.3398 0.447703 71.9958 5.19815 76.5438 14.5474C78.6088 18.7909 79.2863 23.3767 78.519 28.0195C77.1461 36.3255 72.7043 42.5659 65.1886 46.4719C61.0765 48.6091 56.6412 49.3199 52.0672 48.8977Z" fill="#5A23DB"/>
<path fill-rule="evenodd" clip-rule="evenodd" d="M142.114 30.0899C142.067 30.0182 142.021 29.9432 141.975 29.8714C151.721 20.9933 161.463 12.12 171.21 3.24514C171.161 3.10169 171.108 2.9566 171.057 2.81151C165.237 2.81151 159.418 2.7626 153.601 2.86204C152.663 2.87834 151.551 3.32992 150.836 3.94614C147.415 6.89194 144.107 9.96489 140.624 13.1145C139.019 10.0611 137.44 7.19027 136.002 4.24936C135.452 3.12615 134.768 2.77727 133.552 2.79194C128.707 2.85715 123.859 2.81314 119.012 2.82619C118.503 2.82782 117.993 2.93704 117.319 3.01529C117.722 3.83691 118.003 4.44499 118.317 5.04002C121.452 11.0294 124.57 17.0237 127.754 22.9854C128.34 24.0842 128.356 24.7509 127.323 25.6378C123.333 29.0857 119.448 32.6591 115.491 36.1494C115.004 36.5733 114.338 37.0607 113.754 37.0656C106.413 37.1259 99.0653 37.1047 91.721 37.1047C92.9813 36.4803 94.2611 36.0141 95.5801 35.7614C97.0819 35.4745 97.8622 34.7067 98.3813 33.2378C100.923 26.0502 103.59 18.9066 106.197 11.7418C107.247 8.8645 108.254 5.9725 109.366 2.85064C104.023 2.85064 98.9967 2.91747 93.9787 2.81151C92.4785 2.78217 91.8157 3.25656 91.3113 4.65855C86.2834 18.5904 81.1821 32.4945 76.1101 46.4084L75.3086 48.7216L76.8121 48.7249C91.166 48.7428 105.517 48.7624 119.867 48.7233C120.582 48.72 121.421 48.3238 121.985 47.8511C123.979 46.1703 125.875 44.3804 127.807 42.6295C130.081 40.5706 132.357 38.5165 134.721 36.3809C136.724 40.1875 138.645 43.725 140.446 47.3294C141.002 48.4477 141.675 48.8097 142.894 48.7934C147.741 48.7249 152.588 48.7722 157.431 48.7608C157.944 48.7591 158.453 48.6678 159.217 48.5961C155.487 41.2944 151.891 34.2567 148.245 27.1327C146.084 28.176 144.099 29.1346 142.114 30.0899Z" fill="#5A23DB"/>
<path d="M72.679 60.9009L74.1084 54.0526H76.1732C76.6684 54.0526 77.0467 54.0885 77.3083 54.1601C77.682 54.2566 78.0013 54.4295 78.266 54.6786C78.5307 54.9246 78.73 55.2329 78.8639 55.6035C78.9978 55.9741 79.0648 56.3899 79.0648 56.8508C79.0648 57.402 78.9807 57.905 78.8125 58.3596C78.6475 58.8112 78.4295 59.2098 78.1585 59.5555C77.8907 59.8981 77.6089 60.1675 77.313 60.3637C77.0203 60.5568 76.673 60.7 76.2713 60.7934C75.9661 60.8651 75.5908 60.9009 75.1455 60.9009H72.679ZM73.7581 60.1254H74.8419C75.3308 60.1254 75.7652 60.0803 76.1452 59.99C76.3818 59.9339 76.5843 59.8514 76.7524 59.7424C76.9736 59.6022 77.1744 59.4169 77.3551 59.1865C77.5917 58.8813 77.7801 58.534 77.9203 58.1448C78.0635 57.7524 78.1352 57.307 78.1352 56.8088C78.1352 56.2544 78.0386 55.8293 77.8455 55.5335C77.6525 55.2345 77.4064 55.0367 77.1075 54.9402C76.8864 54.8686 76.5422 54.8328 76.0751 54.8328H74.8652L73.7581 60.1254ZM79.7141 60.9009L81.1482 54.0526H82.0591L80.6297 60.9009H79.7141ZM85.7495 58.2008L85.913 57.4254H88.912L88.3281 60.2142C87.9513 60.4509 87.5215 60.644 87.0388 60.7934C86.5561 60.9429 86.0812 61.0177 85.6141 61.0177C84.6175 61.0177 83.8732 60.7171 83.3811 60.1161C82.9669 59.6085 82.7598 58.956 82.7598 58.1588C82.7598 57.3366 82.9405 56.5892 83.3017 55.9165C83.6661 55.2407 84.1239 54.7424 84.6751 54.4217C85.2294 54.0978 85.8445 53.9359 86.5203 53.9359C87.0061 53.9359 87.4421 54.0246 87.8283 54.2021C88.2145 54.3765 88.5103 54.6116 88.7158 54.9075C88.9214 55.2002 89.0693 55.5833 89.1596 56.0567L88.2627 56.1548C88.1662 55.6845 87.9653 55.3248 87.6601 55.0757C87.358 54.8234 86.9688 54.6973 86.4923 54.6973C85.9971 54.6973 85.5346 54.8328 85.1049 55.1037C84.6751 55.3715 84.331 55.7779 84.0725 56.3229C83.8171 56.8648 83.6894 57.4814 83.6894 58.1728C83.6894 58.861 83.8592 59.3811 84.1986 59.733C84.5381 60.0849 85.0068 60.2609 85.6047 60.2609C86.1995 60.2609 86.8395 60.0647 87.5246 59.6723L87.833 58.2008H85.7495ZM89.823 60.9009L91.2571 54.0526H92.168L90.7386 60.9009H89.823ZM94.1113 60.9009L95.3772 54.8328H93.1303L93.2938 54.0526H98.6846L98.5211 54.8328H96.2928L95.0269 60.9009H94.1113ZM96.8861 60.9009L100.768 54.0526H101.847L102.978 60.9009H102.09L101.758 58.9296H98.9882L97.8904 60.9009H96.8861ZM99.3806 58.2242H101.646L101.38 56.5051C101.277 55.8231 101.213 55.2547 101.188 54.8001C101.033 55.1925 100.805 55.658 100.506 56.1968L99.3806 58.2242ZM103.842 60.9009L105.271 54.0526H106.187L104.921 60.1254H108.476L108.312 60.9009H103.842ZM112.886 60.9009L112.465 54.0526H113.395L113.554 57.4394C113.563 57.6013 113.578 58.0404 113.6 58.7567C113.607 58.956 113.61 59.0962 113.61 59.1771C113.61 59.2301 113.608 59.3842 113.605 59.6396C113.985 58.861 114.259 58.3129 114.427 57.9953L116.511 54.0526H117.454L117.683 58.056C117.708 58.5138 117.725 59.065 117.734 59.7097C117.791 59.5509 117.89 59.3142 118.033 58.9996C118.261 58.492 118.429 58.1292 118.538 57.9112L120.491 54.0526H121.425L117.94 60.9009H116.959L116.73 56.7527C116.708 56.3977 116.691 55.9617 116.679 55.4447C116.489 55.8776 116.33 56.2139 116.202 56.4537L113.829 60.9009H112.886ZM120.705 60.9009L122.14 54.0526H123.05L122.457 56.8975H126.007L126.601 54.0526H127.516L126.087 60.9009H125.171L125.844 57.673H122.298L121.621 60.9009H120.705ZM127.647 60.9009L129.081 54.0526H134.024L133.86 54.8328H129.833L129.385 56.9629H133.309L133.145 57.743H129.221L128.726 60.1254H133.038L132.874 60.9009H127.647ZM134.028 60.9009L135.462 54.0526H140.405L140.241 54.8328H136.214L135.766 56.9629H139.69L139.526 57.743H135.602L135.107 60.1254H139.419L139.255 60.9009H134.028ZM140.363 60.9009L141.792 54.0526H142.708L141.442 60.1254H144.997L144.833 60.9009H140.363ZM145.978 58.6866L146.875 58.6026L146.865 58.8408C146.865 59.1055 146.926 59.3484 147.047 59.5695C147.169 59.7875 147.37 59.9573 147.65 60.0787C147.93 60.1971 148.263 60.2562 148.65 60.2562C149.198 60.2562 149.615 60.1363 149.902 59.8965C150.191 59.6567 150.336 59.3827 150.336 59.0744C150.336 58.8595 150.26 58.6633 150.107 58.4858C149.951 58.3114 149.526 58.0747 148.832 57.7757C148.293 57.5422 147.926 57.3631 147.729 57.2385C147.421 57.0361 147.194 56.8165 147.047 56.5799C146.901 56.3401 146.828 56.0676 146.828 55.7624C146.828 55.4105 146.924 55.0928 147.117 54.8094C147.311 54.526 147.592 54.3096 147.963 54.1601C148.337 54.0106 148.757 53.9359 149.224 53.9359C149.782 53.9359 150.252 54.0293 150.635 54.2161C151.018 54.403 151.295 54.6521 151.466 54.9636C151.641 55.275 151.728 55.5724 151.728 55.8558C151.728 55.8838 151.727 55.9305 151.723 55.9959L150.841 56.066C150.841 55.8729 150.823 55.7219 150.789 55.6129C150.727 55.4229 150.63 55.2625 150.5 55.1317C150.369 55.0009 150.188 54.8966 149.958 54.8187C149.73 54.7378 149.475 54.6973 149.192 54.6973C148.693 54.6973 148.306 54.8094 148.028 55.0336C147.817 55.2049 147.711 55.4323 147.711 55.7156C147.711 55.8838 147.754 56.0349 147.841 56.1688C147.929 56.2996 148.086 56.4288 148.313 56.5565C148.475 56.6468 148.86 56.8259 149.467 57.0937C149.959 57.3117 150.299 57.483 150.485 57.6076C150.735 57.7726 150.926 57.9735 151.06 58.2102C151.194 58.4437 151.261 58.71 151.261 59.009C151.261 59.3796 151.147 59.7221 150.92 60.0367C150.696 60.3481 150.384 60.5895 149.986 60.7607C149.587 60.932 149.131 61.0177 148.617 61.0177C147.841 61.0177 147.208 60.8495 146.716 60.5132C146.227 60.1737 145.981 59.5649 145.978 58.6866Z" fill="#5A23DB"/>
<path d="M66.2879 57.0246C65.8341 56.9691 65.3721 56.9724 64.9118 56.9757C59.1656 56.9805 52.2572 56.9887 45.7389 56.9952C45.388 57.2691 45.0256 57.5381 44.6387 57.7891C42.4202 59.2368 40.2556 59.9426 38.0273 59.9459H38.011C35.5493 59.9459 33.3488 58.8716 31.8861 57.0001C24.8961 56.992 17.9077 56.9822 10.9192 56.9757C10.4605 56.9724 10.0002 56.9691 9.54147 57.0246C8.38571 57.1599 7.73764 57.8853 7.73438 59.0004C7.73275 60.0437 8.34817 60.7692 9.45495 60.9273C10.0557 61.0153 10.6744 61.0186 11.2849 61.0186C17.6204 61.0202 23.9574 61.0219 30.2929 61.0235V61.0267C32.4004 61.0251 34.5062 61.0251 36.612 61.0251C38.7179 61.0251 40.8237 61.0251 42.9295 61.0267V61.0235C49.2666 61.0219 58.209 61.0202 64.5461 61.0186C65.1583 61.0186 65.7721 61.0153 66.3761 60.9273C67.4812 60.7692 68.0967 60.0437 68.095 59.0004C68.0934 57.8853 67.4453 57.1599 66.2879 57.0246Z" fill="#5A23DB"/>
<path fill-rule="evenodd" clip-rule="evenodd" d="M42.3833 41.2437C47.3834 41.3252 49.9725 44.7698 49.566 48.5649C49.1807 52.1791 47.1859 54.9978 44.1202 56.998C42.2707 58.2044 40.2595 58.9983 38.0231 59.0016C33.1111 59.0097 29.9116 54.243 31.6632 49.6425C33.3674 45.1692 36.6241 42.5136 41.1884 41.3463C41.6634 41.2257 42.176 41.2583 42.3833 41.2437ZM39.5021 53.4344C41.4349 53.4344 43.3007 51.915 43.7611 49.9702C44.21 48.0971 43.0412 46.6413 41.1182 46.8141C39.2099 46.9836 37.9333 48.0547 37.2085 49.8398C36.4217 51.7781 37.4534 53.436 39.5021 53.4344Z" fill="#5A23DB"/>
</svg>
