<svg width="31" height="24" viewBox="0 0 31 24" fill="none" xmlns="http://www.w3.org/2000/svg">
<path fill-rule="evenodd" clip-rule="evenodd" d="M20.4766 19.23C20.397 18.6722 20.3488 18.1677 20.2513 17.6721C19.9816 16.2841 18.6912 15.4109 17.3912 15.3833C14.9792 15.3327 13.2356 16.511 12.0614 18.5415C11.7565 19.0697 11.472 19.3467 10.8326 19.2762C10.2234 19.2089 9.60065 19.2653 8.98434 19.2608C8.23129 19.2537 7.89167 18.8178 8.07721 18.0882C8.24926 17.4086 8.42966 16.7296 8.62097 16.0546C8.65949 15.9186 8.76093 15.8013 8.76991 15.6744C8.81357 15.475 8.85594 15.2737 8.90152 15.064C8.84567 15.0493 8.91436 15.0672 8.90152 15.064C9.09733 14.3255 9.2925 13.5914 9.51206 12.765C9.24114 12.765 9.06716 12.765 8.89382 12.765C6.24625 12.765 3.59869 12.7624 0.950484 12.7656C0.586476 12.7663 0.266763 12.7137 0.0889322 12.3335C-0.129986 11.8623 0.0645366 11.3808 0.570424 11.2487C0.784849 11.1929 1.01468 11.1788 1.23874 11.1788C4.62266 11.1737 8.00787 11.1711 11.3937 11.1776C12.0152 11.1788 12.636 11.2462 13.2568 11.2417C14.9061 11.2301 16.5547 11.2051 18.2046 11.166C18.4954 11.159 18.8325 11.1308 19.0604 10.9801C19.2177 10.8762 19.3313 10.5146 19.2774 10.3223C19.1772 9.9684 18.8325 9.80684 18.4627 9.80043C17.7257 9.78697 16.9893 9.79466 16.251 9.79466C15.4139 9.79466 14.5754 9.79466 13.7363 9.79466C10.3665 9.79466 6.99738 9.79466 3.62822 9.7953C3.30723 9.7953 3.00806 9.78312 2.79428 9.47282C2.45723 8.98429 2.68514 8.37074 3.27384 8.27393C3.49405 8.23738 3.72388 8.24251 3.94857 8.24251C9.87606 8.24123 15.8029 8.24315 21.7304 8.23674C21.9962 8.23674 22.2633 8.17968 22.5239 8.12454C22.8532 8.0553 22.9361 7.78796 22.9258 7.50651C22.9162 7.2398 22.8064 7.00259 22.4944 6.95771C22.2132 6.91796 21.9307 6.86411 21.6495 6.86411C15.4511 6.85962 9.25205 6.86154 3.05493 6.86026C2.81418 6.86026 2.57279 6.85897 2.33525 6.82435C1.89999 6.76152 1.65795 6.47687 1.65795 6.06527C1.65795 5.62674 1.91411 5.34209 2.36928 5.28823C2.5484 5.26708 2.73008 5.269 2.90984 5.269C8.4303 5.27541 13.9514 5.28311 19.4732 5.28952C19.8969 5.28952 20.3264 5.3017 20.5568 4.83496C20.7238 4.49709 20.5472 4.08165 20.1838 3.9951C20.0394 3.96048 19.886 3.9515 19.737 3.9515C15.2238 3.95214 10.71 3.95663 6.19746 3.9515C5.94837 3.95086 5.69029 3.8938 5.45211 3.81494C5.04766 3.68159 4.90899 3.35718 4.97126 2.95841C5.03225 2.56796 5.29226 2.3487 5.67809 2.32754C6.12813 2.30318 6.58073 2.31985 7.03205 2.31985C8.53623 2.31921 10.0404 2.31985 11.5452 2.31985C12.3843 2.32049 12.3978 2.32241 12.5467 1.48127C12.6706 0.781164 13.0353 0.300326 13.7177 0.0893979C13.9001 0.0336205 14.1036 0.0278504 14.2955 0.0272093C16.6131 0.0240037 18.9313 -0.0394686 21.2451 0.038748C25.3031 0.175947 28.314 2.04417 30.1026 5.72099C30.9147 7.38982 31.1811 9.19329 30.8794 11.0192C30.3395 14.2857 28.5926 16.7399 25.6369 18.276C24.0197 19.1165 22.2755 19.3961 20.4766 19.23Z" fill="#5A23DB"/>
<path d="M26.0695 22.4261C25.891 22.4043 25.7094 22.4056 25.5283 22.4069C23.2685 22.4088 20.5516 22.412 17.9882 22.4145C17.8501 22.5223 17.7076 22.628 17.5554 22.7268C16.683 23.2961 15.8317 23.5737 14.9554 23.575H14.949C13.9809 23.575 13.1154 23.1525 12.5402 22.4165C9.79123 22.4133 7.04287 22.4094 4.29452 22.4069C4.11412 22.4056 3.93307 22.4043 3.75267 22.4261C3.29815 22.4793 3.04328 22.7646 3.04199 23.2031C3.04135 23.6134 3.28338 23.8987 3.71865 23.9609C3.9549 23.9956 4.19822 23.9968 4.43832 23.9968C6.92988 23.9975 9.42209 23.9981 11.9136 23.9988V24C12.7425 23.9994 13.5706 23.9994 14.3988 23.9994C15.227 23.9994 16.0551 23.9994 16.8833 24V23.9988C19.3755 23.9981 22.8923 23.9975 25.3845 23.9968C25.6253 23.9968 25.8666 23.9956 26.1042 23.9609C26.5388 23.8987 26.7808 23.6134 26.7802 23.2031C26.7796 22.7646 26.5247 22.4793 26.0695 22.4261Z" fill="#5A23DB"/>
<path fill-rule="evenodd" clip-rule="evenodd" d="M16.6682 16.2198C18.6346 16.2519 19.6528 17.6066 19.4929 19.0991C19.3414 20.5205 18.5569 21.629 17.3513 22.4156C16.6239 22.89 15.833 23.2023 14.9534 23.2036C13.0217 23.2068 11.7634 21.3321 12.4522 19.5229C13.1225 17.7637 14.4032 16.7193 16.1982 16.2602C16.3851 16.2128 16.5867 16.2256 16.6682 16.2198ZM15.5351 21.0141C16.2952 21.0141 17.029 20.4166 17.21 19.6518C17.3866 18.9151 16.9269 18.3426 16.1706 18.4106C15.4202 18.4772 14.9181 18.8984 14.6331 19.6005C14.3236 20.3628 14.7294 21.0148 15.5351 21.0141Z" fill="#5A23DB"/>
</svg>
