<svg width="24" height="25" viewBox="0 0 24 25" fill="none" xmlns="http://www.w3.org/2000/svg">
<path d="M1.77771 15.4252L1.95215 14.9566L1.77771 15.4252L2.47245 15.6838C2.77435 15.7962 2.89275 16.1605 2.71456 16.4289L2.30452 17.0465C1.61886 18.0792 2.41069 19.4507 3.64788 19.3733L4.38774 19.327C4.70926 19.3068 4.96562 19.5916 4.912 19.9092L4.7886 20.6402C4.58227 21.8625 5.86347 22.7933 6.9622 22.2194L7.61926 21.8762C7.9048 21.727 8.2548 21.8828 8.33502 22.1948L8.5196 22.9128C8.82827 24.1134 10.3773 24.4426 11.1476 23.4714L11.6083 22.8906C11.8084 22.6382 12.1916 22.6382 12.3917 22.8906L12.8524 23.4714C13.6227 24.4426 15.1717 24.1134 15.4804 22.9128L15.665 22.1948C15.7452 21.8828 16.0952 21.727 16.3807 21.8762L17.0378 22.2194C18.1365 22.7933 19.4177 21.8625 19.2114 20.6402L19.088 19.9092C19.0344 19.5916 19.2907 19.3068 19.6123 19.327L20.3521 19.3733C21.5893 19.4507 22.3811 18.0792 21.6955 17.0465L21.2854 16.4289C21.1073 16.1605 21.2256 15.7962 21.5276 15.6838L22.2223 15.4252C23.384 14.9927 23.5496 13.4177 22.5031 12.7532L21.8773 12.3558C21.6054 12.1831 21.5654 11.802 21.7954 11.5766L22.3249 11.0577C23.2103 10.1901 22.7209 8.68398 21.4947 8.5025L20.7614 8.39397C20.4427 8.34681 20.2511 8.01501 20.3696 7.71545L20.6423 7.02611C21.0983 5.8734 20.0386 4.69652 18.8445 5.02949L18.1305 5.22862C17.8202 5.31515 17.5102 5.08995 17.4966 4.76809L17.4653 4.02744C17.413 2.78893 15.9663 2.14481 15.0109 2.93466L14.4396 3.407C14.1913 3.61227 13.8165 3.53261 13.6732 3.24411L13.2254 3.46657L13.6732 3.24411L13.3434 2.58021C12.7918 1.47005 11.2082 1.47005 10.6566 2.58021L11.0745 2.78779L10.6566 2.58021L10.3268 3.24411C10.1835 3.53261 9.80873 3.61227 9.56045 3.407L8.98911 2.93466C8.03372 2.1448 6.58698 2.78894 6.53467 4.02744L6.5034 4.76809C6.4898 5.08995 6.17984 5.31515 5.86953 5.22862L5.15547 5.02949C3.96141 4.69652 2.90174 5.8734 3.35771 7.02611L3.63038 7.71545C3.74888 8.01501 3.55731 8.34681 3.23863 8.39398L2.50531 8.5025C1.27906 8.68398 0.789681 10.1901 1.67507 11.0577L2.20455 11.5766C2.43465 11.802 2.3946 12.1831 2.12266 12.3558L2.3907 12.7778L2.12266 12.3558L1.49687 12.7532C0.450445 13.4177 0.615984 14.9927 1.77771 15.4252Z" fill="#EB9A55" stroke="white"/>
<path d="M12 9V14" stroke="white" stroke-width="1.5" stroke-linecap="round" stroke-linejoin="round"/>
<path d="M11.995 17H12.004" stroke="white" stroke-width="2" stroke-linecap="round" stroke-linejoin="round"/>
</svg>
