<svg width="20" height="19" viewBox="0 0 20 19" fill="none" xmlns="http://www.w3.org/2000/svg">
<path d="M9.06334 1.00495C9.38729 0.138599 10.6127 0.138597 10.9367 1.00494L12.7306 5.80264C12.8712 6.17849 13.2228 6.43393 13.6236 6.45145L18.7409 6.67505C19.6649 6.71543 20.0436 7.88087 19.3198 8.45668L15.3113 11.6454C14.9972 11.8952 14.8629 12.3085 14.9702 12.6952L16.3388 17.6311C16.586 18.5224 15.5946 19.2427 14.8233 18.7322L10.5519 15.9053C10.2173 15.6838 9.78271 15.6838 9.44809 15.9053L5.17672 18.7322C4.40542 19.2427 3.41403 18.5224 3.66117 17.6311L5.02983 12.6952C5.13705 12.3085 5.00275 11.8952 4.68873 11.6454L0.680223 8.45668C-0.0436163 7.88087 0.335059 6.71543 1.25911 6.67505L6.37636 6.45145C6.77724 6.43393 7.12883 6.17849 7.26936 5.80264L9.06334 1.00495Z" fill="#E1B328"/>
</svg>
