<svg width="19" height="20" viewBox="0 0 19 20" fill="none" xmlns="http://www.w3.org/2000/svg">
<g clip-path="url(#clip0_1394_2009)">
<path opacity="0.3" d="M9.50033 11.9914C10.3748 11.9914 11.0837 11.2825 11.0837 10.408C11.0837 9.53359 10.3748 8.82471 9.50033 8.82471C8.62587 8.82471 7.91699 9.53359 7.91699 10.408C7.91699 11.2825 8.62587 11.9914 9.50033 11.9914Z" fill="black"/>
<path d="M9.50033 7.24137C7.75074 7.24137 6.33366 8.65846 6.33366 10.408C6.33366 12.1576 7.75074 13.5747 9.50033 13.5747C11.2499 13.5747 12.667 12.1576 12.667 10.408C12.667 8.65846 11.2499 7.24137 9.50033 7.24137ZM9.50033 11.9914C8.62949 11.9914 7.91699 11.2789 7.91699 10.408C7.91699 9.53721 8.62949 8.82471 9.50033 8.82471C10.3712 8.82471 11.0837 9.53721 11.0837 10.408C11.0837 11.2789 10.3712 11.9914 9.50033 11.9914ZM16.5778 9.61637C16.3985 8.01097 15.6786 6.51426 14.5364 5.37201C13.3941 4.22975 11.8974 3.50986 10.292 3.33054V1.69971H8.70866V3.33054C7.10325 3.50986 5.60654 4.22975 4.46429 5.37201C3.32204 6.51426 2.60215 8.01097 2.42283 9.61637H0.791992V11.1997H2.42283C2.60215 12.8051 3.32204 14.3018 4.46429 15.4441C5.60654 16.5863 7.10325 17.3062 8.70866 17.4855V19.1164H10.292V17.4855C11.8974 17.3062 13.3941 16.5863 14.5364 15.4441C15.6786 14.3018 16.3985 12.8051 16.5778 11.1997H18.2087V9.61637H16.5778ZM9.50033 15.9497C6.43658 15.9497 3.95866 13.4718 3.95866 10.408C3.95866 7.34429 6.43658 4.86637 9.50033 4.86637C12.5641 4.86637 15.042 7.34429 15.042 10.408C15.042 13.4718 12.5641 15.9497 9.50033 15.9497Z" fill="black"/>
</g>
<defs>
<clipPath id="clip0_1394_2009">
<rect width="19" height="19" fill="white" transform="translate(0 0.908203)"/>
</clipPath>
</defs>
</svg>
