<svg width="80" height="58" viewBox="0 0 80 58" fill="none" xmlns="http://www.w3.org/2000/svg">
<mask id="mask0_2197_4574" style="mask-type:alpha" maskUnits="userSpaceOnUse" x="0" y="0" width="80" height="58">
<rect width="80" height="58" fill="#D9D9D9"/>
</mask>
<g mask="url(#mask0_2197_4574)">
<path d="M47.5998 32.32L44.1498 26.92C43.9695 26.6652 43.7373 26.4514 43.4684 26.2929C43.1995 26.1343 42.9001 26.0345 42.5898 26L41.5898 25.88C41.5898 28.55 41.5898 30.43 41.5898 30.43C41.5898 30.43 40.2898 30.43 33.6998 30.53C27.1098 30.63 21.6998 37.53 21.6998 37.53C21.6998 37.53 9.94982 37.69 8.74982 37.53C8.61691 37.5142 8.48988 37.4662 8.37982 37.39L8.06982 37.6L8.12982 41.78L8.48982 45.98C8.48982 45.98 8.67982 48.53 9.74982 49.31C10.8198 50.09 17.7498 50.74 17.7498 50.74C18.8944 50.8388 20.0453 50.8388 21.1898 50.74C22.0998 50.54 22.3898 50.54 22.4198 49.74C22.4498 48.94 24.0298 43.57 26.0698 41.01C28.1098 38.45 29.5398 37.09 32.4198 36.55C34.393 36.0869 36.4467 36.0869 38.4198 36.55C40.2952 36.9883 42.0206 37.9166 43.4198 39.24C44.4898 40.33 45.6298 40.99 46.1198 45.34C46.6098 49.69 47.8298 49.34 51.5598 49.34C55.2898 49.34 92.7798 49.34 92.7798 49.34L113.31 49.1L113.11 37.49L55.1098 38.49C53.8714 38.4841 52.6629 38.108 51.6398 37.41C50.738 36.7281 49.9427 35.9159 49.2798 35C48.8698 34.51 47.5998 32.34 47.5998 32.32Z" fill="#9999A4"/>
<path d="M113.85 50.29L48.1798 50.49C47.9098 50.49 47.6898 50.09 47.6898 49.6C47.6898 49.11 47.9098 48.68 48.1698 48.68L113.85 48.48C114.11 48.48 114.33 48.88 114.33 49.38C114.33 49.88 114.12 50.29 113.85 50.29Z" fill="#111010"/>
<path d="M46.1899 45.18C45.6999 40.83 44.5599 40.18 43.4899 39.08C42.0907 37.7566 40.3653 36.8283 38.4899 36.39C36.5167 35.9269 34.4631 35.9269 32.4899 36.39C29.6099 36.93 28.1899 38.28 26.1399 40.85C24.0899 43.42 22.5299 48.74 22.4899 49.58C22.4499 50.42 22.0199 50.42 22.0199 50.42L49.6999 49.12C47.4399 49.15 46.5799 48.65 46.1899 45.18Z" fill="#111010"/>
<path d="M37.8598 4.19L21.2498 4.51C21.2498 4.51 16.3198 4.58 14.3098 8.93C12.2998 13.28 9.56982 23.86 9.56982 23.86C9.56982 23.86 7.67982 29.54 7.74982 32.49C7.81982 35.44 7.54982 37.3 8.74982 37.49C9.94982 37.68 21.7498 37.49 21.7498 37.49C21.7498 37.49 27.1298 30.61 33.7498 30.54C40.3698 30.47 41.6398 30.44 41.6398 30.44C41.6398 30.44 41.7498 17.8 40.8298 11.44C40.2898 7.75 39.9798 5.92 39.8298 5.03C39.7811 4.80257 39.6545 4.59926 39.472 4.45507C39.2895 4.31088 39.0624 4.23483 38.8298 4.24L37.8598 4.19Z" fill="#E0A920"/>
<path opacity="0.3" d="M25.3399 17.34C23.5745 17.7555 21.9178 18.542 20.4799 19.6472C19.0419 20.7524 17.8556 22.151 16.9999 23.75V23.8C15.8299 25.8 14.0699 29.8 19.0799 31.42C21.1599 32.1 29.3499 29.42 29.5699 29.33L41.5699 24.18C41.4999 20.06 41.7699 19.56 41.2699 16.18C41.1699 15.8 28.6099 16.42 25.3399 17.34Z" fill="#EEEEFB"/>
<path d="M21.4999 7.23L32.0999 7C32.3187 6.99736 32.5359 7.03801 32.739 7.11963C32.9421 7.20124 33.127 7.32221 33.2831 7.47555C33.4392 7.6289 33.5635 7.81161 33.6488 8.01317C33.734 8.21473 33.7786 8.43115 33.7799 8.65V16.65C33.7794 17.0874 33.6247 17.5107 33.343 17.8453C33.0614 18.18 32.6708 18.4047 32.2399 18.48C29.4699 18.95 23.8199 20.08 22.7799 21.48C22.1099 22.39 21.7099 23 21.4599 23.39C21.347 23.5717 21.1893 23.7213 21.0019 23.8246C20.8146 23.9279 20.6038 23.9814 20.3899 23.98H15.4799C15.3438 23.9816 15.2093 23.9509 15.0874 23.8905C14.9655 23.83 14.8597 23.7414 14.7787 23.6321C14.6977 23.5228 14.6437 23.3958 14.6213 23.2616C14.599 23.1273 14.6087 22.9897 14.6499 22.86L18.7899 9.28C18.9686 8.69668 19.3267 8.18456 19.8132 7.81651C20.2997 7.44845 20.89 7.24322 21.4999 7.23Z" fill="#4FCEF6"/>
<path d="M9.59985 24.12C9.44383 24.1292 9.29405 24.1845 9.16944 24.2788C9.04484 24.3731 8.95102 24.5023 8.89985 24.65C8.51985 25.75 7.63985 28.36 7.40985 29.55C7.08158 31.3472 6.94415 33.174 6.99985 35C7.00989 35.3248 7.13678 35.6352 7.35722 35.874C7.57766 36.1128 7.87685 36.264 8.19985 36.3C8.49985 36.3 9.89985 36.24 10.7698 36.19C10.963 36.1803 11.1456 36.0993 11.2824 35.9625C11.4191 35.8258 11.5002 35.6431 11.5098 35.45L12.1398 24.86C12.1518 24.7467 12.1388 24.6322 12.1018 24.5244C12.0647 24.4167 12.0045 24.3184 11.9254 24.2364C11.8463 24.1545 11.7502 24.0908 11.6438 24.05C11.5375 24.0091 11.4235 23.9921 11.3098 24L9.59985 24.12Z" fill="#231F20"/>
<path d="M36.5099 30.52C36.4499 30.52 36.4299 30.52 36.3799 28.63C36.3799 27.56 36.3199 26.06 36.2899 24.29C36.2399 20.87 36.1899 17.18 36.1899 15.53C36.1899 12.15 35.5399 4.27 35.5299 4.19H35.6099C35.6099 4.26 36.2699 12.19 36.2699 15.53C36.2699 18.87 36.4499 30.19 36.5399 30.46C36.5309 30.4672 36.5235 30.4763 36.5183 30.4867C36.5132 30.4971 36.5103 30.5084 36.5099 30.52Z" fill="#231F20"/>
<path d="M20.3899 24.06H15.4798C15.3383 24.0597 15.1987 24.0263 15.0723 23.9626C14.9459 23.8989 14.8361 23.8066 14.7517 23.693C14.6672 23.5794 14.6104 23.4477 14.5858 23.3083C14.5611 23.1689 14.5694 23.0257 14.6098 22.89L18.7499 9.26C18.9326 8.66976 19.2966 8.15208 19.7903 7.7805C20.2839 7.40891 20.8821 7.2023 21.4999 7.19L32.1299 7C32.3518 7 32.5716 7.04371 32.7766 7.12864C32.9816 7.21357 33.1679 7.33806 33.3249 7.49499C33.4818 7.65192 33.6063 7.83822 33.6912 8.04326C33.7761 8.24831 33.8199 8.46807 33.8199 8.69V16.69C33.8196 17.1365 33.6621 17.5686 33.375 17.9106C33.0879 18.2525 32.6896 18.4825 32.2499 18.56C29.7599 18.98 23.8599 20.13 22.8099 21.56C22.2499 22.33 21.8099 22.97 21.4899 23.47C21.3721 23.6541 21.2092 23.8049 21.0166 23.9082C20.8241 24.0114 20.6083 24.0637 20.3899 24.06ZM32.1299 7.06L21.4999 7.27C20.9003 7.27755 20.3187 7.4753 19.8388 7.83476C19.359 8.19421 19.0057 8.69678 18.8299 9.27L14.6798 22.91C14.6433 23.0351 14.6361 23.1668 14.6586 23.2951C14.6812 23.4235 14.7329 23.5449 14.8098 23.65C14.888 23.7535 14.9893 23.8373 15.1056 23.8946C15.222 23.9519 15.3501 23.9812 15.4798 23.98H20.3899C20.5906 23.9746 20.7869 23.9198 20.9613 23.8203C21.1357 23.7209 21.2829 23.58 21.3899 23.41C21.7099 22.9 22.1499 22.26 22.7099 21.5C23.7099 20.08 29.0999 18.98 32.1999 18.45C32.621 18.3768 33.0026 18.1569 33.2772 17.8293C33.5517 17.5017 33.7014 17.0874 33.6999 16.66V8.66C33.6923 8.24506 33.5247 7.84908 33.2322 7.55469C32.9397 7.2603 32.5447 7.09024 32.1299 7.08V7.06Z" fill="#231F20"/>
<path d="M114.413 20.0339L43.0903 21.0336L43.3549 38.7092L114.677 37.7096L114.413 20.0339Z" fill="#7C2C99"/>
<path d="M115 37.9771L43.2677 39L42.9999 21.0128L114.732 20L115 37.9771ZM43.9371 38.5442L114.331 37.5314L114.083 20.4456L43.6796 21.4584L43.9371 38.5442Z" fill="black"/>
<path d="M45.1899 47.62C45.1899 49.5642 44.6134 51.4647 43.5333 53.0813C42.4531 54.6978 40.9179 55.9577 39.1217 56.7017C37.3255 57.4458 35.349 57.6404 33.4422 57.2611C31.5354 56.8818 29.7838 55.9456 28.4091 54.5709C27.0343 53.1961 26.0981 51.4446 25.7188 49.5377C25.3395 47.6309 25.5342 45.6544 26.2782 43.8582C27.0222 42.062 28.2821 40.5268 29.8987 39.4467C31.5152 38.3665 33.4157 37.79 35.3599 37.79C37.967 37.79 40.4673 38.8257 42.3108 40.6691C44.1543 42.5126 45.1899 45.0129 45.1899 47.62Z" fill="#231F20"/>
<path d="M41.9999 47.62C41.9999 48.9285 41.6122 50.2076 40.8856 51.2958C40.1591 52.384 39.1264 53.2325 37.9179 53.7341C36.7094 54.2358 35.3794 54.368 34.0958 54.1142C32.8121 53.8604 31.6325 53.2319 30.7059 52.3081C29.7793 51.3842 29.1473 50.2065 28.8896 48.9237C28.6319 47.6409 28.7601 46.3105 29.2581 45.1005C29.7561 43.8905 30.6015 42.8552 31.6875 42.1254C32.7735 41.3956 34.0515 41.004 35.3599 41C36.2309 40.9974 37.0939 41.1667 37.8994 41.4982C38.7049 41.8297 39.4371 42.3169 40.0539 42.9319C40.6707 43.5469 41.1602 44.2775 41.4941 45.082C41.828 45.8865 41.9999 46.749 41.9999 47.62Z" fill="#A2A7B0"/>
<path d="M37.3098 48C37.1698 48 37.0598 47.89 37.0598 47.81C37.0598 47.73 37.1998 47.66 37.3398 47.66H40.3398C40.4798 47.66 40.5898 47.86 40.5598 48.11C40.5298 48.36 40.3998 48.54 40.2598 48.52L37.3098 48Z" fill="#231F20"/>
<path d="M36.0999 47.74C35.9799 47.74 35.8899 47.69 35.8899 47.67C35.8899 47.65 35.9999 47.67 36.1099 47.67C36.2199 47.67 36.3099 47.67 36.3099 47.74C36.3099 47.81 36.2099 47.76 36.0999 47.74Z" fill="#231F20"/>
<path d="M36.9998 48.69C36.8798 48.61 36.8098 48.49 36.8498 48.42C36.8898 48.35 37.0298 48.34 37.1598 48.42L39.9998 49.57C40.1398 49.63 40.1598 49.86 39.9998 50.08C39.8398 50.3 39.6798 50.41 39.5598 50.33L36.9998 48.69Z" fill="#231F20"/>
<path d="M35.9998 48C35.8998 47.94 35.8198 47.87 35.8298 47.86C35.8398 47.85 35.9398 47.86 36.0498 47.91C36.1598 47.96 36.2198 48.02 36.1998 48.05C36.1798 48.08 36.0998 48.08 35.9998 48Z" fill="#231F20"/>
<path d="M36.8199 49C36.7099 48.9 36.6699 48.77 36.7199 48.71C36.7653 48.6782 36.8194 48.6611 36.8749 48.6611C36.9304 48.6611 36.9845 48.6782 37.0299 48.71L39.5799 50.35C39.6999 50.43 39.6899 50.66 39.5799 50.86C39.4699 51.06 39.1999 51.13 39.0999 51.03L36.8199 49Z" fill="#231F20"/>
<path d="M35.9199 48.12C35.8299 48.04 35.7699 47.96 35.7899 47.95C35.8099 47.94 35.8999 47.95 35.9899 48.04C36.0799 48.13 36.1399 48.17 36.1199 48.2C36.0999 48.23 35.9999 48.19 35.9199 48.12Z" fill="#231F20"/>
<path d="M36.1798 49.42C36.1298 49.29 36.1298 49.15 36.1798 49.11C36.2298 49.07 36.3798 49.11 36.4598 49.26L38.1798 51.76C38.2598 51.88 38.1798 52.08 37.9298 52.2C37.6798 52.32 37.4798 52.31 37.4198 52.2L36.1798 49.42Z" fill="#231F20"/>
<path d="M35.6799 48.3C35.644 48.2355 35.6235 48.1637 35.6199 48.09C35.6199 48.09 35.7099 48.15 35.7799 48.25C35.8499 48.35 35.8599 48.43 35.7799 48.45C35.6999 48.47 35.7299 48.4 35.6799 48.3Z" fill="#231F20"/>
<path d="M35.8599 49.53C35.8599 49.39 35.8599 49.26 35.9399 49.23C36.0199 49.2 36.1199 49.29 36.1799 49.42L37.4399 52.18C37.5099 52.31 37.3799 52.51 37.1299 52.58C36.8799 52.65 36.6699 52.58 36.6299 52.46L35.8599 49.53Z" fill="#231F20"/>
<path d="M35.5598 48.34C35.5598 48.22 35.5598 48.13 35.5598 48.12C35.5598 48.11 35.6398 48.21 35.6798 48.31C35.7198 48.41 35.7398 48.51 35.6798 48.52C35.6198 48.53 35.5898 48.45 35.5598 48.34Z" fill="#231F20"/>
<path d="M35.0799 49.57C35.0799 49.43 35.1899 49.32 35.2699 49.33C35.3171 49.3572 35.3559 49.3967 35.3823 49.4442C35.4088 49.4918 35.4218 49.5456 35.4199 49.6L35.5099 52.6C35.5099 52.75 35.3199 52.88 35.0599 52.85C34.7999 52.82 34.6299 52.69 34.6499 52.55L35.0799 49.57Z" fill="#231F20"/>
<path d="M35.2698 48.36C35.2698 48.24 35.2698 48.15 35.3298 48.15C35.3498 48.222 35.3498 48.298 35.3298 48.37C35.3298 48.49 35.3298 48.58 35.2698 48.57C35.2098 48.56 35.2498 48.47 35.2698 48.36Z" fill="#231F20"/>
<path d="M34.7498 49.49C34.7998 49.36 34.8998 49.27 34.9698 49.29C35.0398 49.31 35.0998 49.42 35.0798 49.57L34.6498 52.57C34.6498 52.7 34.4098 52.81 34.1698 52.74C33.9298 52.67 33.7698 52.51 33.8198 52.37L34.7498 49.49Z" fill="#231F20"/>
<path d="M35.1399 48.33C35.1399 48.22 35.2199 48.13 35.2399 48.15C35.2573 48.2189 35.2573 48.2911 35.2399 48.36C35.2399 48.46 35.1799 48.58 35.1399 48.55C35.0999 48.52 35.1099 48.44 35.1399 48.33Z" fill="#231F20"/>
<path d="M34.0698 49.11C34.1698 49 34.2998 48.96 34.3598 49.01C34.3895 49.0544 34.4053 49.1066 34.4053 49.16C34.4053 49.2134 34.3895 49.2656 34.3598 49.31L32.7898 51.91C32.7198 52.03 32.4698 52.05 32.2798 51.91C32.0898 51.77 31.9998 51.54 32.0898 51.43L34.0698 49.11Z" fill="#231F20"/>
<path d="M34.8899 48.19C34.9599 48.1 35.0399 48.04 35.0499 48.06C35.0599 48.08 35.0499 48.15 34.9699 48.26C34.8899 48.37 34.8299 48.43 34.7999 48.4C34.7699 48.37 34.8099 48.28 34.8899 48.19Z" fill="#231F20"/>
<path d="M33.8398 48.87C33.9498 48.78 34.0798 48.76 34.1298 48.87C34.1798 48.98 34.1298 49.05 34.0698 49.16L32.0698 51.45C31.9898 51.56 31.7498 51.53 31.5698 51.35C31.3898 51.17 31.3698 50.93 31.4798 50.84L33.8398 48.87Z" fill="#231F20"/>
<path d="M34.7999 48.1C34.8899 48 34.9999 48 34.9999 48C34.9999 48 34.9999 48.09 34.8899 48.18C34.7799 48.27 34.7199 48.32 34.6899 48.29C34.6599 48.26 34.7099 48.17 34.7999 48.1Z" fill="#231F20"/>
<path d="M33.4699 48.18C33.6099 48.18 33.7399 48.18 33.7599 48.24C33.7799 48.3 33.7599 48.42 33.5899 48.49L30.8699 49.83C30.7499 49.89 30.5299 49.83 30.4499 49.54C30.3699 49.25 30.4499 49.07 30.5599 49.03L33.4699 48.18Z" fill="#231F20"/>
<path d="M34.6598 47.84C34.7698 47.84 34.8598 47.84 34.8598 47.84C34.815 47.8947 34.7563 47.9361 34.6898 47.96C34.5898 48.01 34.4698 48.03 34.4698 47.96C34.4698 47.89 34.5398 47.88 34.6598 47.84Z" fill="#231F20"/>
<path d="M33.4098 47.85C33.5498 47.85 33.6698 47.85 33.6798 47.97C33.6898 48.09 33.6098 48.13 33.4698 48.18L30.5598 49C30.4298 49 30.2498 48.88 30.1898 48.64C30.1298 48.4 30.2498 48.17 30.3898 48.16L33.4098 47.85Z" fill="#231F20"/>
<path d="M34.6299 47.72C34.7399 47.72 34.8399 47.72 34.8299 47.72C34.8199 47.72 34.7599 47.78 34.6499 47.81C34.5399 47.84 34.4299 47.81 34.4199 47.81C34.4099 47.81 34.5099 47.73 34.6299 47.72Z" fill="#231F20"/>
<path d="M33.4699 47.07C33.6099 47.07 33.6999 47.2 33.6799 47.28C33.6599 47.36 33.5499 47.41 33.4099 47.4L30.4099 47.05C30.2699 47.05 30.1799 46.83 30.2099 46.58C30.2399 46.33 30.4499 46.17 30.5799 46.21L33.4699 47.07Z" fill="#231F20"/>
<path d="M34.6498 47.42C34.7598 47.42 34.8398 47.49 34.8298 47.51C34.8198 47.53 34.7398 47.51 34.6298 47.51C34.5198 47.51 34.4198 47.46 34.4198 47.42C34.4198 47.38 34.5398 47.39 34.6498 47.42Z" fill="#231F20"/>
<path d="M33.5898 46.75C33.7298 46.82 33.7798 46.92 33.7598 47C33.7398 47.08 33.6098 47.11 33.4698 47.07L30.5598 46.21C30.4198 46.21 30.3698 45.95 30.4498 45.71C30.5298 45.47 30.7498 45.35 30.8698 45.41L33.5898 46.75Z" fill="#231F20"/>
<path d="M34.6899 47.3C34.7999 47.36 34.8499 47.4 34.8599 47.43C34.8699 47.46 34.7699 47.43 34.6599 47.43C34.5499 47.43 34.4599 47.34 34.4699 47.3C34.4799 47.26 34.5899 47.26 34.6899 47.3Z" fill="#231F20"/>
<path d="M34.0698 46.13C34.1698 46.25 34.1798 46.37 34.1298 46.42C34.0798 46.47 33.9498 46.42 33.8398 46.42L31.4898 44.5C31.3798 44.41 31.4198 44.18 31.5798 43.99C31.7398 43.8 31.9998 43.77 32.0798 43.88L34.0698 46.13Z" fill="#231F20"/>
<path d="M34.8699 47.07C34.9499 47.16 34.9899 47.23 34.9799 47.25C34.9699 47.27 34.8899 47.25 34.7999 47.14C34.7099 47.03 34.6499 46.99 34.6699 46.95C34.6899 46.91 34.7899 47 34.8699 47.07Z" fill="#231F20"/>
<path d="M34.3499 45.93C34.3796 45.9744 34.3954 46.0266 34.3954 46.08C34.3954 46.1334 34.3796 46.1856 34.3499 46.23C34.2899 46.29 34.1599 46.23 34.0599 46.13L32.0599 43.84C31.9699 43.73 32.0599 43.52 32.2499 43.36C32.4399 43.2 32.6899 43.22 32.7599 43.36L34.3499 45.93Z" fill="#231F20"/>
<path d="M34.9999 47C35.0599 47.1 35.0899 47.17 35.0799 47.2C35.0699 47.23 34.9899 47.2 34.9199 47.06C34.8499 46.92 34.8099 46.89 34.8299 46.86C34.8499 46.83 34.9099 46.89 34.9999 47Z" fill="#231F20"/>
<path d="M35.0798 45.67C35.0798 45.82 35.0798 45.92 34.9698 45.95C34.8598 45.98 34.7998 45.89 34.7498 45.75L33.8198 42.86C33.7698 42.73 33.9298 42.56 34.1698 42.49C34.4098 42.42 34.6298 42.49 34.6498 42.67L35.0798 45.67Z" fill="#231F20"/>
<path d="M35.2398 46.89C35.2571 46.9589 35.2571 47.0311 35.2398 47.1C35.2398 47.1 35.1798 47.02 35.1398 46.91C35.0998 46.8 35.1398 46.71 35.1398 46.69C35.1398 46.67 35.2298 46.78 35.2398 46.89Z" fill="#231F20"/>
<path d="M35.4199 45.65C35.4199 45.79 35.3399 45.9 35.2699 45.91C35.1999 45.92 35.0999 45.81 35.0799 45.67L34.6499 42.67C34.6499 42.53 34.8099 42.39 35.0599 42.37C35.3099 42.35 35.5099 42.47 35.5099 42.61L35.4199 45.65Z" fill="#231F20"/>
<path d="M35.3699 46.87C35.3899 46.942 35.3899 47.018 35.3699 47.09C35.3699 47.09 35.3699 47 35.3099 46.89C35.2499 46.78 35.3099 46.68 35.3099 46.67C35.3099 46.66 35.3799 46.75 35.3699 46.87Z" fill="#231F20"/>
<path d="M36.1798 45.83C36.161 45.8797 36.1285 45.923 36.086 45.9549C36.0435 45.9867 35.9928 46.0059 35.9398 46.01C35.8598 46.01 35.8298 45.85 35.8598 45.72L36.6298 42.78C36.6298 42.64 36.8898 42.58 37.1298 42.66C37.3698 42.74 37.5098 42.93 37.4398 43.06L36.1798 45.83Z" fill="#231F20"/>
<path d="M35.6599 46.93C35.6599 47.03 35.5599 47.12 35.5399 47.12C35.5199 47.12 35.5399 47.02 35.5399 46.91C35.5399 46.8 35.6299 46.72 35.6599 46.72C35.6899 46.72 35.7099 46.82 35.6599 46.93Z" fill="#231F20"/>
<path d="M36.4798 46C36.3998 46.11 36.2698 46.18 36.1998 46.14C36.1298 46.1 36.1298 45.97 36.1998 45.84L37.4598 43.07C37.5198 42.94 37.7498 42.93 37.9698 43.07C38.1898 43.21 38.2998 43.39 38.2198 43.51L36.4798 46Z" fill="#231F20"/>
<path d="M35.7799 47C35.7099 47.1 35.6399 47.18 35.6199 47.17C35.6215 47.096 35.6422 47.0237 35.6799 46.96C35.7299 46.85 35.7999 46.79 35.8299 46.8C35.8599 46.81 35.8399 46.9 35.7799 47Z" fill="#231F20"/>
<path d="M36.9998 46.55C36.9539 46.5805 36.9 46.5968 36.8448 46.5968C36.7897 46.5968 36.7358 46.5805 36.6898 46.55C36.6898 46.49 36.6898 46.36 36.7898 46.26L39.0198 44.2C39.1198 44.11 39.3398 44.2 39.4998 44.38C39.6598 44.56 39.6698 44.8 39.4998 44.88L36.9998 46.55Z" fill="#231F20"/>
<path d="M35.9998 47.21C35.9414 47.2557 35.8728 47.2866 35.7998 47.3C35.7998 47.3 35.7998 47.21 35.9298 47.13C36.0598 47.05 36.0998 47.01 36.1298 47.04C36.1598 47.07 36.0898 47.14 35.9998 47.21Z" fill="#231F20"/>
<path d="M37.1898 46.85C37.0598 46.85 36.9098 46.85 36.8798 46.85C36.8498 46.85 36.8798 46.65 37.0298 46.57L39.5798 44.93C39.6998 44.85 39.8998 44.93 40.0198 45.19C40.1398 45.45 40.1198 45.64 40.0198 45.69L37.1898 46.85Z" fill="#231F20"/>
<path d="M36.0498 47.32C35.9823 47.3574 35.9068 47.378 35.8298 47.38C35.8298 47.38 35.8998 47.29 35.9998 47.23C36.0998 47.17 36.1898 47.15 36.1998 47.23C36.2098 47.31 36.1598 47.27 36.0498 47.32Z" fill="#231F20"/>
<path d="M37.3398 47.62C37.1998 47.62 37.0698 47.55 37.0598 47.48C37.0498 47.41 37.1698 47.31 37.3098 47.28L40.3098 46.77C40.4498 46.77 40.5898 46.92 40.6098 47.17C40.6298 47.42 40.5298 47.62 40.3898 47.62H37.3398Z" fill="#231F20"/>
<path d="M36.1099 47.61C36.0373 47.624 35.9626 47.624 35.8899 47.61C35.8899 47.61 35.9799 47.55 36.0999 47.53C36.2199 47.51 36.2999 47.53 36.3099 47.53C36.3199 47.53 36.2299 47.61 36.1099 47.61Z" fill="#231F20"/>
<path d="M15.0598 35.15C14.4859 35.1501 13.9348 34.9249 13.5253 34.5228C13.1157 34.1207 12.8803 33.5739 12.8698 33V29.9C12.8599 27.4351 13.1965 24.9811 13.8698 22.61C15.3698 17.38 18.0299 8.72 18.0599 8.61C18.3044 8.0323 18.7094 7.53684 19.227 7.18236C19.7445 6.82787 20.3529 6.62923 20.9799 6.61L32.2799 6.2H32.3499C32.9369 6.19999 33.5001 6.43251 33.9161 6.84668C34.3322 7.26085 34.5672 7.82295 34.5699 8.41V17.22C34.2609 18.5897 33.6644 19.8782 32.8199 21C31.8699 22.26 31.1799 23.16 30.6199 23.88C29.7399 25.02 29.1599 25.76 28.3599 26.88C27.3599 28.28 23.6699 32.88 23.6299 32.88C22.3899 34.32 21.5499 34.65 20.5699 34.71L15.1998 35.05L15.0598 35.15ZM32.3499 6.27H32.2799L20.9999 6.66C20.3828 6.68389 19.7857 6.88528 19.2801 7.24003C18.7746 7.59477 18.3822 8.0878 18.1499 8.66C18.1499 8.74 15.4598 17.4 13.9698 22.66C13.3095 25.0161 12.983 27.4532 12.9998 29.9V33C12.9998 33.5596 13.2222 34.0963 13.6179 34.492C14.0136 34.8877 14.5502 35.11 15.1098 35.11H15.2398L20.6199 34.77C21.5699 34.71 22.3999 34.38 23.6199 32.96C23.6199 32.96 27.3799 28.32 28.3499 26.96C29.1499 25.81 29.7299 25.06 30.5999 23.96C31.1599 23.23 31.8599 22.33 32.8099 21.08C33.6447 19.9624 34.2343 18.6811 34.5399 17.32V8.41C34.5399 8.12471 34.483 7.84229 34.3723 7.57934C34.2617 7.31639 34.0995 7.07822 33.8955 6.87883C33.6915 6.67945 33.4496 6.52287 33.1842 6.41832C32.9187 6.31376 32.6351 6.26333 32.3499 6.27Z" fill="#231F20"/>
<path d="M59.2898 43.71C59.2898 44.3275 59.1066 44.9311 58.7633 45.4444C58.42 45.9577 57.9322 46.3576 57.3615 46.5934C56.7908 46.8293 56.163 46.8905 55.5575 46.7693C54.952 46.6481 54.3961 46.35 53.9601 45.9126C53.5242 45.4753 53.2278 44.9184 53.1086 44.3125C52.9893 43.7066 53.0525 43.079 53.2902 42.5091C53.5279 41.9392 53.9293 41.4526 54.4437 41.1109C54.9581 40.7693 55.5623 40.588 56.1798 40.59C56.5891 40.59 56.9943 40.6708 57.3723 40.8277C57.7503 40.9846 58.0936 41.2146 58.3825 41.5044C58.6714 41.7943 58.9003 42.1383 59.056 42.5168C59.2117 42.8953 59.2911 43.3007 59.2898 43.71Z" fill="#E0A920"/>
<path d="M66.4998 43.71C66.4998 44.3271 66.3168 44.9303 65.974 45.4434C65.6312 45.9565 65.1439 46.3564 64.5738 46.5925C64.0037 46.8286 63.3763 46.8904 62.7711 46.77C62.1659 46.6497 61.61 46.3525 61.1736 45.9162C60.7373 45.4798 60.4401 44.9239 60.3198 44.3187C60.1994 43.7135 60.2612 43.0861 60.4973 42.516C60.7335 41.9459 61.1334 41.4586 61.6464 41.1158C62.1595 40.773 62.7627 40.59 63.3798 40.59C64.2073 40.59 65.0009 40.9187 65.586 41.5038C66.1711 42.0889 66.4998 42.8825 66.4998 43.71Z" fill="#E0A920"/>
<path d="M73.6999 43.71C73.6999 44.3275 73.5166 44.9311 73.1733 45.4444C72.8301 45.9577 72.3422 46.3576 71.7715 46.5934C71.2008 46.8293 70.573 46.8905 69.9675 46.7693C69.362 46.6481 68.8061 46.35 68.3702 45.9126C67.9342 45.4753 67.6379 44.9184 67.5186 44.3125C67.3993 43.7066 67.4626 43.079 67.7002 42.5091C67.9379 41.9392 68.3394 41.4526 68.8538 41.1109C69.3682 40.7693 69.9724 40.588 70.5899 40.59C70.9991 40.59 71.4044 40.6708 71.7823 40.8277C72.1603 40.9846 72.5036 41.2146 72.7925 41.5044C73.0814 41.7943 73.3103 42.1383 73.466 42.5168C73.6217 42.8953 73.7012 43.3007 73.6999 43.71Z" fill="#E0A920"/>
<path d="M56.1799 46.86C55.5541 46.862 54.9417 46.6781 54.4205 46.3316C53.8994 45.9851 53.4928 45.4917 53.2524 44.9139C53.012 44.3361 52.9485 43.6999 53.0701 43.086C53.1918 42.4721 53.4929 41.9081 53.9355 41.4656C54.378 41.023 54.942 40.7219 55.5559 40.6002C56.1698 40.4786 56.806 40.5421 57.3838 40.7825C57.9616 41.0229 58.455 41.4295 58.8015 41.9506C59.148 42.4718 59.3319 43.0842 59.3299 43.71C59.3273 44.5446 58.9945 45.3443 58.4044 45.9345C57.8142 46.5246 57.0145 46.8574 56.1799 46.86ZM56.1799 40.63C55.5703 40.628 54.9738 40.807 54.466 41.1442C53.9582 41.4814 53.5619 41.9618 53.3272 42.5244C53.0926 43.087 53.0302 43.7066 53.1479 44.3047C53.2656 44.9028 53.5581 45.4526 53.9885 45.8843C54.4188 46.3161 54.9676 46.6104 55.5653 46.7301C56.1631 46.8497 56.7829 46.7893 57.3462 46.5565C57.9096 46.3237 58.3912 45.9289 58.7301 45.4222C59.069 44.9155 59.2499 44.3196 59.2499 43.71C59.2499 42.8949 58.9268 42.113 58.3513 41.5356C57.7759 40.9583 56.995 40.6326 56.1799 40.63Z" fill="#231F20"/>
<path d="M63.3799 46.86C62.7544 46.86 62.1431 46.6744 61.6232 46.3267C61.1033 45.9791 60.6983 45.485 60.4595 44.907C60.2206 44.329 60.1586 43.6931 60.2813 43.0798C60.4041 42.4666 60.706 41.9035 61.149 41.462C61.5919 41.0205 62.1559 40.7203 62.7695 40.5995C63.3832 40.4787 64.0188 40.5427 64.5961 40.7834C65.1733 41.0241 65.6661 41.4307 66.0122 41.9517C66.3582 42.4727 66.5418 43.0846 66.5399 43.71C66.5399 44.1245 66.458 44.5349 66.2991 44.9178C66.1402 45.3006 65.9073 45.6483 65.6137 45.9409C65.3201 46.2336 64.9717 46.4654 64.5884 46.6231C64.205 46.7808 63.7944 46.8613 63.3799 46.86ZM63.3799 40.63C62.7707 40.63 62.1752 40.8106 61.6687 41.1491C61.1622 41.4875 60.7674 41.9685 60.5343 42.5313C60.3012 43.0941 60.2402 43.7134 60.359 44.3109C60.4779 44.9083 60.7712 45.4571 61.202 45.8879C61.6327 46.3186 62.1815 46.612 62.779 46.7308C63.3764 46.8497 63.9957 46.7887 64.5585 46.5555C65.1213 46.3224 65.6023 45.9277 65.9408 45.4212C66.2792 44.9146 66.4599 44.3192 66.4599 43.71C66.4599 42.8931 66.1354 42.1097 65.5577 41.5321C64.9801 40.9545 64.1967 40.63 63.3799 40.63Z" fill="#231F20"/>
<path d="M70.5899 46.86C69.9641 46.862 69.3518 46.6781 68.8306 46.3316C68.3094 45.9851 67.9028 45.4917 67.6624 44.9139C67.422 44.3361 67.3586 43.6999 67.4802 43.086C67.6018 42.4721 67.903 41.9081 68.3455 41.4656C68.788 41.023 69.352 40.7219 69.9659 40.6002C70.5798 40.4786 71.216 40.5421 71.7938 40.7825C72.3717 41.0229 72.8651 41.4295 73.2115 41.9506C73.558 42.4718 73.7419 43.0842 73.7399 43.71C73.7373 44.5446 73.4046 45.3443 72.8144 45.9345C72.2242 46.5246 71.4246 46.8574 70.5899 46.86ZM70.5899 40.63C69.9808 40.63 69.3853 40.8106 68.8788 41.1491C68.3723 41.4875 67.9775 41.9685 67.7444 42.5313C67.5113 43.0941 67.4503 43.7134 67.5691 44.3109C67.688 44.9083 67.9813 45.4571 68.412 45.8879C68.8428 46.3186 69.3916 46.612 69.9891 46.7308C70.5865 46.8497 71.2058 46.7887 71.7686 46.5555C72.3314 46.3224 72.8124 45.9277 73.1509 45.4212C73.4893 44.9146 73.6699 44.3192 73.6699 43.71C73.6699 42.8931 73.3454 42.1097 72.7678 41.5321C72.1902 40.9545 71.4068 40.63 70.5899 40.63Z" fill="#231F20"/>
<path d="M29.6299 22.09C29.6272 22.197 29.5829 22.2987 29.5063 22.3735C29.4297 22.4482 29.3269 22.49 29.2199 22.49H26.9999C26.9413 22.4992 26.8815 22.4957 26.8245 22.4795C26.7675 22.4634 26.7147 22.4352 26.6696 22.3967C26.6246 22.3582 26.5884 22.3104 26.5637 22.2566C26.5389 22.2028 26.526 22.1442 26.526 22.085C26.526 22.0258 26.5389 21.9672 26.5637 21.9134C26.5884 21.8596 26.6246 21.8118 26.6696 21.7733C26.7147 21.7348 26.7675 21.7066 26.8245 21.6905C26.8815 21.6743 26.9413 21.6708 26.9999 21.68H29.2699C29.3786 21.68 29.4829 21.7232 29.5598 21.8001C29.6367 21.877 29.6799 21.9813 29.6799 22.09H29.6299Z" fill="#231F20"/>
<path d="M18.8198 17.48C18.8198 17.64 18.6398 17.78 18.4198 17.78C18.1998 17.78 18.0098 17.65 17.9998 17.49L17.9198 8.42C17.9198 8.26 18.0998 8.13 18.3298 8.13C18.5598 8.13 18.7398 8.25 18.7398 8.42L18.8198 17.48Z" fill="#231F20"/>
<path d="M18.2099 9C18.2099 8.92 17.7899 8 17.5399 7.39C17.4798 7.22831 17.4541 7.05586 17.4644 6.88367C17.4747 6.71149 17.5209 6.54335 17.5999 6.39C17.7095 6.25715 17.8493 6.15243 18.0076 6.08459C18.1659 6.01674 18.3381 5.98774 18.5099 6C19.5479 5.92822 20.5896 6.07119 21.5699 6.42L21.4899 6.6C20.5282 6.26053 19.5074 6.12101 18.4899 6.19C18.3463 6.18253 18.203 6.20843 18.0711 6.26569C17.9392 6.32295 17.8224 6.41 17.7299 6.52C17.6693 6.65879 17.6381 6.80858 17.6381 6.96C17.6381 7.11143 17.6693 7.26122 17.7299 7.4C17.9199 7.86 18.3899 8.96 18.4099 9.03H18.2199H18.3099L18.2099 9Z" fill="#231F20"/>
<path d="M21.8599 6.45C21.8678 6.53752 21.8407 6.62461 21.7844 6.69213C21.7282 6.75964 21.6474 6.80204 21.5599 6.81C21.4723 6.81795 21.3852 6.79081 21.3177 6.73455C21.2502 6.67829 21.2078 6.59752 21.1999 6.51C21.1928 6.46397 21.195 6.417 21.2063 6.37183C21.2177 6.32667 21.2379 6.28422 21.2658 6.24696C21.2938 6.20971 21.3289 6.17841 21.369 6.15489C21.4092 6.13137 21.4537 6.11611 21.4999 6.11C21.5885 6.10444 21.6757 6.13376 21.743 6.19169C21.8103 6.24961 21.8522 6.33155 21.8599 6.42V6.45Z" fill="#231F20"/>
<path d="M65.8199 35.11C65.8199 35.24 65.7683 35.3646 65.6764 35.4565C65.5845 35.5484 65.4599 35.6 65.3299 35.6H63.9999C63.8673 35.6 63.7401 35.5473 63.6463 35.4536C63.5526 35.3598 63.4999 35.2326 63.4999 35.1C63.4999 34.9674 63.5526 34.8402 63.6463 34.7465C63.7401 34.6527 63.8673 34.6 63.9999 34.6H65.2999C65.3642 34.6 65.428 34.6127 65.4874 34.6373C65.5469 34.6619 65.6009 34.698 65.6464 34.7435C65.6919 34.789 65.728 34.843 65.7526 34.9025C65.7772 34.9619 65.7899 35.0257 65.7899 35.09L65.8199 35.11Z" fill="#FD941A"/>
<path d="M19.8799 42.88H13.4899C13.3573 42.88 13.2301 42.8273 13.1363 42.7336C13.0425 42.6398 12.9899 42.5126 12.9899 42.38C12.9899 42.2474 13.0425 42.1202 13.1363 42.0265C13.2301 41.9327 13.3573 41.88 13.4899 41.88H19.8799C20.0125 41.88 20.1397 41.9327 20.2334 42.0265C20.3272 42.1202 20.3799 42.2474 20.3799 42.38C20.3799 42.5126 20.3272 42.6398 20.2334 42.7336C20.1397 42.8273 20.0125 42.88 19.8799 42.88ZM13.4899 42.05C13.3499 42.05 13.2399 42.21 13.2399 42.4C13.2399 42.59 13.3499 42.76 13.4899 42.76H19.8799C20.0199 42.76 20.1399 42.6 20.1399 42.4C20.1399 42.2 20.0199 42.05 19.8799 42.05H13.4899Z" fill="#231F20"/>
<path d="M19.8799 45.81H13.4899C13.3774 45.7974 13.2745 45.741 13.2033 45.653C13.1322 45.565 13.0986 45.4526 13.1099 45.34C13.0985 45.2263 13.1318 45.1127 13.2027 45.0231C13.2736 44.9335 13.3766 44.875 13.4899 44.86H19.8799C19.9931 44.875 20.0961 44.9335 20.167 45.0231C20.238 45.1127 20.2713 45.2263 20.2599 45.34C20.2711 45.4526 20.2375 45.565 20.1664 45.653C20.0952 45.741 19.9923 45.7974 19.8799 45.81ZM13.4899 45C13.3499 45 13.2399 45.16 13.2399 45.36C13.2399 45.56 13.3499 45.71 13.4899 45.71H19.8799C20.0199 45.71 20.1399 45.55 20.1399 45.36C20.1399 45.17 19.9999 45 19.8799 45H13.4899Z" fill="#231F20"/>
<path d="M36.7199 2.83C36.7199 3.83 36.2599 4.65 35.7199 4.65H35.4999C34.9299 4.65 34.4999 3.83 34.4999 2.83C34.4999 1.83 34.8899 1 35.4599 1H35.6799C36.2599 1 36.6799 1.82 36.6799 2.83H36.7199Z" fill="#E3D0AA"/>
<path opacity="0.3" d="M115 22.2662V21H107.738L42.9999 36.1057V38H49.938L115 22.2662Z" fill="#EEEEFB"/>
<path d="M11.6198 44.7C11.6342 44.9364 11.602 45.1733 11.5249 45.3972C11.4478 45.6211 11.3273 45.8276 11.1704 46.005C11.0134 46.1824 10.8231 46.3271 10.6102 46.4309C10.3974 46.5347 10.1662 46.5956 9.9298 46.61C9.69342 46.6244 9.45651 46.5922 9.23259 46.5151C9.00868 46.438 8.80215 46.3175 8.62479 46.1606C8.44743 46.0036 8.30271 45.8133 8.19891 45.6005C8.09511 45.3876 8.03424 45.1564 8.0198 44.92L7.8698 42.44C7.84463 42.1985 7.8686 41.9543 7.94026 41.7223C8.01192 41.4903 8.12978 41.2752 8.28676 41.0899C8.44373 40.9046 8.63657 40.753 8.85367 40.6443C9.07077 40.5355 9.30763 40.4717 9.55001 40.4569C9.79239 40.442 10.0353 40.4763 10.264 40.5578C10.4928 40.6393 10.7027 40.7662 10.8811 40.9309C11.0595 41.0957 11.2028 41.2948 11.3022 41.5163C11.4017 41.7378 11.4553 41.9772 11.4598 42.22L11.6198 44.7Z" fill="#E3D0AA"/>
<path opacity="0.5" d="M33.7798 16.66V8.66001C33.7895 8.54688 33.7895 8.43314 33.7798 8.32001L29.5398 19C30.5398 18.79 31.5398 18.61 32.2398 18.49C32.6707 18.4148 33.0613 18.19 33.343 17.8554C33.6246 17.5207 33.7793 17.0974 33.7798 16.66Z" fill="#E8EFF6"/>
<path opacity="0.5" d="M21.4598 23.43C21.6498 23.13 21.9498 22.68 22.3898 22.06L28.6598 7.06L24.0498 7.15L17.4098 24H20.4098C20.6185 24.0002 20.8239 23.9481 21.0073 23.8486C21.1907 23.749 21.3463 23.6051 21.4598 23.43Z" fill="#E8EFF6"/>
</g>
</svg>
