<svg width="77" height="71" viewBox="0 0 77 71" fill="none" xmlns="http://www.w3.org/2000/svg">
<mask id="mask0_2197_3969" style="mask-type:alpha" maskUnits="userSpaceOnUse" x="0" y="0" width="77" height="71">
<rect width="77" height="71" fill="#D9D9D9"/>
</mask>
<g mask="url(#mask0_2197_3969)">
<path d="M44.64 17.05C44.5917 16.4595 44.3193 15.9098 43.8786 15.5138C43.4379 15.1177 42.8624 14.9053 42.2701 14.92C37.2701 15.05 25.07 15.42 20.98 15.83C18.25 16.1 16.5401 16.36 15.5201 16.54C15.141 16.6084 14.7851 16.7705 14.4847 17.0115C14.1844 17.2526 13.949 17.5649 13.8 17.92L7.86005 32C7.75079 32.2567 7.68977 32.5313 7.68005 32.81L7.05005 47.43L7.63005 47.82L7.69005 48.82L7.37005 49.37C7.16114 49.7282 7.05074 50.1354 7.05005 50.55V58.09C7.05109 58.3594 7.09844 58.6267 7.19005 58.88L7.55005 59.88C7.70841 60.311 7.99006 60.6858 8.35991 60.9579C8.72977 61.23 9.17148 61.3872 9.63005 61.41L16.46 61.74C16.7661 61.7548 17.0721 61.7091 17.3604 61.6055C17.6488 61.5019 17.9139 61.3424 18.1406 61.1362C18.3672 60.93 18.5509 60.6811 18.6813 60.4037C18.8116 60.1264 18.8859 59.8261 18.9 59.52L19.1 55.35C19.1044 55.2049 19.1245 55.0608 19.16 54.92C19.46 53.71 21.09 48.11 25.75 48.05C31 48 33.3 48 33.3 48C33.3 48 35.23 47.75 36.91 50.39C38.2745 52.2405 39.0073 54.4809 39 56.78C39 57.3534 39 57.8634 39 58.31C39.0065 58.6169 39.0736 58.9195 39.1973 59.2003C39.3211 59.4812 39.4991 59.7349 39.7212 59.9467C39.9433 60.1586 40.2051 60.3245 40.4915 60.4349C40.7778 60.5453 41.0832 60.598 41.39 60.59L68 60.52L152.26 60.46C152.875 60.46 153.465 60.2156 153.901 59.7805C154.336 59.3454 154.58 58.7553 154.58 58.14V52.36C154.584 52.0524 154.527 51.747 154.412 51.4615C154.298 51.176 154.128 50.916 153.912 50.6966C153.696 50.4772 153.439 50.3027 153.156 50.1831C152.872 50.0635 152.568 50.0013 152.26 50L43.7901 49.5V49.32C43.7449 48.9733 43.7781 48.6208 43.8871 48.2885C43.9961 47.9563 44.1782 47.6527 44.42 47.4L44.89 46.91C45.3075 46.4748 45.5373 45.8931 45.53 45.29L45.4501 26.03C45.4548 25.9668 45.4548 25.9033 45.4501 25.84L44.64 17.05Z" fill="#ADB1BB"/>
<path opacity="0.3" d="M45.49 43.19V36.74C38.18 36.12 23.78 36.2 17.93 36.37C14.368 36.5078 10.8402 37.1199 7.43996 38.19L7.07996 46.73C10.16 45.91 15.08 44.67 19.01 43.96C23.62 43.12 38.12 43.13 45.49 43.19Z" fill="#EEEEFB"/>
<path d="M38.26 20.52H33.7C32.4076 20.52 31.36 21.5677 31.36 22.86V28.8C31.36 30.0924 32.4076 31.14 33.7 31.14H38.26C39.5523 31.14 40.6 30.0924 40.6 28.8V22.86C40.6 21.5677 39.5523 20.52 38.26 20.52Z" fill="#4FCEF6"/>
<path d="M27.6201 28.6V23C27.6205 22.7007 27.5599 22.4045 27.4419 22.1295C27.3239 21.8544 27.151 21.6063 26.9339 21.4004C26.7167 21.1944 26.4598 21.035 26.1789 20.9318C25.8979 20.8285 25.5989 20.7837 25.3001 20.8L18.0001 21.21C17.564 21.224 17.1418 21.3662 16.7861 21.6187C16.4304 21.8713 16.157 22.223 16.0001 22.63L13.4301 29.45C13.294 29.8101 13.2535 30.1992 13.3124 30.5796C13.3713 30.9599 13.5277 31.3185 13.7663 31.6206C14.0049 31.9226 14.3176 32.1577 14.674 32.303C15.0304 32.4484 15.4183 32.499 15.8001 32.45L25.7001 31.15C26.2252 31.0827 26.7085 30.8282 27.0612 30.4333C27.4139 30.0383 27.6123 29.5295 27.6201 29V28.6Z" fill="#4FCEF6"/>
<path opacity="0.5" d="M40.61 24.8V22.86C40.6073 22.2385 40.3586 21.6433 39.9182 21.2048C39.4777 20.7662 38.8815 20.52 38.26 20.52H38.05L33.86 31.14H38L40.61 24.8Z" fill="#E8EFF6"/>
<path opacity="0.5" d="M26.07 20.92C25.8214 20.8408 25.5606 20.807 25.3 20.82L21.69 21L17.26 32.24L21.56 31.68L26.07 20.92Z" fill="#E8EFF6"/>
<path d="M154.57 60.85C154.573 60.9646 154.552 61.0786 154.51 61.1852C154.468 61.2919 154.405 61.3891 154.325 61.4711C154.245 61.5531 154.149 61.6182 154.044 61.6627C153.938 61.7071 153.825 61.73 153.71 61.73H40.3699C40.154 61.7069 39.9542 61.6047 39.8091 61.4432C39.6639 61.2817 39.5836 61.0722 39.5836 60.855C39.5836 60.6378 39.6639 60.4283 39.8091 60.2668C39.9542 60.1052 40.154 60.0031 40.3699 59.98H153.71C153.824 59.98 153.936 60.0025 154.041 60.0464C154.146 60.0902 154.242 60.1545 154.322 60.2354C154.402 60.3163 154.465 60.4123 154.507 60.5178C154.55 60.6233 154.571 60.7362 154.57 60.85Z" fill="#111010"/>
<path d="M41.49 60.59C41.1811 60.6007 40.873 60.55 40.5838 60.4409C40.2945 60.3319 40.0297 60.1666 39.8047 59.9546C39.5796 59.7426 39.3989 59.4881 39.2728 59.2058C39.1467 58.9235 39.0778 58.6191 39.07 58.31C39.07 57.8567 39.07 57.3467 39.07 56.78C39.0686 54.479 38.3212 52.2404 36.94 50.4C35.23 47.76 33.3 48 33.3 48C33.3 48 30.98 48 25.75 48.07C21.09 48.13 19.46 53.73 19.16 54.94C19.1245 55.0807 19.1044 55.2249 19.1 55.37L18.9 59.54C18.8772 59.8899 18.7753 60.23 18.6021 60.5348C18.4289 60.8397 18.1889 61.1013 17.9 61.3L41.73 60.58L41.49 60.59Z" fill="#111010"/>
<path d="M151 44.44H52.33C51.2506 44.4388 50.213 44.023 49.4313 43.2786C48.6497 42.5342 48.1839 41.5181 48.13 40.44L46.82 15.65C46.7866 14.9067 46.4928 14.1989 45.99 13.6504C45.4872 13.102 44.8076 12.7478 44.07 12.65L26.07 10.24L25.64 4.52002L59.94 4.66002L65.5 8.77002C69.1886 11.4591 73.6353 12.9086 78.2 12.91L157.46 13.21L155.74 40C155.654 41.201 155.119 42.3255 154.24 43.1487C153.361 43.9718 152.204 44.433 151 44.44Z" fill="#A15A2F"/>
<path d="M151 45H52.3299C51.1203 45.0017 49.9561 44.5389 49.0778 43.7071C48.1994 42.8753 47.674 41.738 47.6099 40.53L46.2899 15.68C46.2579 15.0643 46.0114 14.4792 45.5931 14.0262C45.1748 13.5732 44.6112 13.2809 43.9999 13.2L25.5699 10.74L25.0699 4L60.1199 4.14L65.8099 8.35C69.4181 10.9574 73.7582 12.3575 78.2099 12.35L158.01 12.65L156.26 40C156.184 41.3461 155.597 42.6126 154.62 43.5415C153.643 44.4704 152.348 44.992 151 45ZM26.5499 9.81L44.1399 12.16C44.9923 12.2749 45.7781 12.6832 46.3621 13.3146C46.9461 13.946 47.2919 14.7612 47.3399 15.62L48.6499 40.43C48.7011 41.3718 49.1109 42.2584 49.7953 42.9074C50.4797 43.5565 51.3867 43.9188 52.3299 43.92H151C152.084 43.9171 153.126 43.5022 153.915 42.7594C154.704 42.0167 155.181 41.0016 155.25 39.92L156.9 13.73L78.1999 13.43C73.5293 13.4239 68.9798 11.9436 65.1999 9.2L59.7799 5.2L26.1999 5.05L26.5499 9.81Z" fill="#231F20"/>
<path d="M151.12 50.03L52.95 49.58V44.44H151.12V50.03Z" fill="#231F20"/>
<path d="M9.45997 31.4C9.71546 31.4584 9.98345 31.4229 10.2149 31.2998C10.4463 31.1768 10.6256 30.9745 10.72 30.73L14.23 21.66C14.2923 21.4957 14.3144 21.3189 14.2944 21.1443C14.2744 20.9698 14.2129 20.8025 14.1149 20.6566C14.017 20.5107 13.8856 20.3904 13.7316 20.3057C13.5776 20.2211 13.4056 20.1745 13.23 20.17H12.84L8.21997 31.11L9.45997 31.4Z" fill="#4FCEF6"/>
<path d="M13 56.06C12.782 56.0653 12.5651 56.0276 12.3616 55.9491C12.1582 55.8705 11.9722 55.7527 11.8144 55.6022C11.6565 55.4518 11.5298 55.2717 11.4415 55.0723C11.3533 54.8729 11.3052 54.658 11.3 54.44C11.14 49.44 10.82 37.62 11.13 34.85C11.5177 32.2428 12.2056 29.6892 13.18 27.24L13.55 26.24C14.1612 24.4834 14.8964 22.7724 15.75 21.12C15.9446 20.8552 16.1971 20.6382 16.4883 20.4857C16.7794 20.3332 17.1015 20.2492 17.43 20.24L27.14 19.8C27.5821 19.8 28.0064 19.9742 28.3209 20.285C28.6354 20.5957 28.8147 21.0179 28.82 21.46L29.05 44.38C29.0571 44.8154 28.8917 45.236 28.59 45.55L27.59 46.61C27.3405 46.8741 27.0094 47.0467 26.65 47.1C25.45 47.3 21.48 47.99 20.84 48.91C19.8327 50.6541 18.9246 52.4536 18.12 54.3C18.0796 54.3827 18.0494 54.47 18.03 54.56C17.9469 54.9133 17.7523 55.2305 17.475 55.4647C17.1976 55.6988 16.8523 55.8374 16.49 55.86L13.08 56.06H13ZM27.17 20.06L17.47 20.5C17.1844 20.5064 16.9038 20.5772 16.6493 20.7071C16.3948 20.8369 16.1729 21.0225 16 21.25C15.1614 22.8896 14.4331 24.5834 13.82 26.32C13.72 26.62 13.59 26.96 13.46 27.32C12.4944 29.7478 11.8229 32.2825 11.46 34.87C11.15 37.62 11.46 49.46 11.62 54.42C11.6264 54.6091 11.6705 54.7951 11.7497 54.967C11.829 55.1389 11.9418 55.2931 12.0816 55.4208C12.2213 55.5484 12.3852 55.6468 12.5635 55.7102C12.7418 55.7736 12.931 55.8008 13.12 55.79L16.53 55.6C16.8355 55.5787 17.1263 55.4606 17.36 55.2627C17.5938 55.0649 17.7584 54.7977 17.83 54.5C17.8591 54.3909 17.8958 54.2839 17.94 54.18C18.7594 52.3241 19.6739 50.5117 20.68 48.75C21.37 47.75 25.1 47.09 26.68 46.84C26.986 46.793 27.2675 46.6452 27.48 46.42L28.48 45.36C28.6094 45.228 28.7114 45.0716 28.78 44.9C28.8487 44.7284 28.8827 44.5448 28.88 44.36L28.64 21.44C28.635 21.25 28.5918 21.0629 28.5131 20.8899C28.4344 20.7168 28.3218 20.5614 28.1819 20.4327C28.042 20.304 27.8777 20.2047 27.6988 20.1407C27.5198 20.0766 27.3298 20.0492 27.14 20.06H27.17Z" fill="#231F20"/>
<path d="M7.55995 36.86L7.44995 36.62C11.0666 35.2498 14.893 34.5156 18.76 34.45C25.22 34.32 45.2999 34.45 45.5 34.45V34.71C45.2999 34.71 25.23 34.6 18.77 34.71C14.9363 34.7656 11.1421 35.4933 7.55995 36.86Z" fill="#231F20"/>
<path d="M7.1 50.07L7 49.83C7.09 49.83 15.7 46.31 21.28 45.46C27.0265 44.647 32.8266 44.2725 38.63 44.34L45.51 44.58V44.84C45.51 44.84 42.37 44.72 38.63 44.6C32.8436 44.5339 27.0605 44.9049 21.33 45.71C15.77 46.56 7.18 50 7.1 50.07Z" fill="#231F20"/>
<path d="M38.26 31.27H33.71C33.0522 31.27 32.4214 31.0087 31.9564 30.5436C31.4913 30.0786 31.23 29.4478 31.23 28.79V22.86C31.2326 22.204 31.4951 21.5758 31.9599 21.1129C32.4247 20.6499 33.054 20.39 33.71 20.39H38.26C38.5843 20.39 38.9055 20.4539 39.2052 20.578C39.5049 20.7022 39.7772 20.8841 40.0065 21.1135C40.2359 21.3428 40.4178 21.6151 40.542 21.9148C40.6661 22.2145 40.73 22.5357 40.73 22.86V28.79C40.7313 29.1152 40.6684 29.4375 40.5448 29.7383C40.4213 30.0391 40.2396 30.3126 40.0101 30.543C39.7806 30.7735 39.5079 30.9563 39.2075 31.081C38.9072 31.2058 38.5852 31.27 38.26 31.27ZM33.71 20.65C33.4189 20.6487 33.1305 20.7049 32.8612 20.8154C32.5919 20.9258 32.3471 21.0884 32.1408 21.2938C31.9345 21.4991 31.7708 21.7432 31.6592 22.012C31.5475 22.2808 31.49 22.569 31.49 22.86V28.79C31.49 29.0811 31.5475 29.3693 31.6592 29.6381C31.7708 29.9068 31.9345 30.1509 32.1408 30.3563C32.3471 30.5616 32.5919 30.7242 32.8612 30.8347C33.1305 30.9451 33.4189 31.0013 33.71 31H38.26C38.8488 31 39.4134 30.7661 39.8298 30.3498C40.2461 29.9335 40.48 29.3688 40.48 28.78V22.86C40.4773 22.273 40.2423 21.7109 39.8262 21.2967C39.4102 20.8825 38.847 20.65 38.26 20.65H33.71Z" fill="#231F20"/>
<path d="M15.52 32.58C15.1397 32.5795 14.7652 32.4871 14.4282 32.3107C14.0913 32.1343 13.802 31.8791 13.585 31.5668C13.368 31.2545 13.2296 30.8944 13.1817 30.5171C13.1339 30.1399 13.1779 29.7566 13.31 29.4L15.9 22.59C16.0644 22.1616 16.3512 21.791 16.7245 21.5243C17.0979 21.2576 17.5415 21.1066 18 21.09L25.33 20.69H25.46C26.0667 20.7029 26.6447 20.9511 27.072 21.3821C27.4993 21.813 27.7424 22.3932 27.75 23V29C27.7488 29.5608 27.5462 30.1025 27.1791 30.5265C26.812 30.9505 26.3049 31.2285 25.75 31.31L15.85 32.61L15.52 32.58ZM25.42 20.94H25.3L18 21.34C17.5984 21.3635 17.212 21.5025 16.8874 21.7402C16.5628 21.9779 16.3137 22.3042 16.17 22.68L13.56 29.49C13.4324 29.8281 13.3946 30.1936 13.4504 30.5506C13.5061 30.9077 13.6535 31.2442 13.8782 31.5273C14.1029 31.8104 14.3971 32.0304 14.7322 32.1659C15.0673 32.3013 15.4317 32.3475 15.79 32.3L25.69 31C26.1791 30.9358 26.6293 30.699 26.9593 30.3324C27.2893 29.9657 27.4775 29.4932 27.49 29V23C27.4848 22.4536 27.2647 21.9311 26.8773 21.5456C26.49 21.1602 25.9665 20.9426 25.42 20.94Z" fill="#231F20"/>
<path d="M9.69994 31.55C9.61021 31.5598 9.51967 31.5598 9.42994 31.55L8.18994 31.26L8.24994 31L9.47994 31.29C9.70603 31.336 9.94106 31.3023 10.1452 31.1948C10.3493 31.0873 10.51 30.9125 10.5999 30.7L14.1099 21.64C14.1597 21.4933 14.1747 21.337 14.1537 21.1836C14.1327 21.0301 14.0764 20.8836 13.9891 20.7556C13.9019 20.6276 13.7861 20.5216 13.6508 20.446C13.5156 20.3704 13.3647 20.3273 13.2099 20.32H12.8399V20.07H13.2099C13.4083 20.0697 13.6038 20.1177 13.7794 20.2099C13.955 20.3022 14.1054 20.4358 14.2177 20.5994C14.33 20.7629 14.4008 20.9513 14.4238 21.1483C14.4468 21.3453 14.4215 21.545 14.3499 21.73L10.8399 30.77C10.751 31 10.5945 31.1976 10.391 31.3369C10.1875 31.4761 9.94653 31.5504 9.69994 31.55Z" fill="#231F20"/>
<path d="M27.3299 37.19C27.3273 37.3076 27.2788 37.4195 27.1947 37.5017C27.1105 37.584 26.9976 37.63 26.8799 37.63H24.3899C24.2834 37.614 24.1861 37.5602 24.1158 37.4786C24.0455 37.3969 24.0068 37.2927 24.0068 37.185C24.0068 37.0772 24.0455 36.9731 24.1158 36.8914C24.1861 36.8097 24.2834 36.756 24.3899 36.74H26.8799C26.9993 36.74 27.1137 36.7874 27.1981 36.8718C27.2825 36.9562 27.3299 37.0706 27.3299 37.19Z" fill="#231F20"/>
<path d="M9.59004 57.89C10.11 57.4 9.98004 57.23 10.02 56.72L10.14 55.43C10.14 55.43 10.43 52.83 10.58 51.25C10.5885 51.1403 10.5661 51.0303 10.5154 50.9326C10.4646 50.8349 10.3876 50.7534 10.2929 50.6972C10.1982 50.641 10.0897 50.6124 9.97963 50.6147C9.86956 50.617 9.76233 50.65 9.67004 50.71C8.79956 51.2714 7.97678 51.9036 7.21005 52.6C7.15735 52.6521 7.11595 52.7146 7.08843 52.7834C7.0609 52.8522 7.04784 52.9259 7.05004 53V57.47C7.14005 58.05 7.05004 58.12 8.11004 58.47C8.45641 58.4201 8.79342 58.319 9.11004 58.17L9.59004 57.89Z" fill="#E3D0AA"/>
<path d="M12 17.87C12.29 17.63 13 16.97 13.53 16.47C13.7274 16.2915 13.9607 16.1573 14.2142 16.0763C14.4677 15.9952 14.7356 15.9692 15 16L17.59 16.29C17.59 16.29 19.22 16.68 17.59 18.08C15.96 19.48 15.11 20.27 13.82 20.44C12.53 20.61 10.82 21.64 10.92 20.44C10.9319 20.1048 10.9653 19.7708 11.02 19.44C11.0602 19.14 11.1811 18.8565 11.37 18.62L11.67 18.21C11.7648 18.0828 11.8757 17.9685 12 17.87Z" fill="#231F20"/>
<path d="M17.22 59.37H11.74C11.55 59.37 11.41 59.17 11.41 58.92C11.41 58.67 11.56 58.48 11.74 58.48H17.22C17.41 58.48 17.55 58.68 17.55 58.92C17.55 59.16 17.41 59.37 17.22 59.37ZM11.74 58.59C11.62 58.59 11.52 58.74 11.52 58.92C11.52 59.1 11.62 59.26 11.74 59.26H17.22C17.34 59.26 17.44 59.11 17.44 58.92C17.44 58.73 17.34 58.59 17.22 58.59H11.74Z" fill="#231F20"/>
<path d="M60.6801 50.85H49.8401C48.7189 50.85 47.8101 51.7588 47.8101 52.88V57.4C47.8101 58.5211 48.7189 59.43 49.8401 59.43H60.6801C61.8012 59.43 62.7101 58.5211 62.7101 57.4V52.88C62.7101 51.7588 61.8012 50.85 60.6801 50.85Z" fill="#231F20"/>
<path d="M35.3247 64.931C38.8589 61.3967 38.8589 55.6666 35.3247 52.1324C31.7904 48.5981 26.0603 48.5981 22.526 52.1324C18.9918 55.6666 18.9918 61.3967 22.526 64.931C26.0603 68.4652 31.7904 68.4652 35.3247 64.931Z" fill="#231F20"/>
<path d="M34.3899 58.53C34.3919 59.6127 34.0725 60.6717 33.4723 61.5727C32.872 62.4738 32.0178 63.1765 31.0178 63.5917C30.0179 64.007 28.9173 64.1161 27.8553 63.9054C26.7933 63.6946 25.8177 63.1735 25.0521 62.4079C24.2865 61.6423 23.7653 60.6667 23.5546 59.6047C23.3438 58.5427 23.453 57.442 23.8682 56.4421C24.2835 55.4422 24.9862 54.588 25.8872 53.9877C26.7883 53.3874 27.8472 53.068 28.9299 53.07C30.378 53.07 31.7668 53.6453 32.7907 54.6692C33.8147 55.6932 34.3899 57.0819 34.3899 58.53Z" fill="#A2A7B0"/>
<path d="M30.48 58.8C30.36 58.8 30.28 58.71 30.28 58.65C30.28 58.59 30.39 58.53 30.5 58.53H32.92C33.04 58.53 33.12 58.69 33.1 58.89C33.08 59.09 32.97 59.23 32.86 59.21L30.48 58.8Z" fill="#231F20"/>
<path d="M29.51 58.62C29.42 58.62 29.34 58.62 29.35 58.62C29.36 58.62 29.43 58.62 29.52 58.62C29.61 58.62 29.68 58.62 29.68 58.68C29.68 58.74 29.6 58.64 29.51 58.62Z" fill="#231F20"/>
<path d="M30.25 59.38C30.16 59.32 30.1 59.22 30.13 59.17C30.16 59.12 30.28 59.1 30.38 59.17L32.61 60.11C32.71 60.11 32.73 60.33 32.61 60.51C32.49 60.69 32.36 60.78 32.26 60.71L30.25 59.38Z" fill="#231F20"/>
<path d="M29.43 58.84C29.35 58.79 29.29 58.74 29.3 58.73C29.3561 58.7178 29.414 58.7178 29.47 58.73C29.56 58.73 29.61 58.82 29.6 58.84C29.59 58.86 29.51 58.89 29.43 58.84Z" fill="#231F20"/>
<path d="M30.08 59.59C30 59.52 29.96 59.41 30.01 59.36C30.0452 59.3355 30.0871 59.3223 30.13 59.3223C30.1729 59.3223 30.2148 59.3355 30.25 59.36L32.25 60.67C32.35 60.74 32.35 60.92 32.25 61.07C32.15 61.22 31.95 61.29 31.86 61.21L30.08 59.59Z" fill="#231F20"/>
<path d="M29.3699 58.92C29.2999 58.86 29.2499 58.8 29.2599 58.79C29.3218 58.7977 29.3805 58.8219 29.4299 58.86C29.5099 58.92 29.5499 58.97 29.5299 58.99C29.5099 59.01 29.4399 59 29.3699 58.92Z" fill="#231F20"/>
<path d="M29.58 60C29.58 59.9 29.58 59.79 29.58 59.76C29.58 59.73 29.73 59.76 29.8 59.87L31.16 61.87C31.23 61.97 31.16 62.12 30.97 62.22C30.78 62.32 30.61 62.31 30.57 62.22L29.58 60Z" fill="#231F20"/>
<path d="M29.18 59.07C29.18 58.98 29.12 58.91 29.13 58.9C29.14 58.89 29.2 58.96 29.25 59.03C29.3 59.1 29.32 59.18 29.3 59.19C29.28 59.2 29.22 59.15 29.18 59.07Z" fill="#231F20"/>
<path d="M29.3199 60.05C29.3199 59.94 29.3199 59.83 29.3799 59.82C29.4237 59.8196 29.4665 59.8329 29.5024 59.858C29.5382 59.8831 29.5654 59.9187 29.5799 59.96L30.5799 62.16C30.5799 62.27 30.5199 62.43 30.3299 62.48C30.1399 62.53 29.9499 62.48 29.9299 62.39L29.3199 60.05Z" fill="#231F20"/>
<path d="M29.09 59.1C29.09 59.01 29.09 58.93 29.09 58.93C29.1312 58.9723 29.162 59.0237 29.18 59.08C29.18 59.17 29.23 59.24 29.18 59.25C29.13 59.26 29.11 59.19 29.09 59.1Z" fill="#231F20"/>
<path d="M28.7 60.08C28.7 59.97 28.79 59.88 28.85 59.89C28.8884 59.9094 28.9201 59.9397 28.9415 59.977C28.9628 60.0143 28.9727 60.0571 28.97 60.1L29 62.52C29 62.64 28.85 62.74 28.65 62.72C28.45 62.7 28.3 62.59 28.32 62.48L28.7 60.08Z" fill="#231F20"/>
<path d="M28.8501 59.12C28.8365 59.0642 28.8365 59.0059 28.8501 58.95C28.8501 58.95 28.8501 59.04 28.8501 59.13C28.8501 59.22 28.8501 59.3 28.8001 59.29C28.7501 59.28 28.8401 59.21 28.8501 59.12Z" fill="#231F20"/>
<path d="M28.44 60C28.44 59.9 28.56 59.82 28.61 59.84C28.6465 59.8622 28.675 59.8956 28.6912 59.9352C28.7074 59.9748 28.7105 60.0185 28.7 60.06L28.36 62.46C28.36 62.57 28.17 62.66 27.98 62.6C27.79 62.54 27.66 62.41 27.69 62.3L28.44 60Z" fill="#231F20"/>
<path d="M28.75 59.1C28.75 59.01 28.81 58.94 28.83 58.95C28.8476 59.0053 28.8476 59.0647 28.83 59.12C28.83 59.2 28.83 59.29 28.75 59.27C28.67 59.25 28.72 59.18 28.75 59.1Z" fill="#231F20"/>
<path d="M27.9 59.72C27.97 59.63 28.08 59.6 28.12 59.64C28.16 59.68 28.18 59.77 28.12 59.88L26.86 62C26.81 62.09 26.61 62.11 26.46 62C26.31 61.89 26.24 61.7 26.31 61.62L27.9 59.72Z" fill="#231F20"/>
<path d="M28.55 59C28.61 58.93 28.67 58.88 28.68 58.9C28.6682 58.9577 28.6443 59.0122 28.61 59.06C28.56 59.13 28.5 59.2 28.48 59.17C28.46 59.14 28.49 59.05 28.55 59Z" fill="#231F20"/>
<path d="M27.71 59.52C27.8 59.45 27.91 59.43 27.94 59.52C27.97 59.61 27.94 59.66 27.94 59.75L26.35 61.58C26.28 61.66 26.09 61.63 25.95 61.49C25.81 61.35 25.79 61.16 25.88 61.09L27.71 59.52Z" fill="#231F20"/>
<path d="M28.47 58.91C28.55 58.85 28.61 58.82 28.62 58.83C28.63 58.84 28.62 58.9 28.53 58.97C28.44 59.04 28.4 59.09 28.38 59.06C28.36 59.03 28.4 59 28.47 58.91Z" fill="#231F20"/>
<path d="M27.42 59C27.53 59 27.64 59 27.65 59.06C27.6505 59.1012 27.6383 59.1416 27.6151 59.1756C27.5918 59.2096 27.5586 59.2356 27.52 59.25L25.35 60.32C25.25 60.37 25.07 60.32 25.01 60.09C24.95 59.86 25.01 59.71 25.1 59.68L27.42 59Z" fill="#231F20"/>
<path d="M28.36 58.71C28.45 58.71 28.53 58.71 28.53 58.71C28.53 58.71 28.48 58.76 28.39 58.8C28.3 58.84 28.21 58.86 28.21 58.8C28.21 58.74 28.27 58.73 28.36 58.71Z" fill="#231F20"/>
<path d="M27.37 58.71C27.48 58.71 27.58 58.71 27.58 58.8C27.58 58.89 27.58 58.94 27.42 58.97L25.1 59.65C24.99 59.65 24.85 59.56 24.81 59.36C24.77 59.16 24.81 59 24.96 58.98L27.37 58.71Z" fill="#231F20"/>
<path d="M28.34 58.61C28.43 58.61 28.51 58.61 28.5 58.61C28.49 58.61 28.45 58.61 28.36 58.68C28.3302 58.6935 28.2978 58.7005 28.265 58.7005C28.2323 58.7005 28.1999 58.6935 28.17 58.68C28.17 58.68 28.25 58.62 28.34 58.61Z" fill="#231F20"/>
<path d="M27.42 58.09C27.53 58.09 27.6 58.2 27.58 58.26C27.56 58.32 27.48 58.36 27.37 58.35L25 58.08C24.89 58.08 24.82 57.9 24.85 57.7C24.88 57.5 25.03 57.38 25.14 57.41L27.42 58.09Z" fill="#231F20"/>
<path d="M28.3599 58.37C28.4499 58.37 28.5099 58.43 28.4999 58.44C28.4899 58.45 28.4299 58.44 28.3399 58.44C28.2499 58.44 28.1799 58.44 28.1699 58.37C28.1599 58.3 28.2699 58.35 28.3599 58.37Z" fill="#231F20"/>
<path d="M27.52 57.84C27.5587 57.8544 27.5919 57.8804 27.6151 57.9144C27.6384 57.9484 27.6506 57.9888 27.65 58.03C27.65 58.1 27.53 58.12 27.42 58.09L25.1 57.41C24.99 57.41 24.95 57.2 25.01 57.01C25.07 56.82 25.25 56.72 25.35 56.77L27.52 57.84Z" fill="#231F20"/>
<path d="M28.39 58.28C28.4454 58.2989 28.4941 58.3337 28.53 58.38H28.36C28.27 58.38 28.21 58.3 28.21 58.27C28.21 58.24 28.31 58.24 28.39 58.28Z" fill="#231F20"/>
<path d="M27.8999 57.35C27.9699 57.43 27.9899 57.53 27.8999 57.58C27.8099 57.63 27.7599 57.58 27.6699 57.58L25.8399 56C25.7499 55.93 25.7799 55.74 25.9099 55.59C26.0399 55.44 26.2399 55.42 26.3099 55.51L27.8999 57.35Z" fill="#231F20"/>
<path d="M28.53 58.09C28.59 58.16 28.63 58.22 28.62 58.23C28.61 58.24 28.55 58.23 28.47 58.15C28.39 58.07 28.36 58.03 28.38 58C28.4 57.97 28.47 58 28.53 58.09Z" fill="#231F20"/>
<path d="M28.12 57.19C28.1476 57.2239 28.1627 57.2663 28.1627 57.31C28.1627 57.3537 28.1476 57.3961 28.12 57.43C28.12 57.43 27.97 57.43 27.9 57.35L26.31 55.52C26.24 55.43 26.31 55.26 26.46 55.14C26.61 55.02 26.81 55.02 26.86 55.14L28.12 57.19Z" fill="#231F20"/>
<path d="M28.61 58C28.6416 58.0458 28.6652 58.0965 28.68 58.15C28.68 58.15 28.61 58.15 28.55 58.05C28.49 57.95 28.46 57.91 28.48 57.88C28.5 57.85 28.56 58 28.61 58Z" fill="#231F20"/>
<path d="M28.6999 57C28.6999 57.12 28.6999 57.2 28.6099 57.22C28.5199 57.24 28.4799 57.17 28.4399 57.06L27.6899 54.76C27.6899 54.65 27.7799 54.51 27.9799 54.46C28.1799 54.41 28.3499 54.46 28.3599 54.6L28.6999 57Z" fill="#231F20"/>
<path d="M28.83 58C28.8476 58.0519 28.8476 58.1081 28.83 58.16C28.83 58.16 28.83 58.16 28.75 58.02C28.67 57.88 28.75 57.85 28.75 57.84C28.75 57.83 28.82 57.86 28.83 58Z" fill="#231F20"/>
<path d="M29 57C29 57.11 28.94 57.2 28.88 57.21C28.82 57.22 28.75 57.13 28.73 57.02L28.39 54.62C28.39 54.51 28.52 54.4 28.72 54.38C28.92 54.36 29.07 54.46 29.07 54.58L29 57Z" fill="#231F20"/>
<path d="M28.9301 57.93C28.9301 58.02 28.9301 58.1 28.9301 58.11C28.9156 58.0577 28.9156 58.0024 28.9301 57.95C28.9301 57.85 28.9301 57.78 28.9301 57.77C28.9301 57.76 28.9401 57.84 28.9301 57.93Z" fill="#231F20"/>
<path d="M29.58 57.1C29.58 57.2 29.45 57.26 29.38 57.25C29.31 57.24 29.3 57.12 29.32 57.01L29.94 54.67C29.94 54.56 30.14 54.52 30.34 54.58C30.54 54.64 30.63 54.79 30.59 54.9L29.58 57.1Z" fill="#231F20"/>
<path d="M29.1599 58C29.142 58.0563 29.1112 58.1077 29.0699 58.15C29.0699 58.15 29.0699 58.07 29.0699 57.98C29.0699 57.89 29.1299 57.83 29.1599 57.84C29.1899 57.85 29.1999 57.89 29.1599 58Z" fill="#231F20"/>
<path d="M29.82 57.23C29.75 57.32 29.65 57.37 29.6 57.34C29.55 57.31 29.53 57.2 29.6 57.1L30.6 54.9C30.6 54.8 30.82 54.78 31 54.9C31.18 55.02 31.26 55.16 31.19 55.25L29.82 57.23Z" fill="#231F20"/>
<path d="M29.25 58C29.2 58.08 29.15 58.14 29.13 58.13C29.1326 58.0733 29.1498 58.0181 29.18 57.97C29.18 57.88 29.27 57.83 29.3 57.84C29.33 57.85 29.31 58 29.25 58Z" fill="#231F20"/>
<path d="M30.25 57.68C30.2148 57.7045 30.1729 57.7176 30.13 57.7176C30.0871 57.7176 30.0452 57.7045 30.01 57.68C29.96 57.63 30.01 57.53 30.08 57.45L31.86 55.81C31.95 55.73 32.12 55.81 32.25 55.95C32.38 56.09 32.38 56.29 32.25 56.35L30.25 57.68Z" fill="#231F20"/>
<path d="M29.43 58.2C29.3806 58.2381 29.3219 58.2622 29.26 58.27C29.26 58.27 29.26 58.2 29.37 58.14C29.48 58.08 29.51 58.05 29.53 58.07C29.55 58.09 29.51 58.15 29.43 58.2Z" fill="#231F20"/>
<path d="M30.38 57.92C30.28 57.92 30.16 57.92 30.13 57.92C30.1 57.92 30.13 57.76 30.25 57.7L32.25 56.39C32.35 56.33 32.51 56.39 32.6 56.59C32.69 56.79 32.68 56.95 32.6 57L30.38 57.92Z" fill="#231F20"/>
<path d="M29.47 58.29C29.419 58.3218 29.3602 58.3391 29.3 58.34C29.3 58.34 29.35 58.27 29.43 58.22C29.51 58.17 29.58 58.15 29.6 58.22C29.62 58.29 29.56 58.25 29.47 58.29Z" fill="#231F20"/>
<path d="M30.5001 58.53C30.3901 58.53 30.2901 58.48 30.2801 58.41C30.2701 58.34 30.3601 58.28 30.4801 58.26L32.8601 57.85C32.9701 57.85 33.0801 57.97 33.1001 58.17C33.1201 58.37 33.0401 58.53 32.9201 58.53H30.5001Z" fill="#231F20"/>
<path d="M29.52 58.52C29.43 58.52 29.35 58.52 29.35 58.52C29.35 58.52 29.42 58.52 29.51 58.47C29.6 58.42 29.68 58.47 29.68 58.47C29.68 58.47 29.62 58.52 29.52 58.52Z" fill="#231F20"/>
<path d="M18 30.21C18 30.37 17.83 30.49 17.61 30.5C17.39 30.51 17.21 30.37 17.21 30.22L17.13 21.48C17.13 21.32 17.31 21.2 17.52 21.19C17.73 21.18 17.92 21.32 17.92 21.47L18 30.21Z" fill="#231F20"/>
<path d="M17.42 22.06C17.42 21.99 17.02 21.06 16.77 20.52C16.7105 20.3582 16.6852 20.1858 16.6955 20.0137C16.7058 19.8416 16.7516 19.6735 16.83 19.52C16.931 19.3844 17.0646 19.2766 17.2185 19.2066C17.3724 19.1367 17.5415 19.1069 17.71 19.12C18.7072 19.0481 19.7084 19.1843 20.65 19.52L20.58 19.69C19.6626 19.3691 18.6899 19.2365 17.72 19.3C17.5805 19.2937 17.4413 19.3192 17.3131 19.3746C17.1849 19.4301 17.071 19.514 16.98 19.62C16.8683 19.8923 16.8683 20.1977 16.98 20.47C17.17 20.91 17.62 21.97 17.64 22.04H17.46H17.55L17.42 22.06Z" fill="#231F20"/>
<path d="M20.94 19.58C20.9455 19.666 20.9173 19.7507 20.8612 19.8161C20.8052 19.8815 20.7258 19.9224 20.64 19.93C20.5979 19.9327 20.5558 19.9271 20.5159 19.9135C20.476 19.8999 20.4393 19.8785 20.4077 19.8506C20.3761 19.8227 20.3503 19.7889 20.3318 19.7511C20.3133 19.7132 20.3025 19.6721 20.3 19.63C20.2947 19.588 20.2978 19.5453 20.309 19.5045C20.3203 19.4637 20.3394 19.4254 20.3654 19.392C20.4179 19.3245 20.4951 19.2806 20.58 19.27C20.6648 19.2594 20.7505 19.2829 20.818 19.3354C20.8855 19.388 20.9294 19.4651 20.94 19.55V19.58Z" fill="#231F20"/>
<path opacity="0.3" d="M146.82 22.52H65.87C65.4823 22.5162 65.1102 22.3672 64.827 22.1025C64.5437 21.8378 64.37 21.4765 64.34 21.09L64.19 18.84C64.1749 18.63 64.2032 18.4192 64.2733 18.2207C64.3434 18.0222 64.4537 17.8402 64.5973 17.6863C64.7409 17.5324 64.9147 17.4097 65.1079 17.3261C65.3011 17.2424 65.5095 17.1995 65.72 17.2H147.1C147.317 17.2013 147.531 17.2484 147.728 17.338C147.925 17.4276 148.101 17.5579 148.245 17.7202C148.388 17.8825 148.496 18.0733 148.56 18.2801C148.625 18.4868 148.645 18.7049 148.62 18.92L148.34 21.17C148.294 21.5413 148.114 21.883 147.834 22.1315C147.555 22.3799 147.194 22.518 146.82 22.52Z" fill="#EEEEFB"/>
<path opacity="0.3" d="M52.36 14.24L55.58 38.91C55.658 39.5144 55.9541 40.0695 56.4126 40.471C56.8711 40.8724 57.4605 41.0926 58.07 41.09H60.92C61.2714 41.0906 61.6191 41.0172 61.9403 40.8744C62.2614 40.7316 62.5489 40.5227 62.7838 40.2613C63.0188 39.9999 63.196 39.6919 63.3039 39.3574C63.4118 39.0229 63.4479 38.6694 63.41 38.32L60.76 13.65C60.6933 13.0338 60.401 12.4641 59.9395 12.0506C59.4779 11.637 58.8797 11.4088 58.26 11.41H54.85C54.4933 11.4099 54.1407 11.4859 53.8157 11.6328C53.4906 11.7797 53.2007 11.9942 52.9651 12.2619C52.7294 12.5297 52.5536 12.8447 52.4493 13.1857C52.3449 13.5268 52.3145 13.8862 52.36 14.24Z" fill="#EEEEFB"/>
<path opacity="0.3" d="M68.38 27.91L69.89 39.49C69.9483 39.9336 70.1663 40.3407 70.5031 40.6352C70.84 40.9297 71.2725 41.0914 71.72 41.09H72.08C72.3348 41.0896 72.5868 41.0362 72.82 40.9333C73.0531 40.8304 73.2624 40.6802 73.4344 40.4921C73.6065 40.3041 73.7376 40.0824 73.8194 39.841C73.9013 39.5996 73.9321 39.3439 73.91 39.09L72.67 27.48C72.6206 27.0265 72.4055 26.6072 72.0659 26.3027C71.7263 25.9981 71.2861 25.8298 70.83 25.83H70.21C69.9481 25.8308 69.6893 25.8872 69.4509 25.9955C69.2124 26.1037 68.9996 26.2614 68.8266 26.458C68.6537 26.6546 68.5244 26.8857 68.4474 27.136C68.3704 27.3864 68.3474 27.6502 68.38 27.91Z" fill="#EEEEFB"/>
<path opacity="0.3" d="M76.5101 27.91L78.0001 39.49C78.0584 39.9336 78.2764 40.3407 78.6132 40.6352C78.95 40.9297 79.3826 41.0914 79.8301 41.09H80.1801C80.4358 41.0909 80.6889 41.0386 80.9232 40.9363C81.1576 40.834 81.368 40.684 81.5411 40.4958C81.7143 40.3076 81.8463 40.0854 81.9287 39.8433C82.0112 39.6013 82.0423 39.3447 82.0201 39.09L80.7901 27.48C80.7439 27.0341 80.5365 26.6204 80.2069 26.3166C79.8774 26.0128 79.4482 25.8398 79.0001 25.83H78.3801C78.1143 25.8234 77.8503 25.8744 77.6062 25.9796C77.3621 26.0848 77.1437 26.2416 76.9659 26.4392C76.7882 26.6369 76.6555 26.8707 76.5768 27.1246C76.4981 27.3785 76.4753 27.6464 76.5101 27.91Z" fill="#EEEEFB"/>
</g>
</svg>
