<svg width="80" height="57" viewBox="0 0 80 57" fill="none" xmlns="http://www.w3.org/2000/svg">
<mask id="mask0_2197_4259" style="mask-type:alpha" maskUnits="userSpaceOnUse" x="0" y="0" width="80" height="57">
<rect width="80" height="57" fill="#D9D9D9"/>
</mask>
<g mask="url(#mask0_2197_4259)">
<path d="M44.63 5.13074C44.5792 4.53934 44.3047 3.98962 43.8624 3.59378C43.4201 3.19794 42.8434 2.98582 42.25 3.00074C37.25 3.14074 25.05 3.50074 20.96 3.91074C18.24 4.19074 16.52 4.44074 15.51 4.62074C15.1298 4.68932 14.7727 4.85135 14.4707 5.09224C14.1687 5.33313 13.9314 5.64533 13.78 6.00074L7.84001 20.0007C7.73085 20.2539 7.66981 20.5252 7.66001 20.8007L7.00001 35.5107L7.58001 35.9007L7.65001 36.9007L7.33001 37.4507C7.11289 37.8169 6.99886 38.235 7.00001 38.6607V46.2007C7.00948 46.4753 7.06702 46.7461 7.17001 47.0007L7.54001 48.0007C7.6977 48.4302 7.97782 48.804 8.34573 49.0759C8.71364 49.3479 9.15318 49.506 9.61001 49.5307L16.45 49.8607C17.0665 49.8879 17.6685 49.6694 18.1241 49.2532C18.5796 48.837 18.8515 48.2571 18.88 47.6407L19.08 43.4707C19.0876 43.3253 19.1111 43.1811 19.15 43.0407C19.44 41.8307 21.08 36.2307 25.74 36.1707C30.96 36.1007 33.28 36.1007 33.28 36.1007C33.28 36.1007 35.22 35.8507 36.89 38.4907C38.56 41.1307 38.96 42.4907 39.02 44.8807C39.02 45.4407 39.02 45.9507 39.02 46.4107C39.0251 46.7176 39.0913 47.0203 39.2148 47.3012C39.3382 47.5822 39.5164 47.8357 39.7389 48.0471C39.9614 48.2584 40.2237 48.4233 40.5107 48.5321C40.7976 48.6409 41.1033 48.6914 41.41 48.6807L68 48.6107L100.63 48.5507C101.245 48.5455 101.834 48.298 102.268 47.8619C102.702 47.4258 102.947 46.8362 102.95 46.2207V40.4507C102.95 39.8379 102.709 39.2498 102.278 38.8137C101.848 38.3776 101.263 38.1286 100.65 38.1207L43.79 37.6207V37.4407C43.7457 37.0948 43.7783 36.7434 43.8855 36.4115C43.9927 36.0796 44.1718 35.7754 44.41 35.5207L44.88 35.0307C45.3002 34.5965 45.5336 34.015 45.53 33.4107L45.45 14.1607C45.45 14.0907 45.45 14.0307 45.45 13.9607L44.63 5.13074Z" fill="#BBA389"/>
<path d="M38.2501 8.60071H33.6901C32.3977 8.60071 31.3501 9.64836 31.3501 10.9407V16.8807C31.3501 18.1731 32.3977 19.2207 33.6901 19.2207H38.2501C39.5424 19.2207 40.5901 18.1731 40.5901 16.8807V10.9407C40.5901 9.64836 39.5424 8.60071 38.2501 8.60071Z" fill="#4FCEF6"/>
<path d="M27.61 16.6807V11.1007C27.6091 10.801 27.5472 10.5045 27.4282 10.2294C27.3091 9.95435 27.1352 9.70637 26.9173 9.50057C26.6993 9.29478 26.4418 9.13547 26.1603 9.03235C25.8789 8.92923 25.5794 8.88444 25.28 8.90072L18 9.30072C17.563 9.31078 17.139 9.45139 16.7826 9.70445C16.4262 9.95752 16.1536 10.3115 16 10.7207L13.42 17.5307C13.284 17.8908 13.2435 18.2799 13.3024 18.6602C13.3613 19.0406 13.5177 19.3992 13.7563 19.7012C13.9949 20.0033 14.3076 20.2384 14.664 20.3837C15.0203 20.5291 15.4083 20.5797 15.79 20.5307L25.69 19.2307C26.229 19.1617 26.7233 18.8957 27.0778 18.484C27.4323 18.0722 27.6219 17.5439 27.61 17.0007V16.6807Z" fill="#4FCEF6"/>
<path opacity="0.5" d="M40.5801 12.8807V10.9407C40.5801 10.3201 40.3335 9.72491 39.8947 9.28608C39.4559 8.84724 38.8607 8.60071 38.2401 8.60071H38.0001L33.8401 19.2207H37.9201L40.5801 12.8807Z" fill="#E8EFF6"/>
<path opacity="0.5" d="M26.05 9.00076C25.7981 8.92085 25.5339 8.88698 25.27 8.90076L21.67 9.09076L17.24 20.3208L21.54 19.7608L26.05 9.00076Z" fill="#E8EFF6"/>
<path d="M102.93 48.9307C102.933 49.0453 102.912 49.1593 102.87 49.266C102.828 49.3726 102.766 49.4698 102.685 49.5518C102.605 49.6338 102.51 49.6989 102.404 49.7434C102.298 49.7879 102.185 49.8108 102.07 49.8107H40.3601C40.1441 49.7876 39.9444 49.6855 39.7992 49.5239C39.654 49.3624 39.5737 49.1529 39.5737 48.9357C39.5737 48.7186 39.654 48.5091 39.7992 48.3475C39.9444 48.186 40.1441 48.0838 40.3601 48.0607H102.07C102.184 48.0607 102.297 48.0833 102.402 48.1271C102.507 48.171 102.602 48.2352 102.682 48.3161C102.762 48.3971 102.825 48.4931 102.868 48.5985C102.91 48.704 102.931 48.817 102.93 48.9307Z" fill="#111010"/>
<path d="M41.4699 48.6707C41.162 48.6828 40.8547 48.6333 40.566 48.5252C40.2773 48.4171 40.0131 48.2526 39.7887 48.0413C39.5644 47.83 39.3844 47.5761 39.2592 47.2944C39.1341 47.0127 39.0664 46.7089 39.0599 46.4007C39.0599 45.9407 39.0599 45.4007 39.0599 44.8707C38.9999 42.4807 38.6099 41.1307 36.9299 38.4807C35.2499 35.8307 33.3199 36.0907 33.3199 36.0907C33.3199 36.0907 30.9999 36.0907 25.7799 36.1607C21.1199 36.2207 19.4799 41.8207 19.1899 43.0307C19.151 43.1711 19.1275 43.3153 19.1199 43.4607L18.9199 47.6307C18.8978 47.9808 18.7963 48.3212 18.623 48.6261C18.4497 48.9311 18.2093 49.1925 17.9199 49.3907L41.7499 48.6707H41.4699Z" fill="#111010"/>
<path d="M173 16.0007H50V36.0007H173V16.0007Z" fill="#C73547"/>
<path d="M173 36.2507H173.25V36.0007V16.0007V15.7507H173H50H49.75V16.0007V36.0007V36.2507H50H173ZM172.57 16.4798V35.5217H50.4595V16.4798H172.57Z" fill="#231F20" stroke="black" stroke-width="0.5"/>
<path opacity="0.3" d="M173 36.0007V28.4903C168.059 29.4589 162.938 29.4284 158.012 28.4011C149.469 26.4745 128.746 20.971 116.676 24.3248C104.606 27.6786 99.5897 32.0136 89.4679 30.7292C79.3461 29.4447 65.8971 27.0186 57.5539 22.7014C54.7461 21.2654 52.8877 19.1335 50 18.0007V36.0007H173Z" fill="#EEEEFB"/>
<path d="M53.8001 34.7707C53.7975 34.8946 53.7472 35.0126 53.6596 35.1002C53.572 35.1878 53.4539 35.2382 53.3301 35.2407H52.0701C51.9454 35.2407 51.8259 35.1912 51.7377 35.1031C51.6496 35.0149 51.6001 34.8954 51.6001 34.7707C51.6001 34.6461 51.6496 34.5265 51.7377 34.4384C51.8259 34.3502 51.9454 34.3007 52.0701 34.3007H53.3301C53.4539 34.3033 53.572 34.3536 53.6596 34.4412C53.7472 34.5288 53.7975 34.6469 53.8001 34.7707Z" fill="#FD941A"/>
<path d="M79.1902 36.3707H67.9302V37.9707H79.1902V36.3707Z" fill="#231F20"/>
<path d="M9.43995 19.4807C9.6967 19.5376 9.96529 19.5015 10.1979 19.3788C10.4305 19.256 10.6119 19.0548 10.71 18.8107L14.22 9.75074C14.2847 9.58654 14.3087 9.40907 14.2897 9.23357C14.2708 9.05807 14.2095 8.8898 14.1111 8.74323C14.0127 8.59666 13.8802 8.47617 13.725 8.39213C13.5698 8.30808 13.3965 8.263 13.22 8.26074H12.83L8.19995 19.1907L9.43995 19.4807Z" fill="#4FCEF6"/>
<path d="M38.25 19.3508H33.69C33.0357 19.3481 32.409 19.0871 31.9463 18.6244C31.4837 18.1618 31.2226 17.535 31.22 16.8808V10.9408C31.2226 10.2865 31.4837 9.65976 31.9463 9.19712C32.409 8.73447 33.0357 8.4734 33.69 8.47076H38.25C38.9042 8.4734 39.531 8.73447 39.9936 9.19712C40.4563 9.65976 40.7173 10.2865 40.72 10.9408V16.8808C40.7173 17.535 40.4563 18.1618 39.9936 18.6244C39.531 19.0871 38.9042 19.3481 38.25 19.3508ZM33.69 8.73076C33.3998 8.73076 33.1124 8.78793 32.8442 8.89899C32.5761 9.01005 32.3325 9.17284 32.1273 9.37806C31.922 9.58328 31.7593 9.8269 31.6482 10.095C31.5371 10.3632 31.48 10.6505 31.48 10.9408V16.8808C31.48 17.171 31.5371 17.4584 31.6482 17.7265C31.7593 17.9946 31.922 18.2383 32.1273 18.4435C32.3325 18.6487 32.5761 18.8115 32.8442 18.9225C33.1124 19.0336 33.3998 19.0908 33.69 19.0908H38.25C38.8361 19.0908 39.3982 18.8579 39.8127 18.4435C40.2271 18.029 40.46 17.4669 40.46 16.8808V10.9408C40.46 10.3546 40.2271 9.79251 39.8127 9.37806C39.3982 8.9636 38.8361 8.73076 38.25 8.73076H33.69Z" fill="#231F20"/>
<path d="M15.5 20.6607C14.9533 20.6655 14.4223 20.4779 14 20.1307C13.6185 19.8193 13.344 19.3964 13.2149 18.9212C13.0858 18.446 13.1085 17.9423 13.28 17.4807L15.88 10.6707C16.0428 10.2491 16.3237 9.8833 16.689 9.61725C17.0544 9.3512 17.4887 9.19616 17.94 9.17071L25.28 8.77071H25.4C25.7068 8.7694 26.0109 8.82869 26.2947 8.94519C26.5786 9.0617 26.8366 9.23312 27.054 9.44961C27.2715 9.6661 27.444 9.9234 27.5617 10.2067C27.6794 10.4901 27.74 10.7939 27.74 11.1007V17.0007C27.7367 17.5609 27.5334 18.1016 27.1667 18.5251C26.8 18.9487 26.294 19.2273 25.74 19.3107L15.84 20.6107L15.5 20.6607ZM25.4 9.00071H25.29L18 9.42071C17.5914 9.43664 17.1964 9.57208 16.864 9.81027C16.5316 10.0485 16.2764 10.3789 16.13 10.7607L13.54 17.5707C13.3862 17.9767 13.3633 18.4206 13.4745 18.8402C13.5857 19.2598 13.8254 19.6341 14.16 19.9107C14.3815 20.0962 14.6386 20.2345 14.9154 20.317C15.1923 20.3995 15.4831 20.4246 15.77 20.3907L25.67 19.0907C26.1736 19.0205 26.6346 18.77 26.9675 18.3856C27.3003 18.0012 27.4825 17.5092 27.48 17.0007V11.1007C27.4826 10.8259 27.4308 10.5533 27.3274 10.2986C27.2241 10.0439 27.0713 9.81225 26.8779 9.61698C26.6845 9.42172 26.4543 9.26671 26.2006 9.16093C25.947 9.05516 25.6748 9.0007 25.4 9.00071Z" fill="#231F20"/>
<path d="M9.68992 19.6307C9.59688 19.6411 9.50297 19.6411 9.40992 19.6307L8.16992 19.3507L8.22992 19.0907L9.46992 19.3807C9.69602 19.4267 9.93104 19.393 10.1352 19.2855C10.3393 19.178 10.5 19.0032 10.5899 18.7907L14.0999 9.70074C14.1497 9.55403 14.1647 9.39777 14.1437 9.24429C14.1227 9.0908 14.0664 8.94428 13.9791 8.81629C13.8918 8.6883 13.776 8.58233 13.6408 8.50675C13.5056 8.43116 13.3547 8.38802 13.1999 8.38074H12.8299V8.13074H13.1999C13.3967 8.13339 13.59 8.18283 13.7639 8.27499C13.9378 8.36715 14.0873 8.49938 14.1999 8.66074C14.3087 8.82571 14.3771 9.01394 14.3997 9.21023C14.4223 9.40653 14.3984 9.60538 14.3299 9.79074L10.8299 18.8507C10.7398 19.0799 10.583 19.2768 10.3798 19.4159C10.1765 19.5549 9.93619 19.6298 9.68992 19.6307Z" fill="#231F20"/>
<path d="M17.2099 47.4507H11.7199C11.5399 47.4507 11.3999 47.2607 11.3999 47.0007C11.3999 46.7407 11.5399 46.5607 11.7199 46.5607H17.2099C17.3899 46.5607 17.5399 46.7507 17.5399 47.0007C17.5399 47.2507 17.3899 47.4507 17.2099 47.4507ZM11.7199 46.6707C11.6099 46.6707 11.5099 46.8207 11.5099 47.0007C11.5099 47.1807 11.6099 47.3407 11.7199 47.3407H17.2099C17.3299 47.3407 17.4299 47.1907 17.4299 47.0007C17.4299 46.8107 17.3299 46.6707 17.2099 46.6707H11.7199Z" fill="#231F20"/>
<path d="M60.66 38.9307H49.82C48.6989 38.9307 47.79 39.8396 47.79 40.9607V45.4807C47.79 46.6019 48.6989 47.5107 49.82 47.5107H60.66C61.7812 47.5107 62.69 46.6019 62.69 45.4807V40.9607C62.69 39.8396 61.7812 38.9307 60.66 38.9307Z" fill="#231F20"/>
<path d="M35.3089 53.0143C38.8432 49.48 38.8432 43.7499 35.3089 40.2156C31.7747 36.6814 26.0445 36.6814 22.5103 40.2156C18.976 43.7499 18.976 49.48 22.5103 53.0143C26.0445 56.5485 31.7747 56.5485 35.3089 53.0143Z" fill="#231F20"/>
<path d="M34.37 46.6107C34.37 47.6906 34.0497 48.7462 33.4498 49.6441C32.8498 50.542 31.9971 51.2419 30.9994 51.6551C30.0017 52.0684 28.9039 52.1765 27.8448 51.9658C26.7856 51.7551 25.8127 51.2351 25.0491 50.4715C24.2856 49.7079 23.7655 48.7351 23.5549 47.6759C23.3442 46.6168 23.4523 45.519 23.8656 44.5213C24.2788 43.5236 24.9786 42.6709 25.8765 42.0709C26.7744 41.4709 27.8301 41.1507 28.91 41.1507C30.358 41.1507 31.7468 41.726 32.7708 42.7499C33.7947 43.7739 34.37 45.1626 34.37 46.6107Z" fill="#A2A7B0"/>
<path d="M30.46 46.8807C30.35 46.8807 30.26 46.7907 30.27 46.7307C30.28 46.6707 30.38 46.6107 30.49 46.6107H32.91C33.02 46.6107 33.11 46.7707 33.09 46.9707C33.07 47.1707 32.96 47.3107 32.85 47.2907L30.46 46.8807Z" fill="#231F20"/>
<path d="M29.5001 46.7107C29.44 46.7021 29.3822 46.6817 29.3301 46.6507C29.3301 46.6507 29.4201 46.6507 29.5101 46.6507C29.6001 46.6507 29.6701 46.6507 29.6701 46.7107C29.6701 46.7707 29.5901 46.7207 29.5001 46.7107Z" fill="#231F20"/>
<path d="M30.24 47.4608C30.14 47.4008 30.09 47.3008 30.12 47.2508C30.15 47.2008 30.26 47.1808 30.37 47.2508L32.6 48.1908C32.7 48.1908 32.72 48.4108 32.6 48.5908C32.48 48.7708 32.35 48.8608 32.25 48.7908L30.24 47.4608Z" fill="#231F20"/>
<path d="M29.4199 46.9207C29.3399 46.8707 29.2799 46.8207 29.2899 46.8107C29.3461 46.8002 29.4038 46.8002 29.4599 46.8107C29.5399 46.8107 29.5999 46.9007 29.5799 46.9307C29.5599 46.9607 29.4999 47.0007 29.4199 46.9207Z" fill="#231F20"/>
<path d="M30.0701 47.6807C29.9901 47.6007 29.9501 47.4907 29.9901 47.4407C30.0281 47.4188 30.0712 47.4072 30.1151 47.4072C30.1589 47.4072 30.2021 47.4188 30.2401 47.4407L32.2401 48.7507C32.3401 48.8207 32.3301 49.0007 32.2401 49.1607C32.1501 49.3207 31.9401 49.3707 31.8601 49.2907L30.0701 47.6807Z" fill="#231F20"/>
<path d="M29.3501 47.0007C29.2901 46.9307 29.2401 46.8707 29.2501 46.8607C29.2601 46.8507 29.3401 46.8607 29.4101 46.9307C29.4801 47.0007 29.5301 47.0407 29.5101 47.0707C29.4901 47.1007 29.4201 47.0707 29.3501 47.0007Z" fill="#231F20"/>
<path d="M29.5601 48.0007C29.5601 47.9007 29.5601 47.7907 29.5601 47.7607C29.5601 47.7307 29.7201 47.7607 29.7801 47.8807L31.1501 49.8807C31.2201 49.9807 31.1501 50.1307 30.9601 50.2307C30.7701 50.3307 30.6001 50.3207 30.5501 50.2307L29.5601 48.0007Z" fill="#231F20"/>
<path d="M29.17 47.1507C29.17 47.0707 29.1 46.9907 29.12 46.9807C29.1672 47.0169 29.2078 47.0609 29.24 47.1107C29.29 47.1907 29.31 47.2607 29.24 47.2707C29.17 47.2807 29.2 47.2307 29.17 47.1507Z" fill="#231F20"/>
<path d="M29.3101 48.1307C29.3101 48.0207 29.3101 47.9107 29.3701 47.9007C29.4125 47.9009 29.4538 47.9145 29.4879 47.9397C29.5221 47.9649 29.5473 48.0003 29.5601 48.0407L30.5601 50.2407C30.6101 50.3507 30.5101 50.5107 30.3101 50.5607C30.1101 50.6107 29.9401 50.5607 29.9101 50.4707L29.3101 48.1307Z" fill="#231F20"/>
<path d="M29.07 47.1807C29.0587 47.1246 29.0587 47.0668 29.07 47.0107C29.07 47.0107 29.13 47.0807 29.17 47.1607C29.21 47.2407 29.22 47.3207 29.17 47.3307C29.12 47.3407 29.1 47.2707 29.07 47.1807Z" fill="#231F20"/>
<path d="M28.6901 48.1707C28.6901 48.0507 28.7701 47.9707 28.8301 47.9707C28.8901 47.9707 28.9501 48.0707 28.9601 48.1907L29.0001 50.6007C29.0001 50.7207 28.8401 50.8207 28.6401 50.8007C28.4401 50.7807 28.3001 50.6707 28.3101 50.5607L28.6901 48.1707Z" fill="#231F20"/>
<path d="M28.8401 47.2007C28.8401 47.1107 28.8401 47.0307 28.8901 47.0407C28.9045 47.0965 28.9045 47.155 28.8901 47.2107C28.8901 47.3107 28.8901 47.3807 28.8401 47.3707C28.7901 47.3607 28.8201 47.2907 28.8401 47.2007Z" fill="#231F20"/>
<path d="M28.43 48.1007C28.43 48.0007 28.54 47.9207 28.6 47.9507C28.66 47.9807 28.7 48.0507 28.69 48.1707L28.34 50.5607C28.34 50.6707 28.16 50.7607 27.96 50.7007C27.76 50.6407 27.64 50.5107 27.68 50.4007L28.43 48.1007Z" fill="#231F20"/>
<path d="M28.74 47.1807C28.74 47.0907 28.8 47.0207 28.81 47.0307C28.824 47.0865 28.824 47.1449 28.81 47.2007C28.81 47.2807 28.75 47.3707 28.73 47.3607C28.71 47.3507 28.71 47.2607 28.74 47.1807Z" fill="#231F20"/>
<path d="M27.8802 47.8008C27.9602 47.7108 28.0602 47.6808 28.1102 47.7208C28.1347 47.756 28.1478 47.7978 28.1478 47.8408C28.1478 47.8837 28.1347 47.9255 28.1102 47.9608L26.8502 50.0008C26.8002 50.0908 26.6002 50.1108 26.4402 50.0008C26.2802 49.8908 26.2202 49.7008 26.3002 49.6208L27.8802 47.8008Z" fill="#231F20"/>
<path d="M28.53 47.0707C28.59 47.0007 28.65 46.9507 28.66 46.9607C28.67 46.9707 28.66 47.0407 28.6 47.1207C28.54 47.2007 28.48 47.2607 28.46 47.2307C28.44 47.2007 28.47 47.1407 28.53 47.0707Z" fill="#231F20"/>
<path d="M27.7 47.6007C27.79 47.5307 27.89 47.5207 27.93 47.6007C27.97 47.6807 27.93 47.7407 27.88 47.8307L26.3 49.6307C26.23 49.7107 26.04 49.6307 25.9 49.5407C25.76 49.4507 25.74 49.2107 25.82 49.1407L27.7 47.6007Z" fill="#231F20"/>
<path d="M28.4599 47.0007C28.5299 46.9407 28.5999 46.9107 28.5999 46.9207C28.5999 46.9307 28.5999 46.9907 28.5199 47.0607C28.4399 47.1307 28.3799 47.1807 28.3599 47.1607C28.3399 47.1407 28.3899 47.0507 28.4599 47.0007Z" fill="#231F20"/>
<path d="M27.41 47.0507C27.52 47.0507 27.62 47.0507 27.64 47.1107C27.66 47.1707 27.64 47.2507 27.5 47.3107L25.33 48.3707C25.24 48.4207 25.06 48.3707 25 48.1407C24.94 47.9107 25 47.7707 25.09 47.7407L27.41 47.0507Z" fill="#231F20"/>
<path d="M28.35 46.7907C28.44 46.7907 28.51 46.7907 28.51 46.7907C28.51 46.7907 28.46 46.7907 28.37 46.8907C28.28 46.9907 28.2 46.9407 28.2 46.8907C28.2 46.8407 28.26 46.8107 28.35 46.7907Z" fill="#231F20"/>
<path d="M27.3501 46.7907C27.4701 46.7907 27.5601 46.7907 27.5701 46.8907C27.5801 46.9907 27.5201 47.0207 27.4101 47.0507L25.0901 47.7407C24.9801 47.7407 24.8401 47.6407 24.7901 47.4507C24.7401 47.2607 24.8401 47.0807 24.9501 47.0707L27.3501 46.7907Z" fill="#231F20"/>
<path d="M28.33 46.6907C28.42 46.6907 28.49 46.6907 28.49 46.6907C28.49 46.6907 28.43 46.6907 28.34 46.7607C28.25 46.8307 28.17 46.7607 28.16 46.7607C28.15 46.7607 28.23 46.7007 28.33 46.6907Z" fill="#231F20"/>
<path d="M27.4101 46.1707C27.5201 46.1707 27.5901 46.2807 27.5701 46.3407C27.5501 46.4007 27.4701 46.4407 27.3501 46.4307L25.0001 46.1607C24.8901 46.1607 24.8101 45.9807 24.8401 45.7807C24.8701 45.5807 25.0301 45.4607 25.1401 45.4907L27.4101 46.1707Z" fill="#231F20"/>
<path d="M28.3399 46.4507C28.4299 46.4507 28.4999 46.5107 28.4899 46.5207C28.4799 46.5307 28.4199 46.5207 28.3299 46.5207C28.2399 46.5207 28.1599 46.5207 28.1599 46.4507C28.1599 46.3807 28.2499 46.4307 28.3399 46.4507Z" fill="#231F20"/>
<path d="M27.5001 45.9207C27.5422 45.9339 27.5788 45.9607 27.6041 45.9969C27.6294 46.0331 27.6421 46.0766 27.6401 46.1207C27.6401 46.1807 27.5201 46.2007 27.4101 46.1707L25.0901 45.4907C24.9801 45.4907 24.9301 45.2807 25.0001 45.0907C25.0701 44.9007 25.2401 44.8007 25.3301 44.8507L27.5001 45.9207Z" fill="#231F20"/>
<path d="M28.37 46.3607C28.46 46.3607 28.51 46.4407 28.51 46.4607H28.35C28.26 46.4607 28.2 46.3907 28.2 46.3607C28.2 46.3307 28.3 46.3207 28.37 46.3607Z" fill="#231F20"/>
<path d="M27.88 45.4307C27.96 45.5207 27.97 45.6107 27.93 45.6607C27.89 45.7107 27.79 45.6607 27.7 45.6607L25.82 44.1307C25.74 44.0607 25.77 43.8707 25.9 43.7207C26.03 43.5707 26.23 43.5507 26.3 43.6407L27.88 45.4307Z" fill="#231F20"/>
<path d="M28.5199 46.1707C28.5799 46.2407 28.6099 46.3008 28.5999 46.3108C28.5899 46.3208 28.5299 46.3107 28.4599 46.2307C28.3899 46.1507 28.3499 46.1108 28.3599 46.0808C28.3699 46.0508 28.4599 46.1007 28.5199 46.1707Z" fill="#231F20"/>
<path d="M28.1001 45.2707C28.1246 45.3059 28.1377 45.3478 28.1377 45.3907C28.1377 45.4336 28.1246 45.4755 28.1001 45.5107C28.0501 45.5107 27.9501 45.5107 27.8701 45.4307L26.3001 43.6007C26.2201 43.5107 26.3001 43.3407 26.4401 43.2207C26.5801 43.1007 26.8001 43.1007 26.8501 43.2207L28.1001 45.2707Z" fill="#231F20"/>
<path d="M28.6 46.1107C28.6 46.1907 28.67 46.2507 28.66 46.2707C28.65 46.2907 28.59 46.2707 28.53 46.1607C28.47 46.0507 28.44 46.0207 28.46 46.0007C28.48 45.9807 28.55 46.0007 28.6 46.1107Z" fill="#231F20"/>
<path d="M28.6902 45.0607C28.6902 45.1807 28.6902 45.2607 28.6002 45.2807C28.5102 45.3007 28.4602 45.2307 28.4302 45.1207L27.6802 42.8207C27.6802 42.7107 27.7702 42.5807 27.9602 42.5207C28.1502 42.4607 28.3302 42.5207 28.3402 42.6607L28.6902 45.0607Z" fill="#231F20"/>
<path d="M28.82 46.0007C28.8332 46.0566 28.8332 46.1148 28.82 46.1707C28.7862 46.1263 28.7623 46.0752 28.75 46.0207C28.75 45.9307 28.75 45.8507 28.75 45.8407C28.75 45.8307 28.8 45.9407 28.82 46.0007Z" fill="#231F20"/>
<path d="M28.9999 45.0007C28.9999 45.1107 28.9399 45.2007 28.8699 45.2107C28.7999 45.2207 28.7499 45.1307 28.7299 45.0207L28.3799 42.6207C28.3799 42.5107 28.5099 42.4007 28.7099 42.3807C28.9099 42.3607 29.0699 42.4707 29.0699 42.5807L28.9999 45.0007Z" fill="#231F20"/>
<path d="M28.9199 46.0007C28.9323 46.0601 28.9323 46.1214 28.9199 46.1807C28.9199 46.1807 28.9199 46.1107 28.8699 46.0207C28.8199 45.9307 28.8699 45.8507 28.8699 45.8507C28.8699 45.8507 28.9199 45.9207 28.9199 46.0007Z" fill="#231F20"/>
<path d="M29.5601 45.1807C29.5478 45.2223 29.5229 45.259 29.4889 45.2859C29.4549 45.3127 29.4134 45.3284 29.3701 45.3307C29.3101 45.3307 29.2801 45.2007 29.3101 45.0907L29.9201 42.7507C29.9201 42.6407 30.1301 42.6007 30.3201 42.6607C30.5101 42.7207 30.6201 42.8807 30.5701 42.9807L29.5601 45.1807Z" fill="#231F20"/>
<path d="M29.15 46.0607C29.15 46.1407 29.07 46.2107 29.05 46.2107C29.0387 46.1546 29.0387 46.0968 29.05 46.0407C29.05 45.9507 29.12 45.8907 29.15 45.9007C29.18 45.9107 29.19 46.0007 29.15 46.0607Z" fill="#231F20"/>
<path d="M29.7999 45.3107C29.7399 45.4007 29.6399 45.4607 29.5799 45.4307C29.5199 45.4007 29.5199 45.2807 29.5799 45.1807L30.5799 42.9807C30.6299 42.8807 30.8099 42.8607 30.9899 42.9807C31.1699 43.1007 31.2499 43.2407 31.1799 43.3307L29.7999 45.3107Z" fill="#231F20"/>
<path d="M29.2402 46.1107C29.2402 46.1907 29.1302 46.2507 29.1202 46.2407C29.1102 46.2307 29.1202 46.1607 29.1702 46.0807C29.2202 46.0007 29.2602 45.9407 29.2802 45.9507C29.3002 45.9607 29.2902 46.0007 29.2402 46.1107Z" fill="#231F20"/>
<path d="M30.24 45.7607C30.14 45.8207 30.04 45.8307 29.99 45.7607C29.94 45.6907 29.99 45.6107 30.07 45.5307L31.85 43.8907C31.93 43.8107 32.11 43.8907 32.23 44.0307C32.35 44.1707 32.37 44.3707 32.23 44.4307L30.24 45.7607Z" fill="#231F20"/>
<path d="M29.4099 46.2807C29.3399 46.2807 29.2599 46.3707 29.2499 46.3507C29.2399 46.3307 29.2499 46.2807 29.3499 46.2207C29.4499 46.1607 29.4899 46.1307 29.5099 46.1507C29.5299 46.1707 29.4899 46.2307 29.4099 46.2807Z" fill="#231F20"/>
<path d="M30.37 46.0007C30.26 46.0007 30.15 46.0007 30.12 46.0007C30.09 46.0007 30.12 45.8407 30.24 45.7807L32.24 44.4707C32.34 44.4107 32.5 44.4707 32.59 44.6807C32.68 44.8907 32.67 45.0307 32.59 45.0807L30.37 46.0007Z" fill="#231F20"/>
<path d="M29.46 46.3707C29.408 46.4002 29.3498 46.4173 29.29 46.4207C29.29 46.4207 29.34 46.3507 29.42 46.3007C29.5 46.2507 29.57 46.2307 29.58 46.3007C29.59 46.3707 29.54 46.3407 29.46 46.3707Z" fill="#231F20"/>
<path d="M30.49 46.6107C30.38 46.6107 30.28 46.6107 30.27 46.5007C30.26 46.3907 30.35 46.3607 30.46 46.3407L32.85 45.9307C32.96 45.9307 33.07 46.0507 33.09 46.2507C33.11 46.4507 33.02 46.6107 32.91 46.6107H30.49Z" fill="#231F20"/>
<path d="M29.5101 46.6007C29.4506 46.6121 29.3895 46.6121 29.3301 46.6007C29.3301 46.6007 29.4101 46.6007 29.5001 46.5407C29.5901 46.4807 29.6601 46.5407 29.6701 46.5407C29.6801 46.5407 29.6001 46.6007 29.5101 46.6007Z" fill="#231F20"/>
<path d="M87.5692 55.0307C92.2183 53.1956 94.4996 47.9391 92.6645 43.29C90.8294 38.6409 85.5729 36.3597 80.9238 38.1947C76.2747 40.0298 73.9935 45.2863 75.8286 49.9354C77.6636 54.5845 82.9201 56.8657 87.5692 55.0307Z" fill="#231F20"/>
<path d="M89.71 46.6107C89.712 47.6934 89.3926 48.7524 88.7923 49.6535C88.192 50.5545 87.3378 51.2572 86.3379 51.6724C85.338 52.0877 84.2373 52.1969 83.1753 51.9861C82.1133 51.7754 81.1377 51.2542 80.3721 50.4886C79.6066 49.723 79.0854 48.7474 78.8746 47.6854C78.6639 46.6234 78.7731 45.5228 79.1883 44.5228C79.6036 43.5229 80.3062 42.6687 81.2073 42.0684C82.1084 41.4681 83.1673 41.1488 84.25 41.1507C85.6973 41.1534 87.0845 41.7295 88.1079 42.7529C89.1313 43.7762 89.7074 45.1635 89.71 46.6107Z" fill="#A2A7B0"/>
<path d="M17.9999 18.2907C17.9999 18.4507 17.8199 18.5807 17.5999 18.5807C17.3799 18.5807 17.2099 18.4507 17.2099 18.3007L17.1299 9.56071C17.1299 9.40071 17.2999 9.28071 17.5199 9.27071C17.7399 9.26071 17.9199 9.40071 17.9199 9.55071L17.9999 18.2907Z" fill="#231F20"/>
<path d="M17.4001 10.1408C17.4001 10.0708 17.0001 9.14075 16.7501 8.60075C16.6929 8.43849 16.6688 8.26643 16.6791 8.09469C16.6894 7.92295 16.7339 7.75501 16.8101 7.60075C16.9161 7.46829 17.0521 7.36294 17.2068 7.2934C17.3616 7.22385 17.5307 7.19209 17.7001 7.20075C18.6972 7.12969 19.6982 7.26588 20.6401 7.60075L20.5601 7.77075C19.6429 7.44876 18.67 7.31609 17.7001 7.38075C17.562 7.37445 17.4243 7.40004 17.2977 7.45553C17.1711 7.51103 17.059 7.59494 16.9701 7.70075C16.8584 7.97308 16.8584 8.27843 16.9701 8.55075C17.1601 8.99075 17.6101 10.0508 17.6301 10.1208H17.4401H17.5301L17.4001 10.1408Z" fill="#231F20"/>
<path d="M20.93 7.66074C20.9355 7.74669 20.9073 7.83141 20.8512 7.89681C20.7951 7.9622 20.7157 8.00309 20.63 8.01074C20.544 8.0163 20.4593 7.98804 20.3939 7.93198C20.3285 7.87593 20.2876 7.79653 20.28 7.71074C20.2744 7.66604 20.2777 7.62068 20.2899 7.57729C20.302 7.5339 20.3226 7.49336 20.3505 7.458C20.3784 7.42264 20.4131 7.39319 20.4524 7.37134C20.4918 7.3495 20.5352 7.33569 20.58 7.33074C20.622 7.32803 20.6642 7.33365 20.704 7.34727C20.7439 7.3609 20.7807 7.38226 20.8123 7.41013C20.8438 7.438 20.8696 7.47184 20.8881 7.5097C20.9066 7.54755 20.9174 7.58869 20.92 7.63074L20.93 7.66074Z" fill="#231F20"/>
<path opacity="0.3" d="M45.4901 31.6608V25.2108C38.1801 24.5808 23.7801 24.6608 17.9301 24.8408C14.3681 24.9786 10.8403 25.5907 7.44008 26.6608L7.08008 35.1908C10.1601 34.3808 15.0801 33.1908 19.0101 32.4308C23.6201 31.5908 38.1201 31.6008 45.4901 31.6608Z" fill="#EEEEFB"/>
<path d="M7.55995 25.3308L7.44995 25.0908C11.065 23.7149 14.8924 22.9805 18.76 22.9208C25.22 22.7908 45.2999 22.9208 45.5 22.9208V23.1808C45.2999 23.1808 25.23 23.0808 18.77 23.1808C14.9366 23.2392 11.1429 23.9668 7.55995 25.3308Z" fill="#231F20"/>
<path d="M7.1 38.5307L7 38.3007C7.09 38.3007 15.7 34.7807 21.28 33.9207C27.0275 33.1174 32.8269 32.743 38.63 32.8007L45.51 33.0507V33.3107L38.63 33.0607C32.8432 32.9931 27.0597 33.3675 21.33 34.1807C15.77 35.0007 7.18 38.5007 7.1 38.5307Z" fill="#231F20"/>
<path d="M12.5701 5.90072C12.8601 5.67072 13.5701 5.00072 14.0901 4.51072C14.2883 4.32223 14.5251 4.17901 14.784 4.09096C15.043 4.0029 15.318 3.97211 15.5901 4.00072L18.1801 4.29072C18.1801 4.29072 19.8201 4.68072 18.1801 6.08072C16.5401 7.48072 15.7101 8.27072 14.4201 8.44072C13.1301 8.61072 11.4201 9.65072 11.5201 8.44072C11.5201 8.00072 11.5801 7.68072 11.6101 7.44072C11.6726 7.14315 11.8065 6.8652 12.0001 6.63072L12.3101 6.22072C12.3893 6.10821 12.4762 6.00129 12.5701 5.90072Z" fill="#231F20"/>
<path d="M9.58003 46.0007C10.09 45.5107 9.96003 45.3407 10.01 44.8307L10.13 43.5407C10.13 43.5407 10.42 40.9407 10.56 39.3607C10.5685 39.251 10.5461 39.141 10.4954 39.0433C10.4446 38.9456 10.3676 38.8641 10.2729 38.8079C10.1782 38.7517 10.0697 38.7231 9.95962 38.7254C9.84955 38.7277 9.74231 38.7607 9.65003 38.8207C8.78462 39.3783 7.96231 40 7.19003 40.6807C7.08732 40.7886 7.03003 40.9318 7.03003 41.0807V45.5507C7.13003 46.1307 7.03003 46.2007 8.09003 46.5507C8.43706 46.5039 8.77454 46.4027 9.09003 46.2507L9.58003 46.0007Z" fill="#E3D0AA"/>
<path d="M12.9998 44.1407C12.5637 44.1435 12.1438 43.9756 11.8299 43.6729C11.5159 43.3702 11.3329 42.9567 11.3198 42.5207C11.1698 37.5207 10.8498 25.7007 11.1598 22.9307C11.538 20.3216 12.2262 17.7668 13.2098 15.3207C13.3498 14.9507 13.4698 14.6207 13.5698 14.3207C14.1716 12.5651 14.8967 10.8541 15.7398 9.20074C15.9324 8.93613 16.183 8.71921 16.4726 8.56665C16.7621 8.4141 17.0827 8.32997 17.4098 8.32074L27.1298 7.88074C27.5712 7.88328 27.994 8.05836 28.308 8.36856C28.6219 8.67876 28.802 9.09947 28.8098 9.54074L28.9999 32.4607C29.0044 32.6765 28.9662 32.891 28.8872 33.0919C28.8082 33.2927 28.6902 33.4759 28.5399 33.6307L27.5399 34.6907C27.2895 34.9555 26.9593 35.1311 26.5998 35.1907C25.3999 35.3807 21.4298 36.0707 20.7798 36.9907C19.7804 38.7391 18.8725 40.5382 18.0599 42.3807C18.0195 42.4635 17.9892 42.5508 17.9699 42.6407C17.8982 42.9998 17.7125 43.3262 17.4404 43.5712C17.1684 43.8162 16.8244 43.9669 16.4598 44.0007L13.0498 44.1907L12.9998 44.1407ZM27.1699 8.14074L17.4598 8.58074C17.1758 8.58795 16.8969 8.65912 16.6442 8.78897C16.3914 8.91882 16.1711 9.10401 15.9998 9.33074C15.1434 10.9673 14.4016 12.6614 13.7798 14.4007C13.6698 14.7007 13.5498 15.0407 13.4098 15.4007C12.4548 17.832 11.7836 20.3655 11.4098 22.9507C11.0998 25.7107 11.4098 37.5407 11.5798 42.5007C11.5877 42.8712 11.7411 43.2237 12.0068 43.4819C12.2726 43.7402 12.6293 43.8834 12.9998 43.8807L16.4098 43.6907C16.7153 43.6694 17.0061 43.5513 17.2399 43.3535C17.4737 43.1557 17.6383 42.8885 17.7098 42.5907C17.7344 42.4803 17.7713 42.3729 17.8198 42.2707C18.6352 40.4129 19.5498 38.6003 20.5598 36.8407C21.2498 35.8407 24.9698 35.1807 26.5598 34.9307C26.863 34.8838 27.1414 34.7358 27.3499 34.5107L28.3499 33.4607C28.4779 33.3282 28.5783 33.1716 28.6453 32.9999C28.7122 32.8282 28.7444 32.6449 28.7399 32.4607L28.5498 9.54074C28.542 9.16843 28.3893 8.81384 28.1241 8.5524C27.8589 8.29095 27.5022 8.14326 27.1298 8.14074H27.1699Z" fill="#231F20"/>
<path d="M27.3102 25.2707C27.3102 25.3874 27.2638 25.4993 27.1813 25.5819C27.0988 25.6644 26.9869 25.7107 26.8702 25.7107H24.3802C24.3161 25.7204 24.2508 25.7161 24.1886 25.6981C24.1263 25.6802 24.0687 25.649 24.0197 25.6068C23.9706 25.5645 23.9312 25.5122 23.9042 25.4533C23.8772 25.3945 23.8633 25.3305 23.8633 25.2657C23.8633 25.201 23.8772 25.137 23.9042 25.0781C23.9312 25.0193 23.9706 24.9669 24.0197 24.9247C24.0687 24.8825 24.1263 24.8513 24.1886 24.8334C24.2508 24.8154 24.3161 24.8111 24.3802 24.8207H26.8702C26.9878 24.8233 27.0997 24.8719 27.1819 24.956C27.2641 25.0401 27.3102 25.1531 27.3102 25.2707Z" fill="#231F20"/>
</g>
</svg>
