<svg width="91" height="70" viewBox="0 0 91 70" fill="none" xmlns="http://www.w3.org/2000/svg">
<mask id="mask0_2197_4048" style="mask-type:alpha" maskUnits="userSpaceOnUse" x="0" y="0" width="91" height="70">
<rect width="91" height="70" fill="#D9D9D9"/>
</mask>
<g mask="url(#mask0_2197_4048)">
<path d="M49.13 42.39L45.8 37.19C45.628 36.9414 45.4055 36.7318 45.1471 36.575C44.8886 36.4182 44.6 36.3177 44.3 36.28L43.3 36.17C43.3 38.74 43.3 40.56 43.3 40.56C43.3 40.56 42.05 40.56 35.7 40.65C29.35 40.74 24.15 47.35 24.15 47.35C24.15 47.35 12.83 47.5 11.67 47.35C11.5456 47.3313 11.4264 47.287 11.32 47.22L11.02 47.42L11.08 51.42L11.42 55.47C11.42 55.47 11.63 58 12.66 58.7C13.69 59.4 20.39 60.08 20.39 60.08C21.4911 60.1788 22.5989 60.1788 23.7 60.08C24.58 59.89 24.86 59.89 24.89 59.08C25.5009 56.07 26.6968 53.2092 28.41 50.66C30.41 48.19 31.75 46.88 34.53 46.37C36.4301 45.9169 38.41 45.9169 40.31 46.37C42.1289 46.7849 43.8035 47.6792 45.16 48.96C46.16 50.01 47.3 50.65 47.77 54.84C48.24 59.03 49.42 58.74 53.02 58.64C56.62 58.54 92.75 58.64 92.75 58.64L142.36 58H168.64V48.44L56.38 48.1C55.1957 48.1026 54.037 47.7547 53.05 47.1C52.1934 46.5444 51.4191 45.8712 50.75 45.1C50.35 44.5 49.13 42.41 49.13 42.39Z" fill="#9999A4"/>
<path d="M168 59.55L50.0998 59.91C49.8839 59.8869 49.6841 59.7847 49.539 59.6232C49.3938 59.4617 49.3135 59.2522 49.3135 59.035C49.3135 58.8178 49.3938 58.6083 49.539 58.4468C49.6841 58.2853 49.8839 58.1831 50.0998 58.16L168 57.81C168.114 57.8087 168.227 57.8299 168.332 57.8726C168.438 57.9152 168.534 57.9783 168.615 58.0583C168.695 58.1383 168.76 58.2336 168.804 58.3386C168.847 58.4436 168.87 58.5562 168.87 58.67C168.871 58.7851 168.85 58.8993 168.807 59.006C168.763 59.1127 168.7 59.2098 168.619 59.2916C168.538 59.3735 168.441 59.4385 168.335 59.4828C168.229 59.5272 168.115 59.55 168 59.55Z" fill="#111010"/>
<path d="M47.7699 54.79C47.2999 50.6 46.1999 50 45.1599 48.91C43.8061 47.6256 42.1304 46.7308 40.3099 46.32C38.4099 45.867 36.43 45.867 34.5299 46.32C31.7499 46.83 30.3799 48.14 28.4099 50.61C26.6967 53.1592 25.5008 56.02 24.8899 59.03C24.8899 59.84 24.4399 59.83 24.4399 59.83L51.1099 58.58C48.9999 58.62 48.1399 58.13 47.7699 54.79Z" fill="#111010"/>
<path d="M39.74 15.28L23.74 15.59C23.74 15.59 19 15.66 17 19.85C15 24.04 12.47 34.24 12.47 34.24C12.47 34.24 10.66 39.71 10.72 42.56C10.78 45.41 10.53 47.19 11.72 47.35C12.91 47.51 24.2 47.35 24.2 47.35C24.2 47.35 29.4 40.71 35.75 40.65C42.1 40.59 43.35 40.56 43.35 40.56C43.35 40.56 43.46 28.37 42.57 22.23C42.05 18.67 41.74 16.9 41.57 16.05C41.5196 15.8363 41.4002 15.645 41.2303 15.5059C41.0604 15.3667 40.8495 15.2873 40.63 15.28H39.74Z" fill="#E11E31"/>
<path opacity="0.3" d="M27.6798 28C25.9864 28.4087 24.3983 29.1705 23.0197 30.2355C21.6411 31.3005 20.5029 32.6447 19.6798 34.18V34.23C18.5498 36.16 16.8598 39.99 21.6798 41.58C23.6798 42.23 31.5698 39.66 31.7798 39.58L43.3398 34.58C43.2798 30.58 43.5298 30.12 43.0498 26.82C42.9298 26.48 30.8198 27.08 27.6798 28Z" fill="#EEEEFB"/>
<path d="M24 18.22L34.19 18C34.4013 17.996 34.6113 18.0342 34.8077 18.1123C35.004 18.1904 35.1829 18.3069 35.3337 18.4549C35.4846 18.603 35.6044 18.7796 35.6861 18.9745C35.7679 19.1694 35.81 19.3786 35.81 19.59V27.3C35.8133 27.7215 35.666 28.1304 35.3947 28.4531C35.1234 28.7757 34.7458 28.9909 34.33 29.06C31.66 29.52 26.21 30.6 25.21 31.99C24.57 32.87 24.21 33.45 23.94 33.83C23.8324 33.9993 23.6851 34.1398 23.5108 34.2392C23.3365 34.3385 23.1405 34.3937 22.94 34.4H18.17C18.0396 34.3992 17.9111 34.3681 17.7948 34.3091C17.6785 34.2501 17.5776 34.1648 17.5 34.06C17.4223 33.9552 17.3702 33.8338 17.3476 33.7053C17.3251 33.5769 17.3327 33.445 17.37 33.32L21.37 20.18C21.5452 19.6174 21.8941 19.1248 22.3665 18.7727C22.839 18.4206 23.4108 18.2271 24 18.22Z" fill="#4FCEF6"/>
<path d="M12.5 34.49C12.3505 34.4995 12.2071 34.553 12.0879 34.6437C11.9687 34.7345 11.8789 34.8584 11.83 35C11.46 36.06 10.62 38.58 10.39 39.72C10.0798 41.4418 9.94906 43.1912 9.99997 44.94C10.0018 45.255 10.117 45.5587 10.3245 45.7956C10.5321 46.0325 10.818 46.1867 11.13 46.23C11.41 46.23 12.76 46.17 13.6 46.13C13.7878 46.1204 13.9654 46.0414 14.0984 45.9084C14.2314 45.7754 14.3103 45.5978 14.32 45.41L15 35.21C15.0072 35.1026 14.9916 34.9949 14.9541 34.894C14.9166 34.7932 14.8581 34.7014 14.7824 34.6248C14.7068 34.5482 14.6157 34.4886 14.5153 34.4498C14.4149 34.4111 14.3074 34.3941 14.2 34.4L12.5 34.49Z" fill="#231F20"/>
<path d="M38.44 40.66C38.39 40.66 38.37 40.66 38.32 38.84C38.32 37.84 38.26 36.36 38.23 34.66C38.18 31.36 38.14 27.81 38.14 26.21C38.14 22.95 37.51 15.36 37.5 15.28H37.58C37.58 15.35 38.21 22.95 38.21 26.21C38.21 29.47 38.38 40.34 38.47 40.61C38.44 40.62 38.44 40.66 38.44 40.66Z" fill="#231F20"/>
<path d="M22.9099 34.43H18.1699C18.0337 34.431 17.8992 34.4001 17.7771 34.3397C17.6551 34.2792 17.5489 34.191 17.4672 34.082C17.3855 33.9731 17.3305 33.8464 17.3067 33.7124C17.2828 33.5783 17.2908 33.4404 17.3299 33.31L21.3299 20.17C21.5 19.5992 21.8477 19.0975 22.3225 18.7378C22.7973 18.3781 23.3744 18.1792 23.9699 18.17L34.2199 18C34.6514 18.0026 35.0645 18.1752 35.3696 18.4803C35.6747 18.7854 35.8473 19.1985 35.8499 19.63V27.3C35.8495 27.7295 35.698 28.1452 35.4219 28.4743C35.1459 28.8034 34.7628 29.0249 34.3399 29.1C31.9399 29.51 26.2499 30.62 25.2399 32.01C24.6999 32.74 24.2399 33.36 23.9699 33.85C23.856 34.0277 23.6992 34.174 23.514 34.2754C23.3288 34.3767 23.121 34.4299 22.9099 34.43ZM34.2199 18.07L23.9999 18.25C23.4156 18.2566 22.8485 18.4492 22.381 18.7998C21.9135 19.1504 21.5699 19.6409 21.3999 20.2L17.3999 33.33C17.3676 33.4472 17.3628 33.5702 17.3858 33.6895C17.4088 33.8088 17.459 33.9213 17.5325 34.018C17.6061 34.1148 17.7009 34.1933 17.8097 34.2474C17.9186 34.3015 18.0384 34.3298 18.1599 34.33H22.8999C23.0993 34.3295 23.2954 34.2788 23.4701 34.1827C23.6449 34.0866 23.7927 33.9481 23.8999 33.78C24.1999 33.29 24.6299 32.67 25.1699 31.93C26.1699 30.57 31.3199 29.51 34.3099 29C34.7169 28.9292 35.0858 28.7167 35.3511 28.4C35.6165 28.0834 35.7613 27.6831 35.7599 27.27V19.62C35.7599 19.2106 35.598 18.8179 35.3095 18.5275C35.0209 18.2371 34.6293 18.0726 34.2199 18.07Z" fill="#231F20"/>
<path d="M170.79 6.52002H52.4299V47.41H170.79V6.52002Z" fill="#7C7C8E"/>
<path d="M171.35 47.94H51.8799V6H171.35V47.94ZM52.9999 46.89H170.24V7H52.9999V46.89Z" fill="#231F20"/>
<path d="M46.8101 57.14C46.8121 59.0158 46.2575 60.85 45.2166 62.4106C44.1757 63.9711 42.6952 65.1877 40.9625 65.9065C39.2299 66.6252 37.3229 66.8138 35.4831 66.4483C33.6432 66.0828 31.9531 65.1798 30.6267 63.8534C29.3003 62.527 28.3972 60.8369 28.0317 58.997C27.6663 57.1571 27.8549 55.2502 28.5736 53.5175C29.2924 51.7849 30.509 50.3044 32.0695 49.2635C33.63 48.2226 35.4643 47.668 37.3401 47.67C39.8517 47.67 42.2604 48.6677 44.0364 50.4437C45.8123 52.2197 46.8101 54.6284 46.8101 57.14Z" fill="#231F20"/>
<path d="M43.71 57.14C43.71 58.4023 43.3355 59.6362 42.634 60.6856C41.9325 61.735 40.9355 62.5527 39.7692 63.0353C38.6028 63.5179 37.3195 63.6437 36.0816 63.3967C34.8437 63.1497 33.7069 62.5411 32.8151 61.6478C31.9232 60.7546 31.3164 59.6168 31.0713 58.3786C30.8263 57.1403 30.9541 55.8572 31.4385 54.6916C31.9229 53.5259 32.7422 52.5302 33.7927 51.8304C34.8432 51.1305 36.0777 50.758 37.34 50.76C39.0303 50.7627 40.6505 51.436 41.8448 52.6322C43.0392 53.8284 43.71 55.4497 43.71 57.14Z" fill="#A2A7B0"/>
<path d="M39.2099 57.47C39.0699 57.47 38.9699 57.36 38.9799 57.28C38.9899 57.2 39.1099 57.14 39.2399 57.14H42.1699C42.3099 57.14 42.4099 57.33 42.3899 57.58C42.3699 57.83 42.2299 57.99 42.0899 57.97L39.2099 57.47Z" fill="#231F20"/>
<path d="M37.9998 57.26C37.8898 57.26 37.7998 57.26 37.7998 57.19C37.8718 57.17 37.9479 57.17 38.0198 57.19C38.1298 57.19 38.2098 57.19 38.2098 57.26C38.2098 57.33 38.1498 57.27 37.9998 57.26Z" fill="#231F20"/>
<path d="M38.9401 58.17C38.8201 58.1 38.7601 57.98 38.7901 57.91C38.8201 57.84 38.9701 57.83 39.1001 57.91L41.7901 59C41.9201 59.06 41.9401 59.27 41.7901 59.49C41.6401 59.71 41.4801 59.81 41.3701 59.74L38.9401 58.17Z" fill="#231F20"/>
<path d="M37.9998 57.52C37.8998 57.46 37.8298 57.4 37.8398 57.38C37.8498 57.36 37.9498 57.38 38.0498 57.38C38.1498 57.38 38.2098 57.49 38.1998 57.52C38.1898 57.55 37.9998 57.58 37.9998 57.52Z" fill="#231F20"/>
<path d="M38.74 58.43C38.64 58.33 38.59 58.21 38.64 58.15C38.6839 58.119 38.7363 58.1024 38.79 58.1024C38.8437 58.1024 38.8961 58.119 38.94 58.15L41.4 59.74C41.52 59.81 41.51 60.04 41.4 60.22C41.29 60.4 41.04 60.48 40.94 60.39L38.74 58.43Z" fill="#231F20"/>
<path d="M37.8701 57.62C37.7901 57.54 37.7301 57.47 37.7401 57.45C37.8135 57.4618 37.8826 57.4928 37.9401 57.54C38.0401 57.61 38.0901 57.67 38.0601 57.7C38.0301 57.73 38.0001 57.69 37.8701 57.62Z" fill="#231F20"/>
<path d="M38.13 58.87C38.07 58.75 38.08 58.61 38.13 58.58C38.18 58.55 38.32 58.58 38.39 58.72L40.05 61.13C40.13 61.25 40.05 61.44 39.81 61.56C39.57 61.68 39.38 61.66 39.32 61.56L38.13 58.87Z" fill="#231F20"/>
<path d="M37.64 57.79C37.64 57.69 37.57 57.6 37.59 57.59C37.61 57.58 37.67 57.66 37.73 57.75C37.79 57.84 37.82 57.92 37.79 57.94C37.76 57.96 37.69 57.89 37.64 57.79Z" fill="#231F20"/>
<path d="M37.8198 59C37.8198 58.87 37.8198 58.74 37.8898 58.72C37.9598 58.7 38.0698 58.72 38.1298 58.89L39.3398 61.55C39.3998 61.68 39.2798 61.87 39.0398 61.94C38.7998 62.01 38.5898 61.94 38.5598 61.83L37.8198 59Z" fill="#231F20"/>
<path d="M37.5298 57.83C37.5298 57.72 37.5298 57.63 37.5298 57.63C37.5298 57.63 37.5998 57.71 37.6398 57.81C37.6798 57.91 37.6998 58 37.6398 58.01C37.5798 58.02 37.5598 57.94 37.5298 57.83Z" fill="#231F20"/>
<path d="M37.06 59C37.06 58.86 37.17 58.76 37.24 58.77C37.31 58.78 37.38 58.89 37.39 59.02L37.47 62C37.47 62.14 37.29 62.26 37.05 62.24C36.81 62.22 36.63 62.08 36.65 61.95L37.06 59Z" fill="#231F20"/>
<path d="M37.2401 57.85C37.2401 57.74 37.2901 57.65 37.3101 57.65C37.323 57.7228 37.323 57.7973 37.3101 57.87C37.3101 57.98 37.3101 58.07 37.2501 58.06C37.1901 58.05 37.2301 58 37.2401 57.85Z" fill="#231F20"/>
<path d="M36.7501 59C36.7501 58.87 36.8901 58.78 36.9601 58.8C37.0037 58.8282 37.0371 58.8697 37.0551 58.9184C37.0731 58.967 37.0749 59.0203 37.0601 59.07L36.6501 61.97C36.6501 62.1 36.4201 62.21 36.1901 62.14C35.9601 62.07 35.8001 61.91 35.8401 61.78L36.7501 59Z" fill="#231F20"/>
<path d="M37.1299 57.82C37.1299 57.72 37.1999 57.64 37.2199 57.65C37.2373 57.7155 37.2373 57.7845 37.2199 57.85C37.2199 57.95 37.1599 58.06 37.1199 58.04C37.0799 58.02 37.0899 57.93 37.1299 57.82Z" fill="#231F20"/>
<path d="M36.0898 58.58C36.1798 58.47 36.3098 58.43 36.3698 58.48C36.4 58.5224 36.4162 58.573 36.4162 58.625C36.4162 58.677 36.4 58.7277 36.3698 58.77L34.8498 61.27C34.7898 61.39 34.5498 61.41 34.3598 61.27C34.1698 61.13 34.0898 60.91 34.1898 60.81L36.0898 58.58Z" fill="#231F20"/>
<path d="M36.8799 57.69C36.9499 57.61 37.0199 57.55 37.0299 57.56C37.0293 57.6295 37.0046 57.6967 36.9599 57.75C36.8999 57.85 36.8199 57.92 36.7999 57.89C36.7799 57.86 36.7999 57.77 36.8799 57.69Z" fill="#231F20"/>
<path d="M35.87 58.34C35.97 58.26 36.1 58.23 36.15 58.34C36.2 58.45 36.15 58.51 36.09 58.62L34.18 60.83C34.09 60.93 33.86 60.9 33.69 60.72C33.52 60.54 33.49 60.32 33.6 60.23L35.87 58.34Z" fill="#231F20"/>
<path d="M36.7899 57.6C36.8799 57.53 36.9599 57.49 36.9599 57.51C36.9599 57.53 36.9599 57.59 36.8599 57.68C36.7599 57.77 36.6999 57.82 36.6699 57.79C36.6399 57.76 36.6999 57.67 36.7899 57.6Z" fill="#231F20"/>
<path d="M35.5198 57.68C35.6498 57.68 35.7798 57.68 35.7898 57.74C35.7998 57.8 35.7898 57.91 35.6298 57.98L32.9998 59.27C32.8798 59.33 32.6698 59.22 32.5898 58.99C32.5098 58.76 32.5898 58.54 32.6998 58.5L35.5198 57.68Z" fill="#231F20"/>
<path d="M36.6501 57.35C36.7601 57.35 36.8501 57.35 36.8501 57.35C36.8077 57.4029 36.7527 57.4442 36.6901 57.47C36.5901 57.47 36.4701 57.54 36.4801 57.47C36.4901 57.4 36.5501 57.39 36.6501 57.35Z" fill="#231F20"/>
<path d="M35.4498 57.36C35.5898 57.36 35.7098 57.36 35.7098 57.47C35.7098 57.58 35.6498 57.64 35.5198 57.68L32.7098 58.5C32.5798 58.5 32.4098 58.38 32.3498 58.15C32.2898 57.92 32.4098 57.7 32.5498 57.69L35.4498 57.36Z" fill="#231F20"/>
<path d="M36.6299 57.24C36.7399 57.24 36.8299 57.24 36.8199 57.24C36.8099 57.24 36.7499 57.24 36.6499 57.32C36.5499 57.4 36.4399 57.32 36.4299 57.32C36.4199 57.32 36.5199 57.25 36.6299 57.24Z" fill="#231F20"/>
<path d="M35.52 56.61C35.65 56.61 35.73 56.74 35.71 56.81C35.69 56.88 35.59 56.94 35.45 56.93L32.55 56.59C32.41 56.59 32.32 56.37 32.35 56.14C32.38 55.91 32.58 55.74 32.71 55.78L35.52 56.61Z" fill="#231F20"/>
<path d="M36.6499 57C36.7499 57 36.8299 57.07 36.8199 57.09C36.8099 57.11 36.7399 57.09 36.6299 57.09C36.5199 57.09 36.4299 57.03 36.4299 57C36.4299 56.97 36.5399 56.92 36.6499 57Z" fill="#231F20"/>
<path d="M35.6301 56.3C35.7601 56.37 35.8101 56.47 35.7901 56.54C35.7701 56.61 35.6501 56.64 35.5201 56.61L32.7101 55.78C32.5801 55.78 32.5201 55.53 32.6001 55.3C32.6801 55.07 32.8901 55 33.0001 55L35.6301 56.3Z" fill="#231F20"/>
<path d="M36.69 56.84C36.751 56.864 36.8057 56.9016 36.85 56.95C36.85 56.95 36.76 56.95 36.65 56.95C36.54 56.95 36.47 56.86 36.48 56.83C36.49 56.8 36.59 56.79 36.69 56.84Z" fill="#231F20"/>
<path d="M36.0899 55.71C36.1799 55.82 36.1999 55.93 36.1499 55.99C36.0999 56.05 35.9699 55.99 35.8699 55.94L33.5999 54.09C33.4899 54 33.5299 53.78 33.6899 53.6C33.8499 53.42 34.0899 53.39 34.1799 53.5L36.0899 55.71Z" fill="#231F20"/>
<path d="M36.8599 56.61C36.9299 56.69 36.9699 56.76 36.9599 56.78C36.9499 56.8 36.8799 56.78 36.7899 56.68C36.6999 56.58 36.6499 56.53 36.6699 56.5C36.6899 56.47 36.7899 56.53 36.8599 56.61Z" fill="#231F20"/>
<path d="M36.36 55.51C36.3901 55.5523 36.4063 55.603 36.4063 55.655C36.4063 55.707 36.3901 55.7577 36.36 55.8C36.3 55.86 36.17 55.8 36.08 55.71L34.18 53.5C34.08 53.4 34.18 53.18 34.35 53.04C34.52 52.9 34.78 52.9 34.84 53.04L36.36 55.51Z" fill="#231F20"/>
<path d="M36.9999 56.53C37.0599 56.63 37.0799 56.7 37.0699 56.72C37.0599 56.74 36.9899 56.72 36.9199 56.59C36.8499 56.46 36.8099 56.42 36.8399 56.4C36.8699 56.38 36.8999 56.44 36.9999 56.53Z" fill="#231F20"/>
<path d="M37.0601 55.26C37.0601 55.41 37.0601 55.5 36.9601 55.53C36.8601 55.56 36.7901 55.47 36.7501 55.34L35.8401 52.56C35.8401 52.43 35.9501 52.26 36.1901 52.2C36.4301 52.14 36.6301 52.2 36.6501 52.37L37.0601 55.26Z" fill="#231F20"/>
<path d="M37.2198 56.43C37.2372 56.4989 37.2372 56.5711 37.2198 56.64C37.2198 56.64 37.1598 56.57 37.1298 56.46C37.0998 56.35 37.1298 56.26 37.1298 56.24C37.1298 56.22 37.2098 56.33 37.2198 56.43Z" fill="#231F20"/>
<path d="M37.3899 55.24C37.3899 55.37 37.3199 55.48 37.2399 55.5C37.1599 55.52 37.0899 55.4 37.0599 55.26L36.6499 52.37C36.6499 52.23 36.8099 52.1 37.0499 52.08C37.2899 52.06 37.4799 52.18 37.4699 52.32L37.3899 55.24Z" fill="#231F20"/>
<path d="M37.3399 56.42C37.3531 56.4894 37.3531 56.5606 37.3399 56.63C37.3399 56.63 37.3399 56.55 37.2699 56.43C37.1999 56.31 37.2699 56.23 37.2699 56.23C37.2699 56.23 37.3499 56.3 37.3399 56.42Z" fill="#231F20"/>
<path d="M38.1299 55.41C38.1111 55.4597 38.0786 55.503 38.0361 55.5349C37.9936 55.5668 37.9429 55.5859 37.8899 55.59C37.8199 55.59 37.7899 55.44 37.8199 55.31L38.5599 52.48C38.5599 52.34 38.8099 52.29 39.0399 52.36C39.2699 52.43 39.3999 52.62 39.3399 52.75L38.1299 55.41Z" fill="#231F20"/>
<path d="M37.6201 56.48C37.6201 56.58 37.5301 56.66 37.5101 56.66C37.4901 56.66 37.5101 56.56 37.5101 56.45C37.5101 56.34 37.5901 56.27 37.6201 56.28C37.6501 56.29 37.6701 56.37 37.6201 56.48Z" fill="#231F20"/>
<path d="M38.4099 55.57C38.3399 55.67 38.2099 55.74 38.1499 55.71C38.0899 55.68 38.0699 55.54 38.1499 55.41L39.3599 52.75C39.4199 52.62 39.6399 52.61 39.8499 52.75C40.0599 52.89 40.1699 53.06 40.0899 53.17L38.4099 55.57Z" fill="#231F20"/>
<path d="M37.7301 56.54C37.6931 56.6011 37.6457 56.6553 37.5901 56.7C37.5901 56.7 37.5901 56.59 37.6401 56.49C37.6901 56.39 37.7501 56.33 37.7901 56.34C37.8301 56.35 37.8001 56.44 37.7301 56.54Z" fill="#231F20"/>
<path d="M38.94 56.11C38.8951 56.1385 38.8431 56.1536 38.79 56.1536C38.7369 56.1536 38.6848 56.1385 38.64 56.11C38.59 56.05 38.64 55.92 38.74 55.83L40.89 53.83C40.99 53.73 41.2 53.83 41.35 53.99C41.5 54.15 41.52 54.4 41.35 54.48L38.94 56.11Z" fill="#231F20"/>
<path d="M37.94 56.74C37.8825 56.7872 37.8135 56.8182 37.74 56.83C37.74 56.83 37.79 56.74 37.87 56.67C37.95 56.6 38.04 56.56 38.06 56.58C38.08 56.6 38 56.68 37.94 56.74Z" fill="#231F20"/>
<path d="M39.1 56.4C38.97 56.45 38.83 56.4 38.79 56.4C38.75 56.4 38.79 56.22 38.94 56.14L41.4 54.56C41.51 54.48 41.71 54.56 41.82 54.8C41.93 55.04 41.92 55.24 41.82 55.29L39.1 56.4Z" fill="#231F20"/>
<path d="M38 56.85C37.9 56.85 37.8 56.92 37.79 56.85C37.78 56.78 37.85 56.78 37.95 56.71C38.05 56.64 38.13 56.63 38.15 56.71C38.17 56.79 38.1 56.81 38 56.85Z" fill="#231F20"/>
<path d="M39.24 57.14C39.11 57.14 38.98 57.08 38.98 57C38.98 56.92 39.07 56.84 39.21 56.82L42.09 56.32C42.23 56.32 42.36 56.47 42.39 56.71C42.42 56.95 42.31 57.14 42.17 57.14H39.24Z" fill="#231F20"/>
<path d="M38.0601 57.13C37.9879 57.1482 37.9123 57.1482 37.8401 57.13C37.8401 57.13 37.9301 57.08 38.0401 57.06C38.1501 57.04 38.2401 57.06 38.2501 57.06C38.2601 57.06 38.1701 57.13 38.0601 57.13Z" fill="#231F20"/>
<path d="M17.7599 45.12C17.4828 45.1187 17.2087 45.0628 16.9532 44.9555C16.6977 44.8483 16.4659 44.6918 16.2709 44.4949C16.0759 44.298 15.9215 44.0647 15.8167 43.8082C15.7119 43.5517 15.6586 43.2771 15.6599 43V40.06C15.668 37.6916 16.0045 35.3358 16.6599 33.06C18.0999 28.06 20.6599 19.68 20.6599 19.59C20.8831 19.0195 21.2678 18.5264 21.7669 18.1712C22.266 17.816 22.8578 17.614 23.4699 17.59L34.3399 17.22H34.4099C34.9758 17.22 35.5186 17.4441 35.9196 17.8432C36.3207 18.2424 36.5473 18.7841 36.5499 19.35V27.84C36.2526 29.1673 35.6803 30.4175 34.8699 31.51C33.9499 32.72 33.2799 33.59 32.7399 34.28C31.8899 35.37 31.3399 36.09 30.5699 37.2C29.6499 38.54 26.0599 43 25.9999 43C24.8099 44.38 23.9999 44.7 22.9999 44.76L17.8199 45.09L17.7599 45.12ZM34.4299 17.29H34.3599L23.4899 17.67C22.8961 17.6895 22.3208 17.8814 21.8343 18.2223C21.3477 18.5633 20.971 19.0385 20.7499 19.59C20.7499 19.67 18.1599 28.01 16.7499 33.05C16.0927 35.3255 15.7562 37.6815 15.7499 40.05V43C15.7499 43.5304 15.9606 44.0391 16.3357 44.4142C16.7108 44.7893 17.2195 45 17.7499 45H17.8999L23.0799 44.67C23.9999 44.66 24.7999 44.34 25.9999 43C25.9999 43 29.6199 38.52 30.5499 37.18C31.3199 36.07 31.8799 35.35 32.7299 34.26L34.8599 31.48C35.6636 30.4046 36.2294 29.1707 36.5199 27.86V19.35C36.52 19.0769 36.4657 18.8066 36.3603 18.5547C36.2549 18.3027 36.1005 18.0743 35.906 17.8826C35.7115 17.6909 35.4809 17.5398 35.2275 17.4381C34.9741 17.3363 34.703 17.286 34.4299 17.29Z" fill="#231F20"/>
<path d="M60.3999 53.37C60.3999 53.9633 60.224 54.5434 59.8943 55.0367C59.5647 55.5301 59.0961 55.9146 58.548 56.1416C57.9998 56.3687 57.3966 56.4281 56.8146 56.3124C56.2327 56.1966 55.6981 55.9109 55.2786 55.4913C54.859 55.0718 54.5733 54.5372 54.4575 53.9553C54.3418 53.3733 54.4012 52.7701 54.6283 52.2219C54.8553 51.6738 55.2398 51.2052 55.7332 50.8756C56.2265 50.5459 56.8066 50.37 57.3999 50.37C58.1956 50.37 58.9586 50.6861 59.5212 51.2487C60.0838 51.8113 60.3999 52.5743 60.3999 53.37Z" fill="#E11E31"/>
<path d="M67.3401 53.37C67.3401 53.9633 67.1641 54.5434 66.8345 55.0367C66.5048 55.5301 66.0363 55.9146 65.4881 56.1416C64.9399 56.3687 64.3367 56.4281 63.7548 56.3124C63.1729 56.1966 62.6383 55.9109 62.2187 55.4913C61.7992 55.0718 61.5135 54.5372 61.3977 53.9553C61.282 53.3733 61.3414 52.7701 61.5684 52.2219C61.7955 51.6738 62.18 51.2052 62.6734 50.8756C63.1667 50.5459 63.7467 50.37 64.3401 50.37C65.1357 50.37 65.8988 50.6861 66.4614 51.2487C67.024 51.8113 67.3401 52.5743 67.3401 53.37Z" fill="#E11E31"/>
<path d="M74.29 53.37C74.29 53.9633 74.1141 54.5434 73.7844 55.0367C73.4548 55.5301 72.9862 55.9146 72.4381 56.1416C71.8899 56.3687 71.2867 56.4281 70.7047 56.3124C70.1228 56.1966 69.5883 55.9109 69.1687 55.4913C68.7491 55.0718 68.4634 54.5372 68.3477 53.9553C68.2319 53.3733 68.2913 52.7701 68.5184 52.2219C68.7454 51.6738 69.13 51.2052 69.6233 50.8756C70.1167 50.5459 70.6967 50.37 71.29 50.37C72.0857 50.37 72.8487 50.6861 73.4113 51.2487C73.9739 51.8113 74.29 52.5743 74.29 53.37Z" fill="#E11E31"/>
<path d="M57.3999 56.41C56.8066 56.41 56.2265 56.2341 55.7332 55.9044C55.2398 55.5748 54.8553 55.1063 54.6283 54.5581C54.4012 54.0099 54.3418 53.4067 54.4575 52.8248C54.5733 52.2428 54.859 51.7083 55.2786 51.2887C55.6981 50.8691 56.2327 50.5834 56.8146 50.4677C57.3966 50.3519 57.9998 50.4113 58.548 50.6384C59.0961 50.8654 59.5647 51.25 59.8943 51.7433C60.224 52.2367 60.3999 52.8167 60.3999 53.41C60.387 54.2017 60.0668 54.9573 59.507 55.5171C58.9471 56.0769 58.1915 56.3971 57.3999 56.41ZM57.3999 50.41C56.8066 50.41 56.2265 50.586 55.7332 50.9156C55.2398 51.2453 54.8553 51.7138 54.6283 52.262C54.4012 52.8102 54.3418 53.4133 54.4575 53.9953C54.5733 54.5772 54.859 55.1118 55.2786 55.5313C55.6981 55.9509 56.2327 56.2366 56.8146 56.3524C57.3966 56.4681 57.9998 56.4087 58.548 56.1817C59.0961 55.9546 59.5647 55.5701 59.8943 55.0767C60.224 54.5834 60.3999 54.0034 60.3999 53.41C60.4012 53.0152 60.3246 52.624 60.1744 52.2589C60.0242 51.8938 59.8035 51.5619 59.5248 51.2822C59.2461 51.0026 58.9149 50.7807 58.5503 50.6293C58.1856 50.4779 57.7947 50.4 57.3999 50.4V50.41Z" fill="#231F20"/>
<path d="M64.3401 56.41C63.7467 56.41 63.1667 56.2341 62.6734 55.9044C62.18 55.5748 61.7955 55.1063 61.5684 54.5581C61.3414 54.0099 61.282 53.4067 61.3977 52.8248C61.5135 52.2428 61.7992 51.7083 62.2187 51.2887C62.6383 50.8691 63.1729 50.5834 63.7548 50.4677C64.3367 50.3519 64.9399 50.4113 65.4881 50.6384C66.0363 50.8654 66.5048 51.25 66.8345 51.7433C67.1641 52.2367 67.3401 52.8167 67.3401 53.41C67.3401 54.2057 67.024 54.9687 66.4614 55.5313C65.8988 56.094 65.1357 56.41 64.3401 56.41ZM64.3401 50.41C63.7467 50.41 63.1667 50.586 62.6734 50.9156C62.18 51.2453 61.7955 51.7138 61.5684 52.262C61.3414 52.8102 61.282 53.4133 61.3977 53.9953C61.5135 54.5772 61.7992 55.1118 62.2187 55.5313C62.6383 55.9509 63.1729 56.2366 63.7548 56.3524C64.3367 56.4681 64.9399 56.4087 65.4881 56.1817C66.0363 55.9546 66.5048 55.5701 66.8345 55.0767C67.1641 54.5834 67.3401 54.0034 67.3401 53.41C67.3414 53.0152 67.2648 52.624 67.1146 52.2589C66.9644 51.8938 66.7436 51.5619 66.4649 51.2822C66.1862 51.0026 65.8551 50.7807 65.4904 50.6293C65.1258 50.4779 64.7349 50.4 64.3401 50.4V50.41Z" fill="#231F20"/>
<path d="M71.29 56.41C70.6967 56.41 70.1167 56.2341 69.6233 55.9044C69.13 55.5748 68.7454 55.1063 68.5184 54.5581C68.2913 54.0099 68.2319 53.4067 68.3477 52.8248C68.4634 52.2428 68.7491 51.7083 69.1687 51.2887C69.5883 50.8691 70.1228 50.5834 70.7047 50.4677C71.2867 50.3519 71.8899 50.4113 72.4381 50.6384C72.9862 50.8654 73.4548 51.25 73.7844 51.7433C74.1141 52.2367 74.29 52.8167 74.29 53.41C74.2771 54.2017 73.9569 54.9573 73.3971 55.5171C72.8373 56.0769 72.0817 56.3971 71.29 56.41ZM71.29 50.41C70.6967 50.41 70.1167 50.586 69.6233 50.9156C69.13 51.2453 68.7454 51.7138 68.5184 52.262C68.2913 52.8102 68.2319 53.4133 68.3477 53.9953C68.4634 54.5772 68.7491 55.1118 69.1687 55.5313C69.5883 55.9509 70.1228 56.2366 70.7047 56.3524C71.2867 56.4681 71.8899 56.4087 72.4381 56.1817C72.9862 55.9546 73.4548 55.5701 73.7844 55.0767C74.1141 54.5834 74.29 54.0034 74.29 53.41C74.2913 53.0152 74.2147 52.624 74.0645 52.2589C73.9144 51.8938 73.6936 51.5619 73.4149 51.2822C73.1362 51.0026 72.805 50.7807 72.4404 50.6293C72.0758 50.4779 71.6848 50.4 71.29 50.4V50.41Z" fill="#231F20"/>
<path d="M31.8101 32.53C31.8101 32.6335 31.769 32.7326 31.6958 32.8058C31.6227 32.8789 31.5235 32.92 31.4201 32.92H29.2301C29.178 32.9214 29.1262 32.9122 29.0777 32.8932C29.0293 32.8742 28.9851 32.8457 28.9478 32.8094C28.9105 32.773 28.8809 32.7296 28.8607 32.6816C28.8404 32.6336 28.83 32.5821 28.8301 32.53C28.8327 32.4257 28.876 32.3265 28.9507 32.2536C29.0254 32.1807 29.1257 32.14 29.2301 32.14H31.4201C31.5227 32.1426 31.6204 32.1845 31.693 32.2571C31.7656 32.3296 31.8075 32.4274 31.8101 32.53Z" fill="#231F20"/>
<path d="M21.3998 28.09C21.3998 28.25 21.2198 28.38 20.9998 28.38C20.7798 28.38 20.6098 28.26 20.6098 28.1L20.5298 19.36C20.5298 19.21 20.6998 19.08 20.9198 19.08C21.1398 19.08 21.3198 19.2 21.3198 19.36L21.3998 28.09Z" fill="#231F20"/>
<path d="M20.8 20C20.8 19.92 20.4 19 20.15 18.45C20.0928 18.2877 20.0687 18.1157 20.079 17.9439C20.0893 17.7722 20.1338 17.6043 20.21 17.45C20.316 17.3175 20.452 17.2122 20.6068 17.1426C20.7615 17.0731 20.9306 17.0413 21.1 17.05C22.0969 16.984 23.0969 17.1201 24.04 17.45L23.96 17.63C23.0441 17.3027 22.0701 17.1699 21.1 17.24C20.9625 17.2301 20.8246 17.2531 20.6976 17.307C20.5707 17.3609 20.4584 17.4442 20.37 17.55C20.2583 17.8223 20.2583 18.1277 20.37 18.4C20.56 18.85 21.01 19.9 21.03 19.97H20.84H20.93L20.8 20Z" fill="#231F20"/>
<path d="M24.33 17.47C24.3166 17.5464 24.2766 17.6157 24.2172 17.6656C24.1577 17.7154 24.0826 17.7428 24.005 17.7428C23.9274 17.7428 23.8523 17.7154 23.7929 17.6656C23.7334 17.6157 23.6935 17.5464 23.68 17.47C23.673 17.4245 23.6753 17.3781 23.6867 17.3336C23.6981 17.289 23.7185 17.2473 23.7465 17.2108C23.7746 17.1743 23.8097 17.1439 23.8499 17.1215C23.89 17.099 23.9343 17.0849 23.98 17.08C24.0221 17.0773 24.0642 17.0829 24.1041 17.0965C24.1439 17.1102 24.1807 17.1315 24.2123 17.1594C24.2439 17.1873 24.2697 17.2211 24.2882 17.259C24.3066 17.2968 24.3175 17.338 24.32 17.38L24.33 17.47Z" fill="#231F20"/>
<path d="M66.6898 45.08C66.6898 45.2046 66.6403 45.3242 66.5521 45.4123C66.464 45.5005 66.3445 45.55 66.2198 45.55H64.9998C64.8752 45.55 64.7556 45.5005 64.6675 45.4123C64.5793 45.3242 64.5298 45.2046 64.5298 45.08C64.5298 44.9553 64.5793 44.8358 64.6675 44.7476C64.7556 44.6595 64.8752 44.61 64.9998 44.61H66.2498C66.3745 44.61 66.494 44.6595 66.5821 44.7476C66.6703 44.8358 66.7198 44.9553 66.7198 45.08H66.6898Z" fill="#FD941A"/>
<path d="M91.3399 45.08C91.3399 45.2046 91.2904 45.3242 91.2023 45.4123C91.1141 45.5005 90.9946 45.55 90.8699 45.55H89.6199C89.4953 45.55 89.3757 45.5005 89.2876 45.4123C89.1994 45.3242 89.1499 45.2046 89.1499 45.08C89.1499 44.9553 89.1994 44.8358 89.2876 44.7476C89.3757 44.6595 89.4953 44.61 89.6199 44.61H90.8699C90.9946 44.61 91.1141 44.6595 91.2023 44.7476C91.2904 44.8358 91.3399 44.9553 91.3399 45.08Z" fill="#FD941A"/>
<path d="M168.64 48.44L76.5598 48.16V47.42H168.64V48.44Z" fill="#A2A7B0"/>
<path d="M22.42 52.57H16.26C16.2051 52.5651 16.1518 52.5491 16.1032 52.5231C16.0546 52.4971 16.0118 52.4616 15.9772 52.4186C15.9427 52.3757 15.9172 52.3262 15.9022 52.2732C15.8872 52.2202 15.883 52.1647 15.89 52.11C15.8787 52.0001 15.9113 51.8902 15.9805 51.8041C16.0498 51.7179 16.1502 51.6626 16.26 51.65H22.42C22.528 51.665 22.6259 51.7214 22.693 51.8072C22.7602 51.893 22.7914 52.0016 22.78 52.11C22.787 52.1639 22.7832 52.2187 22.7688 52.2711C22.7544 52.3235 22.7298 52.3726 22.6963 52.4154C22.6628 52.4582 22.6211 52.4939 22.5737 52.5204C22.5262 52.547 22.474 52.5638 22.42 52.57ZM16.26 51.77C16.12 51.77 16.01 51.93 16.01 52.11C16.01 52.29 16.12 52.45 16.26 52.45H22.42C22.55 52.45 22.66 52.3 22.66 52.11C22.66 51.92 22.55 51.77 22.42 51.77H16.26Z" fill="#231F20"/>
<path d="M22.4198 55.4H16.2598C16.1542 55.3778 16.0594 55.32 15.9914 55.2363C15.9234 55.1525 15.8862 55.0479 15.8862 54.94C15.8862 54.8321 15.9234 54.7275 15.9914 54.6437C16.0594 54.5599 16.1542 54.5021 16.2598 54.48H22.4198C22.5254 54.5021 22.6202 54.5599 22.6882 54.6437C22.7563 54.7275 22.7934 54.8321 22.7934 54.94C22.7934 55.0479 22.7563 55.1525 22.6882 55.2363C22.6202 55.32 22.5254 55.3778 22.4198 55.4ZM16.2598 54.6C16.1198 54.6 16.0098 54.75 16.0098 54.94C16.0098 55.13 16.1198 55.28 16.2598 55.28H22.4198C22.5498 55.28 22.6598 55.13 22.6598 54.94C22.6598 54.75 22.5498 54.6 22.4198 54.6H16.2598Z" fill="#231F20"/>
<path d="M38.6499 14C38.6499 15 38.1999 15.76 37.6499 15.76H37.4299C36.8799 15.76 36.4299 14.97 36.4299 14C36.4299 13.03 36.8799 12.24 37.4299 12.24H37.6499C38.1999 12.24 38.6499 13.03 38.6499 14Z" fill="#E3D0AA"/>
<path opacity="0.3" d="M170.82 9.57002V6.52002H158.83L51.8799 42.85V47.42H63.3499L170.82 9.57002Z" fill="#EEEEFB"/>
<path d="M14.4499 54.32C14.428 54.7463 14.2502 55.1498 13.9502 55.4535C13.6502 55.7572 13.249 55.94 12.823 55.9672C12.3969 55.9944 11.9758 55.864 11.6396 55.6008C11.3035 55.3377 11.0758 54.9601 10.9999 54.54L10.8399 52.15C10.8107 51.6912 10.965 51.2396 11.2689 50.8945C11.5727 50.5494 12.0011 50.3392 12.4599 50.31C12.9188 50.2808 13.3704 50.4351 13.7154 50.7389C14.0605 51.0427 14.2708 51.4712 14.2999 51.93L14.4499 54.32Z" fill="#E3D0AA"/>
<path opacity="0.5" d="M35.81 27.3V19.62C35.8203 19.5136 35.8203 19.4064 35.81 19.3L31.72 29.56C32.72 29.35 33.61 29.19 34.33 29.06C34.7458 28.9909 35.1234 28.7757 35.3947 28.4531C35.666 28.1304 35.8133 27.7215 35.81 27.3Z" fill="#E8EFF6"/>
<path opacity="0.5" d="M23.94 33.83C24.12 33.53 24.41 33.1 24.83 32.51L30.83 18.09L26.39 18.17L20 34.4H22.88C23.0907 34.4038 23.2989 34.3533 23.4845 34.2535C23.6701 34.1537 23.8269 34.0079 23.94 33.83Z" fill="#E8EFF6"/>
</g>
</svg>
