<svg width="90" height="68" viewBox="0 0 90 68" fill="none" xmlns="http://www.w3.org/2000/svg">
<mask id="mask0_2197_4382" style="mask-type:alpha" maskUnits="userSpaceOnUse" x="0" y="0" width="90" height="68">
<rect width="90" height="68" fill="#D9D9D9"/>
</mask>
<g mask="url(#mask0_2197_4382)">
<path d="M20.77 11L14.8799 11.6H14.5799C13.5799 11.8 8.49994 12.97 7.47994 16.6C6.81959 19.0846 6.39438 21.6258 6.20994 24.19C6.20298 24.2676 6.21231 24.3459 6.23732 24.4197C6.26233 24.4935 6.30247 24.5613 6.35518 24.6187C6.40789 24.6761 6.47201 24.7219 6.54343 24.7531C6.61485 24.7843 6.692 24.8003 6.76994 24.8C6.84564 24.7987 6.92083 24.8124 6.99115 24.8405C7.06146 24.8685 7.12548 24.9103 7.17948 24.9634C7.23347 25.0164 7.27635 25.0797 7.30562 25.1495C7.33489 25.2193 7.34996 25.2943 7.34994 25.37L7.24994 33.43C7.2598 33.9425 7.15229 34.4504 6.93563 34.9149C6.71897 35.3794 6.39891 35.7882 5.99994 36.11L5.82994 36.24C5.82994 36.24 5.14994 36.56 5.39994 42.12L5.63994 47.57V47.81C5.72994 48.62 6.28994 53.47 6.20994 55.11C6.12994 56.75 5.82994 58.86 6.15994 59.75C6.48994 60.64 6.95994 60.93 8.59994 61.07C10.2399 61.21 16.48 61.07 16.48 61.07L34.78 60.55H36.78C37.0266 60.55 37.2632 60.648 37.4376 60.8224C37.612 60.9968 37.71 61.2333 37.71 61.48C37.7003 61.6079 37.7172 61.7364 37.7596 61.8574C37.802 61.9785 37.869 62.0894 37.9563 62.1833C38.0437 62.2773 38.1495 62.3521 38.2671 62.4031C38.3848 62.4542 38.5117 62.4804 38.64 62.48H59C59.8911 62.48 60.7457 62.126 61.3758 61.4959C62.006 60.8657 62.36 60.0111 62.36 59.12V59C62.36 57.15 66.5 57.2 68.36 57.19L96.6 57.82C98.042 57.5625 99.3927 56.9354 100.52 56C101.398 55.0707 101.949 53.8806 102.09 52.61V51.21C102.087 50.6421 101.886 50.0931 101.52 49.6583C101.155 49.2236 100.649 48.9305 100.09 48.83C99.0695 48.6134 98.038 48.4532 97 48.35H43.2C41.36 48.35 41.47 46.87 41.45 45.03L41.14 14.22C41.1295 13.3375 40.7722 12.4946 40.1454 11.8734C39.5185 11.2522 38.6725 10.9025 37.79 10.9L23.31 11H20.77Z" fill="#00B762"/>
<path opacity="0.3" d="M41.4501 45L41.14 14.19C41.139 13.7814 41.0574 13.3771 40.9001 13L13.78 17.2C13.0397 17.3136 12.3582 17.6699 11.8423 18.2129C11.3265 18.7559 11.0056 19.4549 10.93 20.2L9.30005 38.14C9.30005 38.14 10.48 49.26 12.74 47.38C15 45.5 20.56 42.32 25.47 42.38C27.7252 42.3624 29.9559 42.8475 32 43.8C35.07 45.63 35.48 47.07 36.42 48.44C38.7351 51.597 41.6892 54.2309 45.09 56.17C48.2112 58.0089 51.8601 58.745 55.4501 58.26C57.2601 58.01 60.01 58.11 61.51 55.12C61.51 55.12 63.08 50.12 59.85 48.35H43.2001C41.3601 48.35 41.4701 46.87 41.4501 45Z" fill="#EEEEFB"/>
<path d="M22.3701 32.18V26.72C22.357 26.1983 22.1406 25.7023 21.7669 25.338C21.3932 24.9737 20.8919 24.7698 20.3701 24.77L7.12006 25.05C7.18726 25.1022 7.2419 25.1689 7.27997 25.245C7.31804 25.3212 7.33857 25.4049 7.34006 25.49L7.24006 33.55C7.22518 34.1003 7.07766 34.6389 6.81006 35.12C10.5601 34.7 20.7401 33.54 21.4501 33.36C21.7086 33.286 21.937 33.1319 22.1023 32.9199C22.2676 32.7078 22.3614 32.4487 22.3701 32.18Z" fill="#4FCEF6"/>
<path d="M192.17 4.52002H47.96V46.75H192.17V4.52002Z" fill="#9999A4"/>
<path d="M192.59 47.28H47.53V4H192.59V47.28ZM48.38 46.23H191.74V5H48.38V46.23Z" fill="#231F20"/>
<path d="M29.1499 47.11L28.9099 47C31.0597 39.3646 32.6177 31.5749 33.5699 23.7C34.6799 12.56 34.1799 11 34.1699 11H34.2799V10.78H34.3899C34.5599 10.95 34.8299 13.7 33.8299 23.69C32.881 31.6064 31.3162 39.4368 29.1499 47.11Z" fill="#231F20"/>
<path d="M36.0899 60.55C36.5999 56.18 36.3399 55.55 36.0199 54.19C34.7599 49.12 30.9099 46.72 26.0199 46.72C23.647 46.7056 21.3517 47.5651 19.572 49.1346C17.7922 50.7042 16.6524 52.8739 16.3699 55.23C16.1599 56.71 15.9199 59.83 16.5699 61.07L36.0899 60.55Z" fill="#111010"/>
<path d="M7.00008 45.61C7.13441 45.578 7.27392 45.5742 7.40982 45.5987C7.54571 45.6233 7.67504 45.6758 7.78965 45.7528C7.90427 45.8298 8.00168 45.9298 8.07576 46.0463C8.14984 46.1629 8.19898 46.2935 8.22008 46.43L9.00008 51.11C9.00506 51.1932 9.00506 51.2767 9.00008 51.36L8.80008 53.11C8.78435 53.3112 8.70811 53.5029 8.58139 53.66C8.45467 53.817 8.2834 53.9321 8.09008 53.99L7.00008 54.33C6.84881 54.3884 6.68562 54.4091 6.52457 54.3903C6.36352 54.3716 6.20944 54.314 6.07561 54.2225C5.94177 54.131 5.8322 54.0083 5.75632 53.865C5.68045 53.7217 5.64056 53.5621 5.64008 53.4L5.40008 47.6C5.38078 47.1308 5.53229 46.6706 5.82652 46.3046C6.12075 45.9387 6.53771 45.6919 7.00008 45.61Z" fill="#E3D0AA"/>
<path d="M41.22 21.75H6.46997V21.83H41.22V21.75Z" fill="#231F20"/>
<path d="M7.82013 57.52C7.82013 58.37 7.39013 59.05 6.82013 59.05H6.64013C6.10013 59.05 5.64014 58.37 5.64014 57.52C5.64014 56.67 6.10013 56 6.64013 56H6.85013C7.39013 56 7.85013 56.68 7.85013 57.52H7.82013Z" fill="#E3D0AA"/>
<path d="M10.4099 13.18C10.4099 14.18 9.95994 14.94 9.40994 14.94H9.18994C8.63994 14.94 8.18994 14.15 8.18994 13.18C8.18994 12.21 8.63994 11.42 9.18994 11.42H9.40994C9.95994 11.42 10.4099 12.21 10.4099 13.18Z" fill="#E3D0AA"/>
<path d="M22.68 35.73C22.68 35.8334 22.6389 35.9326 22.5657 36.0058C22.4926 36.0789 22.3934 36.12 22.29 36.12H20.1C19.9973 36.1175 19.8996 36.0756 19.827 36.003C19.7544 35.9304 19.7125 35.8326 19.71 35.73C19.71 35.6788 19.72 35.6281 19.7396 35.5808C19.7592 35.5334 19.788 35.4905 19.8242 35.4542C19.8604 35.418 19.9034 35.3893 19.9507 35.3697C19.998 35.3501 20.0487 35.34 20.1 35.34H22.29C22.3416 35.3386 22.3929 35.3478 22.4408 35.3669C22.4888 35.386 22.5323 35.4147 22.5688 35.4512C22.6053 35.4877 22.634 35.5312 22.6531 35.5791C22.6722 35.6271 22.6813 35.6784 22.68 35.73Z" fill="#231F20"/>
<path d="M34.8085 59.6302C35.9023 55.0139 33.0467 50.3849 28.4304 49.2911C23.8141 48.1973 19.1851 51.0529 18.0913 55.6692C16.9975 60.2855 19.8531 64.9145 24.4694 66.0083C29.0857 67.1021 33.7147 64.2465 34.8085 59.6302Z" fill="#231F20"/>
<path d="M32.2299 57.66C32.2299 58.8032 31.891 59.9207 31.2558 60.8712C30.6207 61.8217 29.718 62.5626 28.6619 63C27.6057 63.4375 26.4435 63.552 25.3223 63.3289C24.2011 63.1059 23.1712 62.5554 22.3629 61.7471C21.5545 60.9387 21.004 59.9088 20.781 58.7876C20.558 57.6664 20.6724 56.5043 21.1099 55.4481C21.5474 54.3919 22.2882 53.4892 23.2388 52.8541C24.1893 52.219 25.3068 51.88 26.4499 51.88C27.9829 51.88 29.4531 52.489 30.537 53.5729C31.621 54.6569 32.2299 56.1271 32.2299 57.66Z" fill="#A2A7B0"/>
<path d="M28.1399 58C28.0199 58 27.9199 57.9 27.9299 57.83C27.9399 57.76 28.0499 57.71 28.1799 57.71H30.8299C30.9499 57.71 31.0399 57.88 31.0199 58.1C30.9999 58.32 30.8799 58.48 30.7599 58.45L28.1399 58Z" fill="#231F20"/>
<path d="M27.0902 57.76C26.9902 57.76 26.9002 57.76 26.9102 57.7C26.9202 57.64 27.0002 57.7 27.1002 57.7C27.2002 57.7 27.2802 57.7 27.2702 57.76C27.2602 57.82 27.1902 57.78 27.0902 57.76Z" fill="#231F20"/>
<path d="M27.9 58.59C27.79 58.52 27.73 58.41 27.77 58.35C27.81 58.29 27.92 58.28 28.04 58.35L30.48 59.35C30.6 59.35 30.61 59.6 30.48 59.79C30.35 59.98 30.2 60.08 30.1 60.01L27.9 58.59Z" fill="#231F20"/>
<path d="M27 58C26.91 57.94 26.85 57.89 26.86 57.87C26.9261 57.8731 26.9909 57.8901 27.05 57.92C27.14 57.92 27.2 58.01 27.18 58.04C27.16 58.07 27.08 58.05 27 58Z" fill="#231F20"/>
<path d="M27.7102 58.82C27.6202 58.74 27.5802 58.62 27.6302 58.57C27.6802 58.52 27.8002 58.57 27.9002 58.57L30.1302 60C30.2402 60.07 30.2302 60.28 30.0802 60.44C29.9302 60.6 29.7602 60.68 29.6702 60.6L27.7102 58.82Z" fill="#231F20"/>
<path d="M26.9302 58.09C26.8602 58.02 26.8002 57.95 26.8102 57.94C26.8202 57.93 26.9102 57.94 26.9902 58.02C27.0702 58.1 27.1302 58.14 27.1002 58.16C27.0702 58.18 27.0002 58.16 26.9302 58.09Z" fill="#231F20"/>
<path d="M27.1599 59.23C27.1099 59.11 27.1599 58.99 27.1599 58.96C27.1599 58.93 27.3299 58.96 27.3999 59.08L28.8999 61.27C28.9799 61.38 28.8999 61.55 28.6899 61.66C28.4799 61.77 28.2899 61.75 28.2399 61.66L27.1599 59.23Z" fill="#231F20"/>
<path d="M26.72 58.24C26.7056 58.1809 26.7056 58.1191 26.72 58.06C26.72 58.06 26.8 58.12 26.86 58.21C26.92 58.3 26.93 58.37 26.86 58.38C26.79 58.39 26.77 58.34 26.72 58.24Z" fill="#231F20"/>
<path d="M26.8799 59.32C26.8799 59.2 26.8799 59.08 26.9499 59.06C27.0199 59.04 27.1099 59.12 27.1599 59.23L28.2599 61.64C28.3199 61.75 28.1999 61.92 27.9899 61.99C27.7799 62.06 27.5799 61.99 27.5499 61.89L26.8799 59.32Z" fill="#231F20"/>
<path d="M26.6201 58.28C26.6029 58.2212 26.6029 58.1588 26.6201 58.1C26.6201 58.1 26.6901 58.17 26.7301 58.26C26.7701 58.35 26.7801 58.43 26.7301 58.44C26.6801 58.45 26.6501 58.38 26.6201 58.28Z" fill="#231F20"/>
<path d="M26.2 59.36C26.2 59.24 26.29 59.14 26.36 59.15C26.43 59.16 26.49 59.26 26.49 59.38L26.57 62C26.57 62.13 26.4 62.24 26.18 62.22C25.96 62.2 25.8 62.08 25.82 61.95L26.2 59.36Z" fill="#231F20"/>
<path d="M26.3601 58.3C26.3601 58.2 26.3601 58.12 26.4201 58.12C26.432 58.1828 26.432 58.2472 26.4201 58.31C26.4201 58.42 26.4201 58.49 26.3701 58.49C26.3201 58.49 26.3501 58.4 26.3601 58.3Z" fill="#231F20"/>
<path d="M25.91 59.29C25.91 59.17 26.04 59.09 26.1 59.12C26.16 59.15 26.22 59.23 26.2 59.36L25.82 62C25.82 62.12 25.62 62.22 25.4 62.16C25.18 62.1 25.05 61.95 25.09 61.83L25.91 59.29Z" fill="#231F20"/>
<path d="M26.25 58.27C26.25 58.18 26.32 58.1 26.34 58.11C26.3571 58.1722 26.3571 58.2378 26.34 58.3C26.34 58.39 26.28 58.49 26.25 58.47C26.22 58.45 26.22 58.37 26.25 58.27Z" fill="#231F20"/>
<path d="M25.3199 59C25.3999 58.9 25.5099 58.86 25.5699 58.91C25.5949 58.9488 25.6082 58.9939 25.6082 59.04C25.6082 59.0861 25.5949 59.1313 25.5699 59.17L24.1899 61.4C24.1299 61.5 23.9099 61.52 23.7399 61.4C23.5699 61.28 23.4999 61.07 23.5799 60.98L25.3199 59Z" fill="#231F20"/>
<path d="M25.9999 58.15C26.0699 58.08 26.1299 58.02 26.1399 58.04C26.1499 58.06 26.1399 58.12 26.0699 58.21C25.9999 58.3 25.9499 58.36 25.9299 58.33C25.9099 58.3 25.9999 58.23 25.9999 58.15Z" fill="#231F20"/>
<path d="M25.1099 58.74C25.2099 58.67 25.3299 58.65 25.3699 58.74C25.4099 58.83 25.3699 58.9 25.3199 59L23.5799 61C23.4999 61.09 23.2999 61.06 23.1399 60.9C22.9799 60.74 22.9599 60.54 23.0599 60.46L25.1099 58.74Z" fill="#231F20"/>
<path d="M26 58.07C26.08 58.01 26.15 57.97 26.16 57.99C26.17 58.01 26.16 58.06 26.06 58.14C25.96 58.22 25.92 58.27 25.89 58.24C25.86 58.21 25.87 58.14 26 58.07Z" fill="#231F20"/>
<path d="M24.8001 58.14C24.9201 58.14 25.0301 58.14 25.0501 58.2C25.0526 58.248 25.0392 58.2956 25.0121 58.3353C24.9851 58.375 24.9457 58.4048 24.9001 58.42L22.5201 59.59C22.4201 59.59 22.2301 59.54 22.1601 59.33C22.0901 59.12 22.1601 58.92 22.2501 58.89L24.8001 58.14Z" fill="#231F20"/>
<path d="M25.8301 57.85C25.9201 57.85 26.0101 57.85 26.0101 57.85C25.9694 57.8955 25.9177 57.9299 25.8601 57.95C25.7701 57.95 25.6601 58.02 25.6701 57.95C25.6801 57.88 25.7301 57.88 25.8301 57.85Z" fill="#231F20"/>
<path d="M24.7399 57.85C24.8599 57.85 24.9699 57.85 24.9699 57.96C24.9699 58.07 24.9699 58.1 24.7999 58.14L22.2499 58.89C22.1299 58.89 21.9799 58.78 21.9299 58.57C21.8799 58.36 21.9799 58.16 22.0999 58.15L24.7399 57.85Z" fill="#231F20"/>
<path d="M25.7999 57.74C25.8999 57.74 25.9899 57.74 25.9799 57.74C25.9699 57.74 25.9199 57.74 25.8199 57.82C25.7199 57.9 25.6299 57.82 25.6199 57.82C25.6099 57.82 25.6999 57.75 25.7999 57.74Z" fill="#231F20"/>
<path d="M24.7999 57.17C24.9199 57.17 24.9899 57.29 24.9699 57.36C24.9499 57.43 24.8599 57.47 24.7399 57.46L22.0999 57.16C21.9799 57.16 21.8999 56.96 21.9299 56.74C21.9599 56.52 22.1299 56.39 22.2499 56.43L24.7999 57.17Z" fill="#231F20"/>
<path d="M25.8201 57.48C25.9201 57.48 25.9901 57.55 25.9801 57.56C25.9701 57.57 25.9001 57.56 25.8001 57.56C25.7001 57.56 25.6201 57.56 25.6201 57.48C25.6201 57.4 25.7201 57.46 25.8201 57.48Z" fill="#231F20"/>
<path d="M24.9002 56.9C25.0202 56.96 25.0602 57.04 25.0502 57.11C25.0402 57.18 24.9202 57.21 24.8002 57.17L22.2502 56.43C22.1302 56.43 22.0902 56.19 22.1602 55.99C22.2302 55.79 22.4202 55.67 22.5202 55.73L24.9002 56.9Z" fill="#231F20"/>
<path d="M25.8599 57.38C25.917 57.4058 25.9681 57.4433 26.0099 57.49C25.9507 57.504 25.8891 57.504 25.8299 57.49C25.7299 57.49 25.6599 57.42 25.6699 57.38C25.6799 57.34 25.7699 57.34 25.8599 57.38Z" fill="#231F20"/>
<path d="M25.3202 56.36C25.4002 56.45 25.4202 56.56 25.3702 56.61C25.3202 56.66 25.2102 56.61 25.1102 56.61L23.0602 54.93C22.9602 54.85 23.0002 54.65 23.1402 54.49C23.2802 54.33 23.5002 54.3 23.5802 54.39L25.3202 56.36Z" fill="#231F20"/>
<path d="M25.9999 57.17C26.0699 57.25 26.1099 57.31 26.0999 57.33C26.0899 57.35 26.0199 57.33 25.9399 57.24C25.8599 57.15 25.8199 57.1 25.8299 57.07C25.8399 57.04 25.9999 57.1 25.9999 57.17Z" fill="#231F20"/>
<path d="M25.56 56.18C25.5849 56.2188 25.5982 56.2639 25.5982 56.31C25.5982 56.3561 25.5849 56.4012 25.56 56.44C25.5 56.49 25.39 56.44 25.31 56.36L23.57 54.36C23.49 54.27 23.57 54.08 23.73 53.95C23.89 53.82 24.12 53.82 24.18 53.95L25.56 56.18Z" fill="#231F20"/>
<path d="M26.1 57.1C26.16 57.19 26.18 57.26 26.17 57.28C26.16 57.3 26.1 57.28 26.03 57.16C25.96 57.04 25.93 57 26 57C26.07 57 26.05 57 26.1 57.1Z" fill="#231F20"/>
<path d="M26.2001 56C26.2134 56.0469 26.2109 56.0968 26.1928 56.1421C26.1747 56.1873 26.1421 56.2253 26.1001 56.25C26.0401 56.25 25.9501 56.19 25.9101 56.07L25.0901 53.55C25.0901 53.43 25.1901 53.28 25.4001 53.22C25.6101 53.16 25.8101 53.22 25.8201 53.38L26.2001 56Z" fill="#231F20"/>
<path d="M26.34 57C26.3566 57.0588 26.3566 57.1212 26.34 57.18C26.34 57.18 26.29 57.11 26.25 57.02C26.21 56.93 26.25 56.84 26.25 56.82C26.25 56.8 26.33 56.92 26.34 57Z" fill="#231F20"/>
<path d="M26.4901 55.93C26.4901 56.05 26.4301 56.15 26.3601 56.16C26.2901 56.17 26.2201 56.08 26.2001 55.95L25.8201 53.33C25.8201 53.21 25.9701 53.09 26.1801 53.07C26.3901 53.05 26.5801 53.16 26.5701 53.28L26.4901 55.93Z" fill="#231F20"/>
<path d="M26.4499 57C26.4645 57.0625 26.4645 57.1275 26.4499 57.19C26.4499 57.19 26.4499 57.12 26.3899 57.02C26.3299 56.92 26.3899 56.83 26.3899 56.83C26.3899 56.83 26.4599 56.9 26.4499 57Z" fill="#231F20"/>
<path d="M27.16 56.09C27.1457 56.135 27.1178 56.1745 27.0802 56.2031C27.0427 56.2318 26.9972 56.2481 26.95 56.25C26.88 56.25 26.85 56.11 26.88 55.99L27.55 53.43C27.55 53.31 27.78 53.26 27.99 53.33C28.2 53.4 28.32 53.56 28.26 53.68L27.16 56.09Z" fill="#231F20"/>
<path d="M26.7101 57.06C26.7101 57.14 26.6201 57.22 26.6001 57.22C26.5825 57.1579 26.5825 57.0921 26.6001 57.03C26.6001 56.94 26.6701 56.87 26.7001 56.87C26.7301 56.87 26.7501 57 26.7101 57.06Z" fill="#231F20"/>
<path d="M27.4199 56.23C27.3499 56.33 27.2399 56.39 27.1799 56.36C27.1199 56.33 27.1099 56.2 27.1799 56.09L28.2799 53.68C28.2799 53.56 28.5299 53.55 28.7299 53.68C28.9299 53.81 29.0199 53.96 28.9399 54.06L27.4199 56.23Z" fill="#231F20"/>
<path d="M26.8099 57.11C26.7499 57.19 26.6899 57.26 26.6699 57.25C26.6566 57.1908 26.6566 57.1293 26.6699 57.07C26.7199 56.98 26.7699 56.92 26.7999 56.93C26.8299 56.94 26.8599 57 26.8099 57.11Z" fill="#231F20"/>
<path d="M27.8999 56.72C27.8606 56.7485 27.8134 56.7638 27.7649 56.7638C27.7164 56.7638 27.6692 56.7485 27.6299 56.72C27.5799 56.67 27.6299 56.56 27.7099 56.47L29.7099 54.68C29.7999 54.59 29.9899 54.68 30.1199 54.83C30.2499 54.98 30.2799 55.2 30.1699 55.27L27.8999 56.72Z" fill="#231F20"/>
<path d="M27.0001 57.29C26.9201 57.35 26.8401 57.39 26.8201 57.37C26.8001 57.35 26.8701 57.29 26.9401 57.23C27.0101 57.17 27.0901 57.12 27.1101 57.15C27.1301 57.18 27.0801 57.24 27.0001 57.29Z" fill="#231F20"/>
<path d="M28.0002 57C27.8802 57.05 27.7602 57 27.7302 57C27.7002 57 27.7302 56.83 27.8602 56.76L30.0902 55.33C30.1902 55.26 30.3702 55.33 30.4702 55.55C30.5702 55.77 30.5602 55.94 30.4702 55.99L28.0002 57Z" fill="#231F20"/>
<path d="M27.0501 57.39C26.9501 57.39 26.8601 57.46 26.8601 57.39C26.8601 57.32 26.9101 57.32 27.0001 57.26C27.0901 57.2 27.1601 57.19 27.1801 57.26C27.2001 57.33 27.1401 57.35 27.0501 57.39Z" fill="#231F20"/>
<path d="M28.1799 57.66C28.0499 57.66 27.9399 57.6 27.9299 57.53C27.9199 57.46 28.0199 57.38 28.1399 57.36L30.7599 56.91C30.8799 56.91 30.9999 57.04 31.0199 57.26C31.0399 57.48 30.9499 57.66 30.8299 57.66H28.1799Z" fill="#231F20"/>
<path d="M27.0999 57.65C27.0374 57.6645 26.9724 57.6645 26.9099 57.65C26.9099 57.65 26.9899 57.65 27.0899 57.58C27.1899 57.51 27.2699 57.58 27.2699 57.58C27.2699 57.58 27.1999 57.65 27.0999 57.65Z" fill="#231F20"/>
<path d="M77.6833 64.3508C81.3852 61.3839 81.9811 55.9777 79.0143 52.2758C76.0474 48.5738 70.6412 47.978 66.9393 50.9448C63.2373 53.9117 62.6415 59.3179 65.6083 63.0198C68.5752 66.7217 73.9814 67.3176 77.6833 64.3508Z" fill="#231F20"/>
<path d="M78.09 57.66C78.09 58.8032 77.751 59.9207 77.1159 60.8712C76.4808 61.8217 75.5781 62.5626 74.5219 63C73.4658 63.4375 72.3036 63.552 71.1824 63.3289C70.0612 63.1059 69.0313 62.5554 68.223 61.7471C67.4146 60.9387 66.8641 59.9088 66.6411 58.7876C66.4181 57.6664 66.5325 56.5043 66.97 55.4481C67.4075 54.3919 68.1483 53.4892 69.0988 52.8541C70.0493 52.219 71.1669 51.88 72.31 51.88C73.843 51.88 75.3132 52.489 76.3971 53.5729C77.4811 54.6569 78.09 56.1271 78.09 57.66Z" fill="#A2A7B0"/>
<path d="M74 58C73.88 58 73.78 57.9 73.79 57.83C73.8 57.76 73.91 57.71 74.04 57.71H76.69C76.81 57.71 76.9 57.88 76.88 58.1C76.86 58.32 76.74 58.48 76.62 58.45L74 58Z" fill="#231F20"/>
<path d="M73.0001 57.76C72.9001 57.76 72.8101 57.76 72.8201 57.7C72.8301 57.64 72.9101 57.7 73.0101 57.7C73.1101 57.7 73.1901 57.7 73.1801 57.76C73.1701 57.82 73.0501 57.78 73.0001 57.76Z" fill="#231F20"/>
<path d="M73.7601 58.59C73.6501 58.52 73.5901 58.41 73.6301 58.35C73.6701 58.29 73.7801 58.28 73.9001 58.35L76.3401 59.35C76.4601 59.35 76.4701 59.6 76.3401 59.79C76.2101 59.98 76.0601 60.08 75.9601 60.01L73.7601 58.59Z" fill="#231F20"/>
<path d="M72.8601 58C72.7701 57.94 72.7101 57.89 72.7201 57.87C72.7864 57.8721 72.8513 57.8892 72.9101 57.92C73.0001 57.92 73.0601 58.01 73.0401 58.04C73.0201 58.07 73.0001 58.05 72.8601 58Z" fill="#231F20"/>
<path d="M73.57 58.82C73.48 58.74 73.44 58.62 73.49 58.57C73.54 58.52 73.66 58.57 73.76 58.57L76 60C76.11 60.07 76.1 60.28 76 60.44C75.9 60.6 75.68 60.68 75.59 60.6L73.57 58.82Z" fill="#231F20"/>
<path d="M72.79 58.09C72.72 58.02 72.66 57.95 72.67 57.94C72.68 57.93 72.77 57.94 72.85 58.02C72.93 58.1 72.99 58.14 72.96 58.16C72.93 58.18 72.87 58.16 72.79 58.09Z" fill="#231F20"/>
<path d="M73 59.23C73 59.11 73 58.99 73 58.96C73 58.93 73.17 58.96 73.24 59.08L74.74 61.27C74.82 61.38 74.74 61.55 74.53 61.66C74.32 61.77 74.13 61.75 74.08 61.66L73 59.23Z" fill="#231F20"/>
<path d="M72.5799 58.24C72.5655 58.1809 72.5655 58.1191 72.5799 58.06C72.5799 58.06 72.6599 58.12 72.7199 58.21C72.7799 58.3 72.7899 58.37 72.7199 58.38C72.6499 58.39 72.6299 58.34 72.5799 58.24Z" fill="#231F20"/>
<path d="M72.74 59.32C72.74 59.2 72.74 59.08 72.81 59.06C72.88 59.04 72.97 59.12 73.02 59.23L74.12 61.64C74.18 61.75 74.06 61.92 73.85 61.99C73.64 62.06 73.44 61.99 73.41 61.89L72.74 59.32Z" fill="#231F20"/>
<path d="M72.4799 58.28C72.4686 58.2205 72.4686 58.1595 72.4799 58.1C72.4799 58.1 72.5499 58.17 72.5899 58.26C72.6299 58.35 72.6399 58.43 72.5899 58.44C72.5399 58.45 72.5099 58.38 72.4799 58.28Z" fill="#231F20"/>
<path d="M72.0599 59.36C72.0599 59.24 72.1499 59.14 72.2199 59.15C72.2899 59.16 72.3499 59.26 72.3599 59.38L72.4299 62C72.4299 62.13 72.2599 62.24 72.0399 62.22C71.8199 62.2 71.6599 62.08 71.6799 61.95L72.0599 59.36Z" fill="#231F20"/>
<path d="M72.22 58.3C72.22 58.2 72.22 58.12 72.28 58.12C72.34 58.12 72.28 58.22 72.28 58.31C72.28 58.4 72.28 58.49 72.28 58.49C72.28 58.49 72.21 58.4 72.22 58.3Z" fill="#231F20"/>
<path d="M71.7701 59.29C71.7701 59.17 71.9001 59.09 71.9601 59.12C72.0201 59.15 72.0801 59.23 72.0601 59.36L71.6801 62C71.6801 62.12 71.4801 62.22 71.2601 62.16C71.0401 62.1 70.9101 61.95 70.9501 61.83L71.7701 59.29Z" fill="#231F20"/>
<path d="M72.1099 58.27C72.1099 58.18 72.1799 58.1 72.1999 58.11C72.2169 58.1722 72.2169 58.2378 72.1999 58.3C72.1999 58.39 72.1399 58.49 72.1099 58.47C72.0799 58.45 72.0799 58.37 72.1099 58.27Z" fill="#231F20"/>
<path d="M71.18 59C71.26 58.9 71.37 58.86 71.43 58.91C71.455 58.9488 71.4683 58.9939 71.4683 59.04C71.4683 59.0861 71.455 59.1313 71.43 59.17L70.05 61.4C69.99 61.5 69.77 61.52 69.6 61.4C69.43 61.28 69.36 61.07 69.44 60.98L71.18 59Z" fill="#231F20"/>
<path d="M71.8901 58.15C72.0001 58.08 72.0001 58 72.0001 58C72.0001 58 72.0001 58.08 71.9301 58.17C71.8601 58.26 71.8101 58.32 71.7901 58.29C71.7701 58.26 71.8201 58.23 71.8901 58.15Z" fill="#231F20"/>
<path d="M71.0001 58.74C71.1001 58.67 71.2201 58.65 71.2601 58.74C71.3001 58.83 71.2601 58.9 71.2601 59L69.5201 61C69.4401 61.09 69.2401 61.06 69.0801 60.9C68.9201 60.74 68.9001 60.54 69.0001 60.46L71.0001 58.74Z" fill="#231F20"/>
<path d="M71.8099 58.07C71.8899 58 71.9999 58 71.9999 58C71.9999 58 71.9999 58.07 71.8999 58.15C71.7999 58.23 71.7599 58.28 71.7299 58.25C71.6999 58.22 71.7299 58.14 71.8099 58.07Z" fill="#231F20"/>
<path d="M70.66 58.14C70.78 58.14 70.89 58.14 70.91 58.2C70.9124 58.248 70.8991 58.2956 70.872 58.3353C70.8449 58.375 70.8056 58.4048 70.76 58.42L68.38 59.59C68.28 59.59 68.09 59.54 68.02 59.33C67.95 59.12 68.02 58.92 68.11 58.89L70.66 58.14Z" fill="#231F20"/>
<path d="M71.6902 57.85C71.7902 57.85 71.8702 57.85 71.8702 57.85C71.8294 57.8955 71.7778 57.9299 71.7202 57.95C71.6302 57.95 71.5202 58.02 71.5302 57.95C71.5402 57.88 71.5902 57.88 71.6902 57.85Z" fill="#231F20"/>
<path d="M70.6 57.85C70.72 57.85 70.83 57.85 70.83 57.96C70.83 58.07 70.83 58.1 70.66 58.14L68.11 58.89C67.99 58.89 67.84 58.78 67.79 58.57C67.74 58.36 67.84 58.16 67.97 58.15L70.6 57.85Z" fill="#231F20"/>
<path d="M71.66 57.74C71.76 57.74 71.85 57.74 71.84 57.74C71.83 57.74 71.78 57.74 71.68 57.82C71.58 57.9 71.49 57.82 71.48 57.82C71.47 57.82 71.56 57.75 71.66 57.74Z" fill="#231F20"/>
<path d="M70.66 57.17C70.78 57.17 70.85 57.29 70.83 57.36C70.81 57.43 70.72 57.47 70.6 57.46L68 57.16C67.87 57.16 67.79 56.96 67.82 56.74C67.85 56.52 68.02 56.39 68.14 56.43L70.66 57.17Z" fill="#231F20"/>
<path d="M71.68 57.48C71.78 57.48 71.85 57.55 71.84 57.56C71.83 57.57 71.76 57.56 71.66 57.56C71.56 57.56 71.48 57.56 71.48 57.48C71.48 57.4 71.58 57.46 71.68 57.48Z" fill="#231F20"/>
<path d="M70.76 56.9C70.88 56.96 70.92 57.04 70.91 57.11C70.9 57.18 70.78 57.21 70.66 57.17L68.11 56.43C67.99 56.43 67.95 56.19 68.02 55.99C68.09 55.79 68.28 55.67 68.38 55.73L70.76 56.9Z" fill="#231F20"/>
<path d="M71.72 57.38C71.7771 57.4058 71.8282 57.4433 71.87 57.49C71.8108 57.5037 71.7492 57.5037 71.69 57.49C71.59 57.49 71.52 57.42 71.53 57.38C71.54 57.34 71.63 57.34 71.72 57.38Z" fill="#231F20"/>
<path d="M71.1801 56.36C71.2601 56.45 71.2801 56.56 71.1801 56.61C71.0801 56.66 71.02 56.61 70.92 56.61L68.9201 54.93C68.8201 54.85 68.86 54.65 69 54.49C69.14 54.33 69.3601 54.3 69.4401 54.39L71.1801 56.36Z" fill="#231F20"/>
<path d="M71.87 57.17C71.94 57.25 71.98 57.31 71.97 57.33C71.96 57.35 71.89 57.33 71.81 57.24C71.73 57.15 71.69 57.1 71.7 57.07C71.71 57.04 71.81 57.1 71.87 57.17Z" fill="#231F20"/>
<path d="M71.4201 56.18C71.445 56.2188 71.4583 56.2639 71.4583 56.31C71.4583 56.3561 71.445 56.4012 71.4201 56.44C71.3601 56.49 71.2501 56.44 71.1701 56.36L69.4301 54.36C69.3501 54.27 69.4301 54.08 69.5901 53.95C69.7501 53.82 69.9801 53.82 70.0401 53.95L71.4201 56.18Z" fill="#231F20"/>
<path d="M72 57.1C72.06 57.19 72.08 57.26 72.07 57.28C72.06 57.3 72 57.28 71.93 57.16C71.86 57.04 71.83 57 71.86 56.98C71.89 56.96 71.91 57 72 57.1Z" fill="#231F20"/>
<path d="M72.06 56C72.0734 56.0469 72.0708 56.0968 72.0527 56.1421C72.0346 56.1873 72.002 56.2253 71.96 56.25C71.9 56.25 71.81 56.19 71.77 56.07L71 53.5C71 53.38 71.1 53.23 71.31 53.17C71.52 53.11 71.72 53.17 71.73 53.33L72.06 56Z" fill="#231F20"/>
<path d="M72.2001 57C72.2167 57.0588 72.2167 57.1212 72.2001 57.18C72.2001 57.18 72.2001 57.11 72.1101 57.02C72.0201 56.93 72.1101 56.84 72.1101 56.82C72.1101 56.8 72.1901 56.92 72.2001 57Z" fill="#231F20"/>
<path d="M72.3602 55.93C72.3602 56.05 72.2902 56.15 72.2202 56.16C72.1502 56.17 72.0802 56.08 72.0602 55.95L71.6802 53.33C71.6802 53.21 71.8302 53.09 72.0402 53.07C72.2502 53.05 72.4402 53.16 72.4302 53.28L72.3602 55.93Z" fill="#231F20"/>
<path d="M72.3101 57C72.3101 57.1 72.3101 57.19 72.3101 57.19C72.3101 57.19 72.3101 57.12 72.2501 57.02C72.1901 56.92 72.2501 56.83 72.2501 56.83C72.2501 56.83 72.3201 56.9 72.3101 57Z" fill="#231F20"/>
<path d="M73.0001 56.09C72.9857 56.135 72.9579 56.1745 72.9203 56.2031C72.8827 56.2318 72.8373 56.2481 72.7901 56.25C72.7201 56.25 72.6901 56.11 72.7201 55.99L73.3901 53.43C73.3901 53.31 73.6201 53.26 73.8301 53.33C74.0401 53.4 74.1601 53.56 74.1001 53.68L73.0001 56.09Z" fill="#231F20"/>
<path d="M72.57 57.06C72.57 57.14 72.48 57.22 72.46 57.22C72.4486 57.1572 72.4486 57.0928 72.46 57.03C72.46 56.94 72.53 56.87 72.57 56.87C72.61 56.87 72.61 57 72.57 57.06Z" fill="#231F20"/>
<path d="M73.28 56.23C73.21 56.33 73.1 56.39 73.04 56.36C72.98 56.33 72.97 56.2 73.04 56.09L74.14 53.68C74.14 53.56 74.39 53.55 74.59 53.68C74.79 53.81 74.88 53.96 74.8 54.06L73.28 56.23Z" fill="#231F20"/>
<path d="M72.67 57.11C72.61 57.19 72.55 57.26 72.53 57.25C72.5167 57.1908 72.5167 57.1293 72.53 57.07C72.53 56.98 72.63 56.92 72.66 56.93C72.69 56.94 72.72 57 72.67 57.11Z" fill="#231F20"/>
<path d="M73.76 56.72C73.7207 56.7485 73.6735 56.7638 73.625 56.7638C73.5765 56.7638 73.5292 56.7485 73.49 56.72C73.49 56.67 73.49 56.56 73.57 56.47L75.57 54.68C75.66 54.59 75.85 54.68 75.98 54.83C76.11 54.98 76.14 55.2 75.98 55.27L73.76 56.72Z" fill="#231F20"/>
<path d="M72.8501 57.29C72.7701 57.35 72.6901 57.39 72.6701 57.37C72.6501 57.35 72.6701 57.29 72.7901 57.23C72.9101 57.17 72.9401 57.12 72.9601 57.15C72.9801 57.18 72.9401 57.24 72.8501 57.29Z" fill="#231F20"/>
<path d="M73.9001 57C73.7801 57.05 73.6601 57 73.6301 57C73.6001 57 73.6301 56.83 73.7601 56.76L76.0001 55.29C76.1001 55.22 76.2801 55.29 76.3801 55.51C76.4801 55.73 76.4701 55.9 76.3801 55.95L73.9001 57Z" fill="#231F20"/>
<path d="M72.9101 57.39C72.8101 57.39 72.7301 57.46 72.7201 57.39C72.7101 57.32 72.7201 57.32 72.8601 57.26C73.0001 57.2 73.0201 57.19 73.0401 57.26C73.0601 57.33 73.0001 57.35 72.9101 57.39Z" fill="#231F20"/>
<path d="M74 57.66C73.87 57.66 73.76 57.6 73.75 57.53C73.74 57.46 73.84 57.38 73.96 57.36L76.58 56.91C76.7 56.91 76.82 57.04 76.84 57.26C76.86 57.48 76.77 57.66 76.65 57.66H74Z" fill="#231F20"/>
<path d="M73.0001 57.65C72.9376 57.6645 72.8726 57.6645 72.8101 57.65C72.8101 57.65 72.8901 57.65 72.9901 57.58C73.0901 57.51 73.1701 57.58 73.1701 57.58C73.1701 57.58 73.0601 57.65 73.0001 57.65Z" fill="#231F20"/>
<path d="M96.9964 63.5167C100.229 60.0442 100.034 54.6088 96.5618 51.3763C93.0893 48.1439 87.6539 48.3384 84.4215 51.8109C81.189 55.2833 81.3836 60.7188 84.856 63.9512C88.3285 67.1837 93.7639 66.9891 96.9964 63.5167Z" fill="#231F20"/>
<path d="M96.4802 57.66C96.4802 58.8032 96.1412 59.9207 95.506 60.8712C94.8709 61.8217 93.9682 62.5626 92.9121 63C91.8559 63.4375 90.6937 63.552 89.5725 63.3289C88.4513 63.1059 87.4214 62.5554 86.6131 61.7471C85.8047 60.9387 85.2542 59.9088 85.0312 58.7876C84.8082 57.6664 84.9227 56.5043 85.3601 55.4481C85.7976 54.3919 86.5384 53.4892 87.489 52.8541C88.4395 52.219 89.557 51.88 90.7001 51.88C92.2331 51.88 93.7033 52.489 94.7872 53.5729C95.8712 54.6569 96.4802 56.1271 96.4802 57.66Z" fill="#A2A7B0"/>
<path d="M90.1701 59.29C90.1701 59.17 90.2901 59.09 90.3601 59.12C90.4301 59.15 90.4701 59.23 90.4501 59.36L90.0801 62C90.0801 62.12 89.8701 62.22 89.6601 62.16C89.4501 62.1 89.3101 61.95 89.3501 61.83L90.1701 59.29Z" fill="#231F20"/>
<path d="M89.5699 59C89.6599 58.9 89.7699 58.86 89.8199 58.91C89.8491 58.9471 89.865 58.9928 89.865 59.04C89.865 59.0872 89.8491 59.133 89.8199 59.17L88.4399 61.4C88.3799 61.5 88.1599 61.52 87.9999 61.4C87.8399 61.28 87.7499 61.07 87.8399 60.98L89.5699 59Z" fill="#231F20"/>
<path d="M89.37 58.74C89.47 58.67 89.58 58.65 89.62 58.74C89.66 58.83 89.62 58.9 89.57 59L87.84 61C87.76 61.09 87.55 61.06 87.4 60.9C87.25 60.74 87.22 60.54 87.32 60.46L89.37 58.74Z" fill="#231F20"/>
<path d="M89.0501 58.14C89.1701 58.14 89.2901 58.14 89.3001 58.2C89.3101 58.26 89.3001 58.36 89.1601 58.42L86.7801 59.59C86.6701 59.59 86.4801 59.54 86.4101 59.33C86.3401 59.12 86.4101 58.92 86.5101 58.89L89.0501 58.14Z" fill="#231F20"/>
<path d="M90.0799 57.85C90.1799 57.85 90.2599 57.85 90.2599 57.85C90.2218 57.8984 90.1693 57.9335 90.1099 57.95C90.0199 57.95 89.9199 58.02 89.9199 57.95C89.9199 57.88 89.9999 57.88 90.0799 57.85Z" fill="#231F20"/>
<path d="M89 57.85C89.13 57.85 89.23 57.85 89.24 57.96C89.25 58.07 89.18 58.1 89.06 58.14L86.52 58.89C86.4 58.89 86.25 58.78 86.19 58.57C86.13 58.36 86.25 58.16 86.37 58.15L89 57.85Z" fill="#231F20"/>
<path d="M90.0599 57.74C90.1599 57.74 90.2399 57.74 90.2299 57.74C90.2199 57.74 90.1699 57.74 90.0799 57.82C89.9899 57.9 89.8899 57.82 89.8799 57.82C89.8699 57.82 89.9999 57.75 90.0599 57.74Z" fill="#231F20"/>
<path d="M89.0499 57.17C89.1699 57.17 89.2499 57.29 89.2299 57.36C89.2099 57.43 89.1199 57.47 88.9899 57.46L86.3599 57.16C86.2399 57.16 86.1499 56.96 86.1799 56.74C86.2099 56.52 86.3899 56.39 86.5099 56.43L89.0499 57.17Z" fill="#231F20"/>
<path d="M90.0799 57.48C90.1699 57.48 90.2399 57.55 90.2299 57.56C90.2199 57.57 90.1599 57.56 90.0599 57.56C89.9599 57.56 89.8799 57.56 89.8799 57.48C89.8799 57.4 89.9999 57.46 90.0799 57.48Z" fill="#231F20"/>
<path d="M89.1599 56.9C89.2699 56.96 89.3199 57.04 89.2999 57.11C89.2799 57.18 89.1699 57.21 89.0499 57.17L86.5099 56.43C86.3899 56.43 86.3399 56.19 86.4099 55.99C86.4799 55.79 86.6699 55.67 86.7799 55.73L89.1599 56.9Z" fill="#231F20"/>
<path d="M90.11 57.38C90.169 57.4025 90.2209 57.4405 90.26 57.49C90.2008 57.5037 90.1393 57.5037 90.08 57.49C89.99 57.49 89.91 57.42 89.92 57.38C89.93 57.34 90 57.34 90.11 57.38Z" fill="#231F20"/>
<path d="M89.57 56.36C89.66 56.45 89.67 56.56 89.62 56.61C89.57 56.66 89.47 56.61 89.37 56.61L87.32 54.93C87.22 54.85 87.25 54.65 87.4 54.49C87.55 54.33 87.76 54.3 87.84 54.39L89.57 56.36Z" fill="#231F20"/>
<path d="M89.8099 56.18C89.8799 56.3 89.8699 56.39 89.8099 56.44C89.7499 56.49 89.6499 56.44 89.5599 56.36L87.8299 54.36C87.7399 54.27 87.8299 54.08 87.9899 53.95C88.1499 53.82 88.3699 53.82 88.4299 53.95L89.8099 56.18Z" fill="#231F20"/>
<path d="M90.4501 56C90.4628 56.0459 90.461 56.0945 90.4448 56.1393C90.4287 56.1841 90.3991 56.2228 90.3601 56.25C90.2901 56.25 90.2101 56.19 90.1701 56.07L89.3501 53.55C89.3501 53.43 89.4501 53.28 89.6601 53.22C89.8701 53.16 90.0601 53.22 90.0801 53.38L90.4501 56Z" fill="#231F20"/>
<path d="M41.4501 44.73L32.0001 44.59C31.6001 44.59 31.2201 44.59 30.8401 44.59L28.5501 44.42L17.7401 43.66C17.1601 43.66 16.7401 43.46 16.6501 43.18C16.5902 43.0605 16.5591 42.9287 16.5591 42.795C16.5591 42.6613 16.5902 42.5295 16.6501 42.41C17.1417 41.3038 17.8181 40.2893 18.6501 39.41C19.838 38.6333 21.2309 38.2293 22.6501 38.25H22.7601L41.3101 37.65V37.72L22.7601 38.33C21.3098 38.2882 19.8807 38.6856 18.6601 39.47C17.8238 40.3459 17.147 41.3612 16.6601 42.47C16.5976 42.5726 16.5597 42.6883 16.5493 42.808C16.5389 42.9277 16.5563 43.0481 16.6001 43.16C16.7401 43.42 17.0901 43.57 17.6001 43.61L28.4201 44.37L30.7101 44.53C31.0801 44.53 31.4601 44.53 31.8601 44.58L41.3101 44.71L41.4501 44.73Z" fill="#231F20"/>
<path d="M15.5002 53.33H11.6402C11.5762 53.3131 11.5196 53.2754 11.4793 53.223C11.4389 53.1705 11.417 53.1062 11.417 53.04C11.417 52.9738 11.4389 52.9095 11.4793 52.857C11.5196 52.8046 11.5762 52.7669 11.6402 52.75H15.5002C15.5641 52.7669 15.6207 52.8046 15.6611 52.857C15.7015 52.9095 15.7233 52.9738 15.7233 53.04C15.7233 53.1062 15.7015 53.1705 15.6611 53.223C15.6207 53.2754 15.5641 53.3131 15.5002 53.33ZM11.6402 52.83C11.5602 52.83 11.4902 52.92 11.4902 53.04C11.4902 53.16 11.5602 53.26 11.6402 53.26H15.5002C15.5902 53.26 15.6502 53.16 15.6502 53.04C15.6502 52.92 15.5902 52.83 15.5002 52.83H11.6402Z" fill="#231F20"/>
<path d="M15.2499 55.77H11.6299C11.5099 55.77 11.4199 55.64 11.4199 55.48C11.4199 55.32 11.5099 55.19 11.6299 55.19H15.2499C15.3699 55.19 15.4599 55.32 15.4599 55.48C15.4599 55.64 15.3699 55.77 15.2499 55.77ZM11.6299 55.27C11.5499 55.27 11.4899 55.36 11.4899 55.48C11.4899 55.6 11.5599 55.69 11.6299 55.69H15.2499C15.3199 55.69 15.3899 55.6 15.3899 55.48C15.3899 55.36 15.3299 55.27 15.2499 55.27H11.6299Z" fill="#231F20"/>
<path d="M14.7099 58.21H11.6099C11.4999 58.21 11.4199 58.08 11.4199 57.92C11.4199 57.76 11.4999 57.63 11.6099 57.63H14.7099C14.8199 57.63 14.8999 57.76 14.8999 57.92C14.8999 58.08 14.8199 58.21 14.7099 58.21ZM11.6099 57.71C11.5499 57.71 11.4899 57.8 11.4899 57.92C11.4899 58.04 11.5499 58.14 11.6099 58.14H14.7099C14.7699 58.14 14.8299 58.04 14.8299 57.92C14.8299 57.8 14.7599 57.71 14.7099 57.71H11.6099Z" fill="#231F20"/>
<path d="M7.67 38.1C7.67268 38.1644 7.66265 38.2286 7.64047 38.2891C7.61829 38.3496 7.5844 38.4051 7.54075 38.4525C7.4971 38.4998 7.44453 38.5381 7.38606 38.5652C7.32759 38.5922 7.26437 38.6074 7.2 38.61H5.65C5.58564 38.6127 5.52138 38.6026 5.4609 38.5805C5.40043 38.5583 5.34491 38.5244 5.29755 38.4807C5.25018 38.4371 5.21188 38.3845 5.18485 38.3261C5.15781 38.2676 5.14257 38.2044 5.14 38.14C5.13728 38.0091 5.18603 37.8823 5.27579 37.7869C5.36555 37.6916 5.48914 37.6352 5.62 37.63H7.16C7.22436 37.6273 7.28862 37.6374 7.3491 37.6595C7.40957 37.6817 7.46509 37.7156 7.51246 37.7593C7.55982 37.8029 7.59812 37.8555 7.62515 37.9139C7.65219 37.9724 7.66743 38.0356 7.67 38.1Z" fill="#231F20"/>
<path d="M7.53001 40C7.53269 40.0644 7.52265 40.1286 7.50048 40.1891C7.4783 40.2496 7.44441 40.3051 7.40076 40.3525C7.35711 40.3998 7.30454 40.4381 7.24607 40.4652C7.1876 40.4922 7.12437 40.5074 7.06001 40.51H5.51001C5.3774 40.51 5.25022 40.4573 5.15646 40.3636C5.06269 40.2698 5.01001 40.1426 5.01001 40.01C5.01001 39.8774 5.06269 39.7502 5.15646 39.6565C5.25022 39.5627 5.3774 39.51 5.51001 39.51L7.00001 39.48C7.06437 39.4773 7.12863 39.4874 7.18911 39.5095C7.24958 39.5317 7.3051 39.5656 7.35246 39.6093C7.39983 39.6529 7.43813 39.7055 7.46516 39.7639C7.4922 39.8224 7.50744 39.8856 7.51001 39.95L7.53001 40Z" fill="#231F20"/>
<path d="M7.53001 42C7.53269 42.0644 7.52265 42.1286 7.50048 42.1891C7.4783 42.2496 7.44441 42.3051 7.40076 42.3524C7.35711 42.3998 7.30454 42.4381 7.24607 42.4651C7.1876 42.4922 7.12437 42.5074 7.06001 42.51L5.51001 42.56C5.3774 42.56 5.25022 42.5073 5.15646 42.4135C5.06269 42.3198 5.01001 42.1926 5.01001 42.06C5.01001 41.9274 5.06269 41.8002 5.15646 41.7064C5.25022 41.6127 5.3774 41.56 5.51001 41.56H7.05001C7.11437 41.5573 7.17863 41.5673 7.23911 41.5895C7.29958 41.6117 7.3551 41.6456 7.40246 41.6892C7.44983 41.7329 7.48813 41.7855 7.51516 41.8439C7.5422 41.9024 7.55744 41.9656 7.56001 42.03L7.53001 42Z" fill="#231F20"/>
<path opacity="0.5" d="M19.5501 24.81L13.2701 24.94L8.58008 34.94L15.9201 34.1L19.5501 24.81Z" fill="#E8EFF6"/>
<path d="M16.27 50.73H13C12.7806 50.7265 12.5643 50.6783 12.3642 50.5881C12.1642 50.498 11.9847 50.368 11.8367 50.206C11.6888 50.0439 11.5755 49.8534 11.5038 49.646C11.4322 49.4386 11.4036 49.2188 11.42 49V36.64C11.4151 36.5935 11.4151 36.5465 11.42 36.5L12.92 26C13.0135 25.355 13.3354 24.7649 13.8273 24.3373C14.3192 23.9097 14.9483 23.6729 15.6 23.67H21.4C22.1691 23.67 22.9068 23.9755 23.4506 24.5194C23.9945 25.0633 24.3 25.8009 24.3 26.57V43.44C24.3012 44.0646 24.0638 44.6661 23.6363 45.1215C23.2087 45.5769 22.6235 45.8518 22 45.89C21.1897 45.9307 20.4036 46.1805 19.7184 46.6151C19.0333 47.0497 18.4723 47.6543 18.09 48.37L17.09 50.24C17.0096 50.3875 16.8911 50.5108 16.7469 50.5969C16.6027 50.6831 16.438 50.7291 16.27 50.73ZM15.6 23.73C14.9675 23.7375 14.3584 23.97 13.8819 24.3861C13.4054 24.8021 13.0927 25.3743 13 26L11.5 36.51C11.4947 36.5532 11.4947 36.5968 11.5 36.64V49C11.4837 49.2088 11.51 49.4187 11.5775 49.6169C11.6451 49.8152 11.7523 49.9975 11.8927 50.1529C12.0331 50.3083 12.2037 50.4334 12.3941 50.5206C12.5845 50.6078 12.7907 50.6552 13 50.66H16.24C16.3966 50.6598 16.5501 50.6168 16.684 50.5357C16.8179 50.4547 16.9272 50.3386 17 50.2L18 48.33C18.3855 47.6103 18.9493 47.0015 19.6374 46.562C20.3255 46.1226 21.1149 45.8671 21.93 45.82C22.5438 45.7919 23.1235 45.5294 23.5495 45.0866C23.9756 44.6438 24.2155 44.0545 24.22 43.44V26.58C24.22 25.8295 23.9219 25.1096 23.3911 24.5789C22.8604 24.0482 22.1406 23.75 21.39 23.75L15.6 23.73Z" fill="#231F20"/>
<path d="M56.22 45.16C56.22 45.2847 56.1705 45.4042 56.0824 45.4923C55.9942 45.5805 55.8747 45.63 55.75 45.63H54.5C54.3754 45.63 54.2558 45.5805 54.1677 45.4923C54.0795 45.4042 54.03 45.2847 54.03 45.16C54.03 45.0354 54.0795 44.9158 54.1677 44.8277C54.2558 44.7395 54.3754 44.69 54.5 44.69H55.75C55.8747 44.69 55.9942 44.7395 56.0824 44.8277C56.1705 44.9158 56.22 45.0354 56.22 45.16Z" fill="#FD941A"/>
<path d="M38.0699 20C38.0699 20.1247 38.0204 20.2442 37.9322 20.3323C37.8441 20.4205 37.7246 20.47 37.5999 20.47H36.3499C36.2253 20.47 36.1057 20.4205 36.0176 20.3323C35.9294 20.2442 35.8799 20.1247 35.8799 20C35.8799 19.8753 35.9294 19.7558 36.0176 19.6677C36.1057 19.5795 36.2253 19.53 36.3499 19.53H37.5999C37.7246 19.53 37.8441 19.5795 37.9322 19.6677C38.0204 19.7558 38.0699 19.8753 38.0699 20Z" fill="#FD941A"/>
<path d="M29.8802 20C29.8802 20.1247 29.8306 20.2442 29.7425 20.3323C29.6544 20.4205 29.5348 20.47 29.4102 20.47H28.1602C28.0355 20.47 27.916 20.4205 27.8278 20.3323C27.7397 20.2442 27.6902 20.1247 27.6902 20C27.6902 19.8753 27.7397 19.7558 27.8278 19.6677C27.916 19.5795 28.0355 19.53 28.1602 19.53H29.4102C29.5348 19.53 29.6544 19.5795 29.7425 19.6677C29.8306 19.7558 29.8802 19.8753 29.8802 20Z" fill="#FD941A"/>
<path d="M21.69 20C21.69 20.1247 21.6405 20.2442 21.5524 20.3323C21.4642 20.4205 21.3447 20.47 21.22 20.47H20C19.8754 20.47 19.7558 20.4205 19.6677 20.3323C19.5795 20.2442 19.53 20.1247 19.53 20C19.53 19.8753 19.5795 19.7558 19.6677 19.6677C19.7558 19.5795 19.8754 19.53 20 19.53H21.25C21.3747 19.53 21.4942 19.5795 21.5824 19.6677C21.6705 19.7558 21.72 19.8753 21.72 20H21.69Z" fill="#FD941A"/>
<path d="M13.5101 20C13.5101 20.1247 13.4605 20.2442 13.3724 20.3323C13.2843 20.4205 13.1647 20.47 13.0401 20.47H11.7801C11.6554 20.47 11.5359 20.4205 11.4477 20.3323C11.3596 20.2442 11.3101 20.1247 11.3101 20C11.3101 19.8753 11.3596 19.7558 11.4477 19.6677C11.5359 19.5795 11.6554 19.53 11.7801 19.53H13.0001C13.1247 19.53 13.2443 19.5795 13.3324 19.6677C13.4205 19.7558 13.4701 19.8753 13.4701 20H13.5101Z" fill="#FD941A"/>
<path d="M45.0501 60.29C45.0501 60.4147 45.0006 60.5342 44.9124 60.6223C44.8243 60.7105 44.7047 60.76 44.5801 60.76H43.3301C43.2054 60.76 43.0859 60.7105 42.9977 60.6223C42.9096 60.5342 42.8601 60.4147 42.8601 60.29C42.8601 60.1654 42.9096 60.0458 42.9977 59.9577C43.0859 59.8695 43.2054 59.82 43.3301 59.82H44.5801C44.7047 59.82 44.8243 59.8695 44.9124 59.9577C45.0006 60.0458 45.0501 60.1654 45.0501 60.29Z" fill="#FD941A"/>
<path d="M11.15 60C11.15 60.1247 11.1005 60.2442 11.0123 60.3323C10.9242 60.4205 10.8046 60.47 10.68 60.47H9.42998C9.36319 60.4798 9.29508 60.4751 9.23027 60.4563C9.16546 60.4374 9.10547 60.4048 9.05438 60.3607C9.0033 60.3166 8.96232 60.262 8.93423 60.2006C8.90614 60.1392 8.8916 60.0725 8.8916 60.005C8.8916 59.9375 8.90614 59.8708 8.93423 59.8094C8.96232 59.748 9.0033 59.6934 9.05438 59.6493C9.10547 59.6052 9.16546 59.5726 9.23027 59.5537C9.29508 59.5349 9.36319 59.5302 9.42998 59.54H10.68C10.8029 59.54 10.921 59.5881 11.0088 59.6741C11.0967 59.7601 11.1474 59.8771 11.15 60Z" fill="#FD941A"/>
<path d="M56.75 60.29C56.75 60.4147 56.7005 60.5342 56.6124 60.6223C56.5242 60.7105 56.4047 60.76 56.28 60.76H55C54.8754 60.76 54.7558 60.7105 54.6677 60.6223C54.5795 60.5342 54.53 60.4147 54.53 60.29C54.53 60.1654 54.5795 60.0458 54.6677 59.9577C54.7558 59.8695 54.8754 59.82 55 59.82H56.25C56.3747 59.82 56.4942 59.8695 56.5824 59.9577C56.6705 60.0458 56.72 60.1654 56.72 60.29H56.75Z" fill="#FD941A"/>
<path d="M78.0801 46.75H66.8201V48.35H78.0801V46.75Z" fill="#231F20"/>
<path d="M6.83008 35.16V35.08C11.0001 34.61 20.7501 33.5 21.4501 33.33C21.6972 33.2521 21.9143 33.0998 22.0718 32.8941C22.2292 32.6883 22.3194 32.4389 22.3301 32.18V26.72C22.3301 26.2134 22.1288 25.7276 21.7706 25.3694C21.4124 25.0112 20.9266 24.81 20.4201 24.81L7.13008 25.09V25L20.3801 24.73C20.9105 24.73 21.4192 24.9407 21.7943 25.3158C22.1693 25.6909 22.3801 26.1996 22.3801 26.73V32.19C22.3693 32.4658 22.273 32.7313 22.1046 32.9499C21.9362 33.1685 21.7039 33.3293 21.4401 33.41C20.7701 33.58 11.0001 34.69 6.83008 35.16Z" fill="#231F20"/>
<path d="M29 24.4H36.85C37.1736 24.4 37.4839 24.5285 37.7127 24.7573C37.9415 24.9861 38.07 25.2964 38.07 25.62V31C38.0579 31.2809 37.9416 31.5471 37.7438 31.7468C37.5459 31.9465 37.2807 32.0653 37 32.08L28.81 32.43C28.6422 32.4395 28.4742 32.4148 28.3163 32.3573C28.1583 32.2999 28.0137 32.211 27.8912 32.096C27.7687 31.9809 27.6708 31.8422 27.6036 31.6882C27.5363 31.5341 27.5011 31.3681 27.5 31.2V25.9C27.5 25.5022 27.658 25.1206 27.9393 24.8393C28.2206 24.558 28.6022 24.4 29 24.4Z" fill="#4FCEF6"/>
<path opacity="0.5" d="M29 24.4C28.6022 24.4 28.2206 24.558 27.9393 24.8393C27.658 25.1206 27.5 25.5022 27.5 25.9V31.2C27.5012 31.3663 27.5358 31.5306 27.6019 31.6833C27.6679 31.8359 27.7639 31.9737 27.8843 32.0884C28.0046 32.2032 28.1468 32.2926 28.3024 32.3512C28.458 32.4099 28.6238 32.4367 28.79 32.43H29.41L32.54 24.43L29 24.4Z" fill="#E8EFF6"/>
<path opacity="0.5" d="M37 32.08C37.2807 32.0653 37.5458 31.9466 37.7436 31.7468C37.9415 31.5471 38.0579 31.2809 38.07 31V25.62C38.0694 25.473 38.0423 25.3273 37.99 25.19L34.7 32.19L37 32.08Z" fill="#E8EFF6"/>
<path d="M28.73 32.47C28.3931 32.47 28.0701 32.3362 27.8319 32.098C27.5938 31.8599 27.46 31.5368 27.46 31.2V25.9C27.46 25.6982 27.4999 25.4985 27.5774 25.3122C27.6549 25.1259 27.7685 24.9568 27.9116 24.8146C28.0548 24.6724 28.2246 24.5599 28.4114 24.4836C28.5982 24.4073 28.7982 24.3687 29 24.37H36.85C37.1824 24.37 37.5014 24.5014 37.7374 24.7355C37.9734 24.9696 38.1073 25.2876 38.11 25.62V31C38.0957 31.2907 37.9744 31.5659 37.7695 31.7726C37.5646 31.9794 37.2905 32.1031 37 32.12L28.81 32.47H28.73ZM29 24.47C28.6127 24.47 28.2414 24.6238 27.9676 24.8976C27.6938 25.1714 27.54 25.5428 27.54 25.93V31.23C27.54 31.5456 27.6653 31.8483 27.8885 32.0715C28.1117 32.2946 28.4144 32.42 28.73 32.42H28.78L36.98 32.08C37.2542 32.06 37.511 31.9381 37.6998 31.7382C37.8886 31.5383 37.9957 31.2749 38 31V25.62C38 25.307 37.8756 25.0069 37.6543 24.7856C37.4331 24.5643 37.1329 24.44 36.82 24.44L29 24.47Z" fill="#231F20"/>
<path d="M10.09 33.06C10.09 33.21 9.92005 33.34 9.70005 33.34C9.48005 33.34 9.30005 33.21 9.30005 33.06V24.32C9.30005 24.16 9.48005 24.04 9.70005 24.04C9.92005 24.04 10.09 24.16 10.09 24.32V33.06Z" fill="#231F20"/>
<path d="M9.35987 25.53C9.35987 25.45 9.02987 24.53 8.82987 23.93C8.78175 23.7628 8.76935 23.5874 8.79347 23.4151C8.81759 23.2428 8.87769 23.0775 8.96987 22.93C9.08122 22.8025 9.22312 22.7053 9.38228 22.6476C9.54144 22.5898 9.71266 22.5735 9.87987 22.6C10.8837 22.6096 11.8746 22.8275 12.7899 23.24L12.6999 23.4C11.8084 23.0045 10.8451 22.7968 9.86987 22.79C9.7332 22.7707 9.5939 22.7843 9.46349 22.8295C9.33308 22.8747 9.2153 22.9503 9.11987 23.05C9.0464 23.1756 8.99882 23.3146 8.97992 23.4589C8.96103 23.6031 8.97122 23.7497 9.00987 23.89C9.16987 24.35 9.52987 25.44 9.53987 25.51L9.35987 25.53Z" fill="#231F20"/>
<path d="M13.06 23.33C13.0581 23.3928 13.0376 23.4537 13.0013 23.505C12.965 23.5563 12.9143 23.5957 12.8557 23.6184C12.7971 23.6411 12.7331 23.646 12.6717 23.6326C12.6103 23.6191 12.5542 23.5879 12.5104 23.5428C12.4667 23.4976 12.4372 23.4406 12.4256 23.3788C12.4141 23.3171 12.421 23.2532 12.4454 23.1953C12.4699 23.1375 12.5109 23.0881 12.5633 23.0533C12.6157 23.0186 12.6772 23 12.74 23C12.8249 23 12.9063 23.0337 12.9663 23.0937C13.0263 23.1537 13.06 23.2351 13.06 23.32V23.33Z" fill="#231F20"/>
<path d="M52.43 5.04004H49.05V46.18H52.43V5.04004Z" fill="#7C7C8E"/>
<path d="M58.7899 5.04004H55.4099V46.18H58.7899V5.04004Z" fill="#7C7C8E"/>
<path d="M65.15 5.04004H61.77V46.18H65.15V5.04004Z" fill="#7C7C8E"/>
<path d="M71.5199 5.04004H68.1399V46.18H71.5199V5.04004Z" fill="#7C7C8E"/>
<path d="M77.88 5.04004H74.5V46.18H77.88V5.04004Z" fill="#7C7C8E"/>
<path d="M84.2401 5.04004H80.8601V46.18H84.2401V5.04004Z" fill="#7C7C8E"/>
<path d="M90.6 5.04004H87.22V46.18H90.6V5.04004Z" fill="#7C7C8E"/>
<path opacity="0.3" d="M191.74 46.36V42.84C185.909 43.3058 180.051 43.3058 174.22 42.84C164.22 41.93 140.04 39.34 125.94 40.92C111.84 42.5 105.94 44.53 94.1602 43.92C82.3802 43.31 62.7201 42.1 56.8801 40.17C54.0063 39.1789 51.0518 38.4395 48.05 37.96V46.39L191.74 46.36Z" fill="#EEEEFB"/>
<g opacity="0.3">
<path d="M168.82 6.19L96.2101 43.07L96.0701 43.14L95.9401 43L86.0001 33.88C82.6801 30.88 79.3901 27.75 76.1001 24.68L66.2201 15.46C62.9201 12.39 59.6501 9.28 56.3701 6.18V6.13C59.7101 9.13 63.0501 12.13 66.3701 15.13L76.3701 24.2C79.6901 27.2 83.0201 30.25 86.3701 33.31L96.3001 42.46H96.0301L168.8 6.12L168.82 6.19Z" fill="#EEEEFB"/>
</g>
<g opacity="0.3">
<path d="M174.92 11.1L116.53 40.75L116.41 40.81L116.31 40.72L108.33 33.36L100.38 25.97L92.43 18.55L84.51 11.09L84.54 11.05L92.58 18.31L100.59 25.61L108.6 32.93L116.57 40.29L116.36 40.26L174.9 11.05L174.92 11.1Z" fill="#EEEEFB"/>
</g>
<path d="M55.39 7.16C55.3873 7.28291 55.3367 7.3999 55.2488 7.48589C55.161 7.57188 55.0429 7.62003 54.92 7.62H53.67C53.6032 7.62982 53.5351 7.62514 53.4703 7.60628C53.4054 7.58741 53.3455 7.55481 53.2944 7.51069C53.2433 7.46657 53.2023 7.41196 53.1742 7.35058C53.1461 7.28921 53.1316 7.2225 53.1316 7.155C53.1316 7.0875 53.1461 7.02079 53.1742 6.95941C53.2023 6.89803 53.2433 6.84343 53.2944 6.7993C53.3455 6.75518 53.4054 6.72258 53.4703 6.70372C53.5351 6.68486 53.6032 6.68018 53.67 6.69H54.92C55.0446 6.69 55.1642 6.73952 55.2523 6.82766C55.3404 6.9158 55.39 7.03535 55.39 7.16Z" fill="#FD941A"/>
<path d="M87.2399 7.16C87.2484 7.27094 87.2135 7.38085 87.1427 7.46663C87.0718 7.55241 86.9705 7.60739 86.8599 7.62H85.8599C85.7494 7.60739 85.648 7.55241 85.5772 7.46663C85.5063 7.38085 85.4714 7.27094 85.4799 7.16C85.4687 7.04742 85.5023 6.93496 85.5734 6.84698C85.6446 6.759 85.7475 6.7026 85.8599 6.69H86.8599C86.9724 6.7026 87.0753 6.759 87.1464 6.84698C87.2176 6.93496 87.2512 7.04742 87.2399 7.16Z" fill="#FD941A"/>
</g>
</svg>
