<svg width="86" height="64" viewBox="0 0 86 64" fill="none" xmlns="http://www.w3.org/2000/svg">
<mask id="mask0_2197_4132" style="mask-type:alpha" maskUnits="userSpaceOnUse" x="0" y="0" width="86" height="64">
<rect width="86" height="64" fill="#D9D9D9"/>
</mask>
<g mask="url(#mask0_2197_4132)">
<path d="M6.35258 51.73H5.71258C5.50643 51.7097 5.31649 51.6092 5.18369 51.4502C5.05089 51.2912 4.98585 51.0865 5.00258 50.88V30.57C4.98596 30.3646 5.0513 30.1609 5.18433 30.0035C5.31736 29.8462 5.50727 29.7478 5.71258 29.73H6.35258C6.45386 29.7388 6.55239 29.7675 6.64249 29.8146C6.7326 29.8616 6.81249 29.9261 6.87757 30.0042C6.94265 30.0823 6.99162 30.1725 7.02165 30.2696C7.05169 30.3667 7.0622 30.4688 7.05258 30.57V50.88C7.0721 51.0854 7.00939 51.2903 6.87818 51.4496C6.74698 51.6089 6.55798 51.7097 6.35258 51.73Z" fill="#231F20"/>
<path d="M50.3625 10.35C50.3091 9.72676 50.0194 9.14756 49.5528 8.73107C49.0861 8.31459 48.4778 8.09238 47.8525 8.10998C42.7725 8.24998 26.9225 8.60998 22.8525 9.01998C20.4225 9.25998 18.7925 9.48998 17.7425 9.65998C17.3919 9.72045 17.0623 9.86859 16.7843 10.0906C16.5063 10.3127 16.289 10.6014 16.1525 10.93L9.74249 26.1C8.99429 26.5177 8.203 26.853 7.38249 27.1C6.83268 27.1723 6.32751 27.4408 5.96 27.8561C5.59249 28.2714 5.3874 28.8055 5.38249 29.36C5.34249 34.7 5.30249 48.83 5.30249 48.83C5.30249 48.83 5.30249 49.38 5.30249 50C5.36418 51.1255 5.74484 52.2102 6.40001 53.1275C7.05519 54.0447 7.95782 54.7566 9.00249 55.18C9.79733 55.4787 10.6441 55.6147 11.4925 55.58L18.1925 55.9C18.8435 55.9326 19.4808 55.7056 19.9646 55.2688C20.4483 54.8319 20.7389 54.2209 20.7725 53.57L20.9625 49.57C20.9625 49.42 20.9625 49.27 21.0325 49.11C21.3325 47.88 22.9725 42.32 27.6125 42.26C32.8425 42.19 35.1625 42.19 35.1625 42.19C35.1625 42.19 37.0925 41.94 38.7725 44.58C40.1558 46.4231 40.9032 48.6655 40.9025 50.97C40.9025 51.53 40.9025 52.04 40.9025 52.49C40.9076 52.7981 40.9741 53.1021 41.098 53.3843C41.222 53.6665 41.4009 53.9211 41.6243 54.1334C41.8477 54.3456 42.1112 54.5112 42.3993 54.6205C42.6875 54.7299 42.9945 54.7807 43.3025 54.77L69.8325 54.71L103.592 54.64C107.933 54.64 109.023 52.74 109.023 48.41L108.873 47.21C108.797 46.4518 108.465 45.7419 107.933 45.1968C107.401 44.6517 106.699 44.3037 105.943 44.21C104.744 44.1313 103.541 44.1313 102.342 44.21L51.1625 43.76C49.8625 43.86 51.1625 40.09 51.1625 39.45L51.0825 20.27V20L50.3625 10.35Z" fill="#1E84C6"/>
<path opacity="0.3" d="M11.9326 40.56C23.0726 39 39.7626 38.93 51.2126 39.13V31.53C45.2126 31.53 38.0126 31.45 32.1226 31.46C23.1926 31.46 13.9126 32.75 5.39258 33.55C5.39258 36.14 5.39258 39.18 5.39258 41.86C8.85258 41.63 7.23258 41.22 11.9326 40.56Z" fill="#EEEEFB"/>
<path d="M33.4727 21.71L33.6427 15.45C33.6481 15.1123 33.5856 14.777 33.4588 14.4639C33.3321 14.1509 33.1437 13.8665 32.9049 13.6277C32.6661 13.3889 32.3817 13.2006 32.0687 13.0738C31.7557 12.9471 31.4203 12.8846 31.0827 12.89L22.7827 13.05C22.3011 13.0596 21.8325 13.2082 21.4333 13.4779C21.0342 13.7475 20.7214 14.1268 20.5327 14.57L17.4027 22.11C17.2057 22.5886 17.1634 23.117 17.2817 23.6209C17.4001 24.1248 17.6732 24.5791 18.0627 24.92C18.3242 25.1483 18.6289 25.3217 18.9587 25.4299C19.2885 25.5382 19.6368 25.579 19.9827 25.55L31.2227 24.48C31.8219 24.4242 32.3802 24.1517 32.7926 23.7134C33.2051 23.2752 33.4433 22.7015 33.4627 22.1L33.4727 21.71Z" fill="#4FCEF6"/>
<path opacity="0.5" d="M33.4626 22.1V21.71L33.6326 15.45C33.6491 15.0156 33.5416 14.5856 33.3226 14.21L29.2026 24.67L31.2026 24.48C31.8054 24.4289 32.3685 24.1584 32.7851 23.7197C33.2017 23.281 33.4428 22.7047 33.4626 22.1Z" fill="#E8EFF6"/>
<path opacity="0.5" d="M23.6726 25.2L28.8126 12.94L24.4226 13L19.4226 25.52C19.5923 25.535 19.7629 25.535 19.9326 25.52L23.6726 25.2Z" fill="#E8EFF6"/>
<path d="M106.943 55C106.941 55.1164 106.917 55.2314 106.871 55.3384C106.825 55.4453 106.758 55.542 106.674 55.6229C106.591 55.7039 106.492 55.7674 106.383 55.8098C106.275 55.8522 106.159 55.8726 106.043 55.87H42.2827C42.16 55.8831 42.0358 55.8703 41.9183 55.8323C41.8009 55.7943 41.6927 55.7321 41.6009 55.6495C41.509 55.567 41.4356 55.4661 41.3853 55.3533C41.335 55.2405 41.3091 55.1185 41.3091 54.995C41.3091 54.8715 41.335 54.7494 41.3853 54.6367C41.4356 54.5239 41.509 54.423 41.6009 54.3405C41.6927 54.2579 41.8009 54.1957 41.9183 54.1577C42.0358 54.1197 42.16 54.1068 42.2827 54.12H106.003C106.12 54.1187 106.236 54.1404 106.344 54.1839C106.452 54.2274 106.551 54.2919 106.635 54.3736C106.718 54.4553 106.785 54.5527 106.831 54.6602C106.877 54.7676 106.901 54.8831 106.903 55H106.943Z" fill="#111010"/>
<path d="M43.3727 54.73C42.7564 54.7407 42.161 54.5068 41.7168 54.0795C41.2726 53.6522 41.0158 53.0662 41.0027 52.45C41.0027 52 41.0027 51.45 41.0027 50.93C41.0034 48.6256 40.2559 46.3832 38.8727 44.54C37.1927 41.9 35.2627 42.15 35.2627 42.15C35.2627 42.15 32.9427 42.15 27.7127 42.22C23.0527 42.28 21.4227 47.88 21.1227 49.09C21.0923 49.2317 21.0723 49.3754 21.0627 49.52L20.8627 53.69C20.816 54.0518 20.694 54.3999 20.5045 54.7116C20.3151 55.0234 20.0623 55.2919 19.7627 55.5L43.7627 54.73H43.3727Z" fill="#111010"/>
<path d="M91.5226 44.08L82.6326 44.02L82.7326 42.33H91.5226V44.08Z" fill="#231F20"/>
<path d="M5.38257 30.62V30.53C10.4251 29.5469 15.5314 28.9253 20.6626 28.67C27.1226 28.54 50.9826 28.67 51.2226 28.67V28.76C50.9826 28.76 27.1226 28.66 20.6626 28.76C15.5312 29.0128 10.4247 29.6344 5.38257 30.62Z" fill="#231F20"/>
<path d="M5.38257 31.89V31.79C10.4265 30.8178 15.5323 30.1996 20.6626 29.94C27.1226 29.81 50.9826 29.94 51.2226 29.94V30C50.9826 30 27.1226 29.9 20.6626 30C15.5308 30.266 10.4245 30.8976 5.38257 31.89Z" fill="#231F20"/>
<path d="M32.5027 29.28C32.5001 29.3418 32.4854 29.4024 32.4594 29.4584C32.4333 29.5145 32.3965 29.5648 32.351 29.6066C32.3055 29.6484 32.2522 29.6808 32.1941 29.702C32.1361 29.7232 32.0744 29.7327 32.0127 29.73H29.2127C29.1486 29.7396 29.0833 29.7353 29.0211 29.7174C28.9589 29.6995 28.9013 29.6683 28.8522 29.6261C28.8031 29.5838 28.7637 29.5315 28.7367 29.4726C28.7098 29.4138 28.6958 29.3498 28.6958 29.285C28.6958 29.2203 28.7098 29.1563 28.7367 29.0974C28.7637 29.0386 28.8031 28.9862 28.8522 28.944C28.9013 28.9017 28.9589 28.8706 29.0211 28.8526C29.0833 28.8347 29.1486 28.8304 29.2127 28.84H32.0027C32.1257 28.8345 32.246 28.8776 32.3376 28.9599C32.4293 29.0421 32.4849 29.1571 32.4927 29.28H32.5027Z" fill="#231F20"/>
<path d="M18.7625 53.51H13.5925C13.4225 53.51 13.2825 53.31 13.2825 53.06C13.2825 52.81 13.4225 52.62 13.5925 52.62H18.7625C18.9425 52.62 19.0725 52.81 19.0725 53.06C19.0725 53.31 18.9425 53.51 18.7625 53.51ZM13.5925 52.73C13.4825 52.73 13.3925 52.88 13.3925 53.06C13.3925 53.24 13.4825 53.4 13.5925 53.4H18.7625C18.8725 53.4 18.9725 53.25 18.9725 53.06C18.9725 52.87 18.8725 52.73 18.7625 52.73H13.5925Z" fill="#231F20"/>
<path d="M18.9326 49.43H13.7626C13.5926 49.43 13.4526 49.23 13.4526 48.98C13.4526 48.73 13.5926 48.53 13.7626 48.53H18.9326C19.1126 48.53 19.2426 48.73 19.2426 48.98C19.2426 49.23 19.1126 49.43 18.9326 49.43ZM13.7626 48.64C13.6526 48.64 13.5626 48.8 13.5626 48.98C13.5626 49.16 13.6526 49.32 13.7626 49.32H18.9326C19.0426 49.32 19.1326 49.16 19.1326 48.98C19.1326 48.8 19.0426 48.64 18.9326 48.64H13.7626Z" fill="#231F20"/>
<path d="M60.2526 44.99H49.4126C48.2914 44.99 47.3826 45.8989 47.3826 47.02V51.54C47.3826 52.6611 48.2914 53.57 49.4126 53.57H60.2526C61.3737 53.57 62.2826 52.6611 62.2826 51.54V47.02C62.2826 45.8989 61.3737 44.99 60.2526 44.99Z" fill="#231F20"/>
<path d="M30.8127 61.72C35.8108 61.72 39.8627 57.6682 39.8627 52.67C39.8627 47.6718 35.8108 43.62 30.8127 43.62C25.8145 43.62 21.7627 47.6718 21.7627 52.67C21.7627 57.6682 25.8145 61.72 30.8127 61.72Z" fill="#231F20"/>
<path d="M36.2725 52.67C36.2725 53.7499 35.9523 54.8055 35.3524 55.7034C34.7524 56.6013 33.8997 57.3012 32.902 57.7144C31.9043 58.1277 30.8065 58.2358 29.7473 58.0251C28.6882 57.8144 27.7153 57.2944 26.9517 56.5308C26.1881 55.7672 25.6681 54.7944 25.4575 53.7352C25.2468 52.6761 25.3549 51.5783 25.7682 50.5806C26.1814 49.5829 26.8812 48.7302 27.7791 48.1302C28.677 47.5302 29.7327 47.21 30.8125 47.21C32.2606 47.21 33.6494 47.7853 34.6733 48.8092C35.6973 49.8332 36.2725 51.2219 36.2725 52.67Z" fill="#A2A7B0"/>
<path d="M32.3626 52.94C32.2526 52.94 32.1626 52.85 32.1626 52.79C32.1626 52.73 32.2726 52.67 32.3926 52.67H34.8126C34.9226 52.67 35.0026 52.83 34.9826 53.03C34.9626 53.23 34.8526 53.37 34.7426 53.35L32.3626 52.94Z" fill="#231F20"/>
<path d="M31.3924 52.77C31.3352 52.7624 31.2805 52.7419 31.2324 52.71C31.2324 52.71 31.3124 52.71 31.4024 52.71C31.4924 52.71 31.5724 52.71 31.5624 52.77C31.5524 52.83 31.4824 52.78 31.3924 52.77Z" fill="#231F20"/>
<path d="M32.1327 53.52C32.0427 53.46 31.9827 53.36 32.0127 53.31C32.0427 53.26 32.1627 53.24 32.2627 53.31L34.4927 54.25C34.6027 54.25 34.6127 54.47 34.4927 54.65C34.3727 54.83 34.2327 54.92 34.1427 54.85L32.1327 53.52Z" fill="#231F20"/>
<path d="M31.3126 53C31.2426 53 31.1726 52.9 31.1826 52.89C31.242 52.8781 31.3032 52.8781 31.3626 52.89C31.4426 52.89 31.4926 52.98 31.4826 53C31.4726 53.02 31.3926 53 31.3126 53Z" fill="#231F20"/>
<path d="M32.0027 53.74C31.9227 53.66 31.8927 53.55 31.9327 53.5C31.9727 53.45 32.0827 53.5 32.1727 53.5L34.1727 54.81C34.2727 54.88 34.2627 55.06 34.1727 55.21C34.0827 55.36 33.8727 55.43 33.7927 55.35L32.0027 53.74Z" fill="#231F20"/>
<path d="M31.2526 53.07C31.1826 53 31.1326 52.94 31.1426 52.93C31.1526 52.92 31.2326 52.93 31.3126 53C31.3926 53.07 31.4326 53.11 31.4126 53.13C31.3926 53.15 31.3226 53.13 31.2526 53.07Z" fill="#231F20"/>
<path d="M31.4624 54.1C31.4624 54 31.4624 53.89 31.4624 53.86C31.4624 53.83 31.6224 53.86 31.6824 53.97L33.0524 55.97C33.1124 56.07 33.0524 56.22 32.8524 56.32C32.6524 56.42 32.4924 56.41 32.4524 56.32L31.4624 54.1Z" fill="#231F20"/>
<path d="M31.0626 53.21C31.0626 53.12 31.0026 53.05 31.0626 53.04C31.1226 53.03 31.1326 53.1 31.1926 53.17C31.2526 53.24 31.2626 53.32 31.1926 53.33C31.1226 53.34 31.1026 53.29 31.0626 53.21Z" fill="#231F20"/>
<path d="M31.2124 54.19C31.2124 54.08 31.2124 53.97 31.2724 53.96C31.3324 53.95 31.4124 53.96 31.4624 54.1L32.4624 56.3C32.5124 56.41 32.4024 56.57 32.2124 56.62C32.0224 56.67 31.8424 56.62 31.8124 56.53L31.2124 54.19Z" fill="#231F20"/>
<path d="M31.0025 53.24C30.9855 53.1846 30.9855 53.1254 31.0025 53.07C31.0025 53.07 31.0625 53.14 31.1025 53.22C31.1425 53.3 31.1025 53.38 31.1025 53.39C31.1025 53.4 31.0025 53.33 31.0025 53.24Z" fill="#231F20"/>
<path d="M30.5825 54.23C30.5825 54.11 30.6725 54.03 30.7325 54.03C30.7709 54.0495 30.8027 54.0797 30.824 54.1171C30.8453 54.1544 30.8552 54.1971 30.8525 54.24L30.9225 56.66C30.9225 56.78 30.7725 56.88 30.5725 56.86C30.3725 56.84 30.2225 56.73 30.2425 56.62L30.5825 54.23Z" fill="#231F20"/>
<path d="M30.7326 53.26C30.7326 53.17 30.7326 53.09 30.7826 53.1C30.8326 53.11 30.7826 53.18 30.7826 53.27C30.7826 53.36 30.7826 53.44 30.7226 53.43C30.6626 53.42 30.7226 53.35 30.7326 53.26Z" fill="#231F20"/>
<path d="M30.3224 54.16C30.3224 54.06 30.4424 53.98 30.5024 54C30.5392 54.0242 30.567 54.0598 30.5815 54.1014C30.5959 54.143 30.5963 54.1882 30.5824 54.23L30.2424 56.62C30.2424 56.73 30.0524 56.82 29.8624 56.76C29.6724 56.7 29.5424 56.57 29.5724 56.46L30.3224 54.16Z" fill="#231F20"/>
<path d="M30.6325 53.24C30.6325 53.15 30.7025 53.08 30.7125 53.09C30.7295 53.1454 30.7295 53.2046 30.7125 53.26C30.7125 53.34 30.6625 53.43 30.6325 53.42C30.6111 53.3619 30.6111 53.2981 30.6325 53.24Z" fill="#231F20"/>
<path d="M29.7827 53.86C29.8627 53.77 29.9627 53.74 30.0027 53.78C30.0427 53.82 30.0627 53.91 30.0027 54.02L28.7527 56.09C28.6983 56.1444 28.6246 56.1749 28.5477 56.1749C28.4708 56.1749 28.3971 56.1444 28.3427 56.09C28.1827 55.97 28.1227 55.79 28.1927 55.71L29.7827 53.86Z" fill="#231F20"/>
<path d="M30.4326 53.12C30.4926 53.06 30.5526 53.01 30.5626 53.02C30.5507 53.0777 30.5269 53.1322 30.4926 53.18C30.4926 53.25 30.3826 53.32 30.3626 53.29C30.3426 53.26 30.3726 53.2 30.4326 53.12Z" fill="#231F20"/>
<path d="M29.5926 53.66C29.6826 53.59 29.7926 53.58 29.8226 53.66C29.8526 53.74 29.8226 53.8 29.8226 53.89L28.2326 55.72C28.1626 55.8 27.9726 55.77 27.8326 55.63C27.6926 55.49 27.6726 55.3 27.7626 55.23L29.5926 53.66Z" fill="#231F20"/>
<path d="M30.3624 53.05C30.4324 52.99 30.4924 52.96 30.5024 52.97C30.5124 52.98 30.5024 53.04 30.4124 53.11C30.3224 53.18 30.2824 53.23 30.2624 53.21C30.2424 53.19 30.2824 53.11 30.3624 53.05Z" fill="#231F20"/>
<path d="M29.3025 53.11C29.4125 53.11 29.5225 53.11 29.5325 53.17C29.5331 53.2112 29.5209 53.2516 29.4976 53.2856C29.4743 53.3196 29.4411 53.3456 29.4025 53.36L27.2325 54.43C27.1325 54.43 26.9625 54.43 26.8925 54.2C26.8225 53.97 26.8925 53.83 26.9825 53.8L29.3025 53.11Z" fill="#231F20"/>
<path d="M30.2426 52.85C30.3326 52.85 30.4126 52.85 30.4126 52.85C30.4126 52.85 30.3626 52.9 30.2726 52.94C30.1826 52.98 30.0926 53 30.1026 52.94C30.1126 52.88 30.1626 52.87 30.2426 52.85Z" fill="#231F20"/>
<path d="M29.2524 52.85C29.3624 52.85 29.4624 52.85 29.4624 52.95C29.4624 53.05 29.4124 53.08 29.3024 53.11L27.0024 53.8C26.8924 53.8 26.7524 53.7 26.7124 53.5C26.6724 53.3 26.7124 53.14 26.8724 53.12L29.2524 52.85Z" fill="#231F20"/>
<path d="M30.2226 52.75C30.3126 52.75 30.3926 52.75 30.3826 52.75C30.3726 52.75 30.3326 52.75 30.2426 52.82C30.1526 52.89 30.0726 52.82 30.0626 52.82C30.0526 52.82 30.1326 52.76 30.2226 52.75Z" fill="#231F20"/>
<path d="M29.3027 52.23C29.4127 52.23 29.4827 52.34 29.4627 52.4C29.4427 52.46 29.3627 52.5 29.2527 52.49L26.8527 52.22C26.7327 52.22 26.6627 52.04 26.6927 51.84C26.7227 51.64 26.8727 51.52 26.9827 51.55L29.3027 52.23Z" fill="#231F20"/>
<path d="M30.2425 52.51C30.3325 52.51 30.3925 52.57 30.3825 52.58C30.3725 52.59 30.3125 52.58 30.2225 52.58C30.1325 52.58 30.0625 52.58 30.0625 52.51C30.0625 52.44 30.1525 52.49 30.2425 52.51Z" fill="#231F20"/>
<path d="M29.4026 52C29.4429 52.015 29.4773 52.0425 29.5007 52.0785C29.5241 52.1145 29.5353 52.1571 29.5326 52.2C29.5326 52.26 29.4126 52.28 29.3026 52.2L27.0026 51.55C26.8926 51.55 26.8526 51.34 26.9126 51.15C26.9726 50.96 27.1526 50.86 27.2526 50.91L29.4026 52Z" fill="#231F20"/>
<path d="M30.2725 52.42C30.328 52.4389 30.3766 52.4737 30.4125 52.52H30.2425C30.1625 52.52 30.0925 52.45 30.1025 52.42C30.1125 52.39 30.1925 52.38 30.2725 52.42Z" fill="#231F20"/>
<path d="M29.7826 51.49C29.8626 51.58 29.8726 51.67 29.7826 51.72C29.6926 51.77 29.6426 51.72 29.5526 51.72L27.6826 50.19C27.5926 50.12 27.6226 49.93 27.7526 49.78C27.8826 49.63 28.0826 49.61 28.1526 49.7L29.7826 51.49Z" fill="#231F20"/>
<path d="M30.4125 52.23C30.4825 52.3 30.5125 52.36 30.5025 52.37C30.4925 52.38 30.4325 52.37 30.3625 52.29C30.2925 52.21 30.2425 52.17 30.2625 52.14C30.2825 52.11 30.3525 52.16 30.4125 52.23Z" fill="#231F20"/>
<path d="M30.0026 51.33C30.0302 51.3639 30.0452 51.4063 30.0452 51.45C30.0452 51.4937 30.0302 51.5361 30.0026 51.57C30.0026 51.57 29.8626 51.57 29.7826 51.49L28.1926 49.66C28.1226 49.57 28.1926 49.4 28.3426 49.28C28.4926 49.16 28.6926 49.16 28.7526 49.28L30.0026 51.33Z" fill="#231F20"/>
<path d="M30.4926 52.17C30.5269 52.2178 30.5507 52.2724 30.5626 52.33C30.5626 52.33 30.4926 52.33 30.4326 52.22C30.3726 52.11 30.3426 52.08 30.3626 52.06C30.3826 52.04 30.4526 52.09 30.4926 52.17Z" fill="#231F20"/>
<path d="M30.5825 51.12C30.5825 51.24 30.5825 51.32 30.5025 51.34C30.4225 51.36 30.3625 51.29 30.3225 51.18L29.5725 48.88C29.5725 48.77 29.6625 48.63 29.8625 48.58C30.0625 48.53 30.2325 48.58 30.2425 48.72L30.5825 51.12Z" fill="#231F20"/>
<path d="M30.7127 52.09C30.7302 52.1419 30.7302 52.1981 30.7127 52.25C30.7127 52.25 30.6627 52.25 30.6327 52.11C30.6027 51.97 30.6327 51.94 30.6327 51.93C30.6327 51.92 30.7027 52 30.7127 52.09Z" fill="#231F20"/>
<path d="M30.8527 51.1C30.8527 51.21 30.7927 51.3 30.7327 51.31C30.6727 51.32 30.6027 51.23 30.5827 51.12L30.2427 48.72C30.2427 48.61 30.3727 48.5 30.5727 48.48C30.7727 48.46 30.9327 48.57 30.9227 48.68L30.8527 51.1Z" fill="#231F20"/>
<path d="M30.8227 52.07C30.8227 52.16 30.8227 52.24 30.8227 52.25C30.7912 52.2025 30.7738 52.147 30.7727 52.09C30.7727 52 30.7727 51.92 30.7727 51.91C30.7727 51.9 30.8227 52 30.8227 52.07Z" fill="#231F20"/>
<path d="M31.4627 51.24C31.4127 51.34 31.3327 51.4 31.2727 51.39C31.2127 51.38 31.1827 51.26 31.2127 51.15L31.8227 48.81C31.8227 48.7 32.0327 48.66 32.2227 48.72C32.4127 48.78 32.5227 48.93 32.4727 49.04L31.4627 51.24Z" fill="#231F20"/>
<path d="M31.0527 52.12C31.0527 52.2 30.9727 52.27 30.9527 52.27C30.9357 52.2146 30.9357 52.1554 30.9527 52.1C30.9527 52.01 31.0127 51.95 31.0427 51.96C31.0727 51.97 31.0927 52 31.0527 52.12Z" fill="#231F20"/>
<path d="M31.7025 51.37C31.6425 51.46 31.5325 51.52 31.4825 51.49C31.4325 51.46 31.4225 51.34 31.4825 51.24L32.4825 49.04C32.4825 48.94 32.7125 48.92 32.8825 49.04C33.0525 49.16 33.1425 49.3 33.0825 49.39L31.7025 51.37Z" fill="#231F20"/>
<path d="M31.1425 52.17C31.0825 52.25 31.0325 52.31 31.0125 52.3C30.9994 52.2475 30.9994 52.1925 31.0125 52.14C31.0125 52.05 31.1025 52 31.1325 52.01C31.1625 52.02 31.1925 52.1 31.1425 52.17Z" fill="#231F20"/>
<path d="M32.1326 51.82C32.0426 51.88 31.9326 51.89 31.8926 51.82C31.8526 51.75 31.8926 51.67 31.9626 51.59L33.7526 50C33.8326 49.92 34.0026 50 34.1326 50.14C34.2626 50.28 34.2726 50.48 34.1326 50.54L32.1326 51.82Z" fill="#231F20"/>
<path d="M31.3126 52.34C31.2326 52.34 31.1626 52.43 31.1426 52.41C31.1226 52.39 31.1426 52.34 31.2526 52.28C31.3626 52.22 31.3926 52.19 31.4126 52.21C31.4326 52.23 31.3926 52.29 31.3126 52.34Z" fill="#231F20"/>
<path d="M32.2625 52.06C32.1625 52.06 32.0425 52.06 32.0125 52.06C31.9825 52.06 32.0125 51.9 32.1325 51.84L34.1325 50.53C34.2225 50.47 34.3825 50.53 34.4825 50.73C34.5825 50.93 34.5625 51.09 34.4825 51.14L32.2625 52.06Z" fill="#231F20"/>
<path d="M31.3626 52.43C31.3035 52.4444 31.2418 52.4444 31.1826 52.43C31.1826 52.43 31.2426 52.36 31.3126 52.31C31.3826 52.26 31.4626 52.24 31.4826 52.31C31.5026 52.38 31.4426 52.4 31.3626 52.43Z" fill="#231F20"/>
<path d="M32.3926 52.67C32.2726 52.67 32.1726 52.62 32.1626 52.56C32.1526 52.5 32.2526 52.42 32.3626 52.4L34.7426 52C34.8526 52 34.9726 52.12 34.9826 52.32C34.9926 52.52 34.9226 52.68 34.8126 52.68L32.3926 52.67Z" fill="#231F20"/>
<path d="M31.4024 52.66C31.3464 52.6718 31.2885 52.6718 31.2324 52.66C31.2324 52.66 31.3024 52.66 31.3924 52.6C31.4824 52.54 31.5624 52.6 31.5624 52.6C31.5624 52.6 31.5024 52.66 31.4024 52.66Z" fill="#231F20"/>
<path d="M76.6626 61.72C81.6607 61.72 85.7126 57.6682 85.7126 52.67C85.7126 47.6718 81.6607 43.62 76.6626 43.62C71.6644 43.62 67.6125 47.6718 67.6125 52.67C67.6125 57.6682 71.6644 61.72 76.6626 61.72Z" fill="#231F20"/>
<path d="M82.1226 52.67C82.1226 53.7499 81.8024 54.8055 81.2024 55.7034C80.6025 56.6013 79.7498 57.3011 78.7521 57.7144C77.7544 58.1276 76.6566 58.2357 75.5974 58.0251C74.5383 57.8144 73.5654 57.2944 72.8018 56.5308C72.0382 55.7672 71.5182 54.7943 71.3075 53.7352C71.0969 52.676 71.205 51.5782 71.6182 50.5805C72.0315 49.5828 72.7313 48.7301 73.6292 48.1301C74.5271 47.5302 75.5827 47.21 76.6626 47.21C77.38 47.2087 78.0906 47.349 78.7536 47.6229C79.4167 47.8968 80.0191 48.299 80.5264 48.8062C81.0336 49.3135 81.4358 49.9159 81.7097 50.579C81.9836 51.242 82.1239 51.9526 82.1226 52.67Z" fill="#A2A7B0"/>
<path d="M78.2125 52.94C78.1025 52.94 78.0125 52.85 78.0225 52.79C78.0325 52.73 78.1325 52.67 78.2425 52.67H80.6625C80.7725 52.67 80.8625 52.83 80.8425 53.03C80.8225 53.23 80.7125 53.37 80.5925 53.35L78.2125 52.94Z" fill="#231F20"/>
<path d="M77.2525 52.77C77.1925 52.7614 77.1347 52.741 77.0825 52.71C77.0825 52.71 77.1725 52.71 77.2625 52.71C77.3525 52.71 77.4225 52.71 77.4125 52.77C77.4025 52.83 77.3425 52.78 77.2525 52.77Z" fill="#231F20"/>
<path d="M78.0025 53.52C77.9025 53.46 77.8524 53.36 77.8824 53.31C77.9124 53.26 78.0224 53.24 78.1324 53.31L80.3524 54.25C80.4624 54.25 80.4824 54.47 80.3524 54.65C80.2224 54.83 80.0925 54.92 80.0025 54.85L78.0025 53.52Z" fill="#231F20"/>
<path d="M77.1726 53C77.0926 53 77.0326 52.9 77.0426 52.89H77.2126C77.2926 52.89 77.3526 52.98 77.3326 53C77.3126 53.02 77.2426 53 77.1726 53Z" fill="#231F20"/>
<path d="M77.8225 53.74C77.7425 53.66 77.7025 53.55 77.7425 53.5C77.7805 53.478 77.8236 53.4665 77.8675 53.4665C77.9114 53.4665 77.9545 53.478 77.9925 53.5L79.9925 54.81C80.0925 54.88 80.0825 55.06 79.9925 55.21C79.9025 55.36 79.6925 55.43 79.6125 55.35L77.8225 53.74Z" fill="#231F20"/>
<path d="M77.1027 53.07C77.0027 53 77.0027 52.94 77.0027 52.93C77.0027 52.92 77.0927 52.93 77.1627 53C77.2327 53.07 77.2827 53.11 77.2627 53.13C77.2427 53.15 77.1727 53.13 77.1027 53.07Z" fill="#231F20"/>
<path d="M77.3125 54.1C77.3125 54 77.3125 53.89 77.3125 53.86C77.3125 53.83 77.4725 53.86 77.5325 53.97L78.9025 55.97C78.9725 56.07 78.9025 56.22 78.7125 56.32C78.5225 56.42 78.3525 56.41 78.3025 56.32L77.3125 54.1Z" fill="#231F20"/>
<path d="M76.9227 53.21C76.9227 53.12 76.8527 53.05 76.9227 53.04C76.9698 53.0761 77.0104 53.1201 77.0427 53.17C77.0927 53.25 77.1127 53.32 77.0427 53.33C76.9727 53.34 77.0027 53.29 76.9227 53.21Z" fill="#231F20"/>
<path d="M77.0625 54.19C77.0625 54.08 77.0625 53.97 77.1225 53.96C77.165 53.9602 77.2062 53.9738 77.2404 53.999C77.2745 54.0242 77.2998 54.0596 77.3125 54.1L78.3125 56.3C78.3625 56.41 78.2525 56.57 78.0625 56.62C77.8725 56.67 77.6925 56.62 77.6625 56.53L77.0625 54.19Z" fill="#231F20"/>
<path d="M76.8227 53.24C76.8114 53.1839 76.8114 53.1261 76.8227 53.07C76.8227 53.07 76.8827 53.14 76.9227 53.22C76.9627 53.3 76.9227 53.38 76.9227 53.39C76.9227 53.4 76.8427 53.33 76.8227 53.24Z" fill="#231F20"/>
<path d="M76.4426 54.23C76.4426 54.11 76.5225 54.03 76.5825 54.03C76.6227 54.048 76.6566 54.0776 76.6798 54.1151C76.703 54.1525 76.7144 54.196 76.7125 54.24L76.7825 56.66C76.7825 56.78 76.6225 56.88 76.4225 56.86C76.2225 56.84 76.0825 56.73 76.0925 56.62L76.4426 54.23Z" fill="#231F20"/>
<path d="M76.5926 53.26C76.5926 53.17 76.5926 53.09 76.5926 53.1C76.607 53.1557 76.607 53.2142 76.5926 53.27C76.5926 53.37 76.5926 53.44 76.5926 53.43C76.5926 53.42 76.5726 53.35 76.5926 53.26Z" fill="#231F20"/>
<path d="M76.1825 54.16C76.1825 54.06 76.2925 53.98 76.3525 54C76.3888 54.0249 76.4168 54.0601 76.4329 54.1011C76.4489 54.1422 76.4523 54.187 76.4425 54.23L76.0925 56.62C76.0925 56.73 75.9025 56.82 75.7125 56.76C75.5225 56.7 75.3925 56.57 75.4325 56.46L76.1825 54.16Z" fill="#231F20"/>
<path d="M76.4927 53.24C76.4927 53.15 76.5527 53.08 76.5627 53.09C76.5766 53.1458 76.5766 53.2042 76.5627 53.26C76.5627 53.34 76.5027 53.43 76.4827 53.42C76.4627 53.41 76.4627 53.32 76.4927 53.24Z" fill="#231F20"/>
<path d="M75.6326 53.86C75.7126 53.77 75.8126 53.74 75.8626 53.78C75.8871 53.8152 75.9003 53.8571 75.9003 53.9C75.9003 53.9429 75.8871 53.9848 75.8626 54.02L74.6026 56.09C74.6026 56.18 74.3526 56.2 74.1926 56.09C74.0326 55.98 73.9726 55.79 74.0526 55.71L75.6326 53.86Z" fill="#231F20"/>
<path d="M76.2827 53.12C76.3427 53.06 76.4027 53.01 76.4127 53.02C76.4227 53.03 76.4127 53.1 76.3527 53.18C76.2927 53.26 76.2327 53.32 76.2127 53.29C76.1927 53.26 76.2227 53.2 76.2827 53.12Z" fill="#231F20"/>
<path d="M75.4524 53.66C75.5424 53.59 75.6424 53.58 75.6824 53.66C75.7224 53.74 75.6824 53.8 75.6324 53.89L74.0524 55.72C73.9824 55.8 73.7924 55.77 73.6524 55.63C73.5124 55.49 73.4824 55.3 73.5724 55.23L75.4524 53.66Z" fill="#231F20"/>
<path d="M76.2126 53.05C76.2826 52.99 76.3526 52.96 76.3526 52.97C76.3526 52.98 76.3526 53.04 76.2726 53.11C76.1926 53.18 76.1326 53.23 76.1126 53.21C76.0926 53.19 76.1426 53.11 76.2126 53.05Z" fill="#231F20"/>
<path d="M75.1624 53.11C75.2724 53.11 75.3724 53.11 75.3924 53.17C75.4124 53.23 75.3924 53.31 75.2524 53.36L73.0824 54.43C72.9924 54.43 72.8124 54.43 72.7524 54.2C72.6924 53.97 72.7524 53.83 72.8324 53.8L75.1624 53.11Z" fill="#231F20"/>
<path d="M76.1027 52.85C76.1927 52.85 76.2627 52.85 76.2627 52.85C76.2627 52.85 76.2127 52.9 76.1227 52.94C76.0327 52.98 76.0027 53 76.0027 53C76.0027 53 76.0027 52.87 76.1027 52.85Z" fill="#231F20"/>
<path d="M75.1025 52.85C75.2225 52.85 75.3125 52.85 75.3225 52.95C75.3325 53.05 75.3225 53.08 75.1625 53.11L72.8325 53.8C72.7325 53.8 72.5925 53.7 72.5425 53.5C72.4925 53.3 72.5425 53.14 72.7025 53.12L75.1025 52.85Z" fill="#231F20"/>
<path d="M76.0826 52.75C76.1726 52.75 76.2426 52.75 76.2426 52.75C76.2426 52.75 76.1826 52.75 76.0926 52.82C76.0026 52.89 75.9226 52.82 75.9126 52.82C75.9026 52.82 76.0026 52.76 76.0826 52.75Z" fill="#231F20"/>
<path d="M75.1625 52.23C75.2725 52.23 75.3425 52.34 75.3225 52.4C75.3025 52.46 75.2225 52.5 75.1025 52.49L72.7025 52.22C72.5925 52.22 72.5125 52.04 72.5425 51.84C72.5725 51.64 72.7325 51.52 72.8325 51.55L75.1625 52.23Z" fill="#231F20"/>
<path d="M76.0926 52.51C76.1826 52.51 76.2526 52.57 76.2426 52.58C76.2326 52.59 76.1726 52.58 76.0826 52.58C75.9926 52.58 75.9126 52.58 75.9126 52.51C75.9126 52.44 76.0026 52.49 76.0926 52.51Z" fill="#231F20"/>
<path d="M75.2526 52C75.2947 52.0132 75.3313 52.04 75.3567 52.0761C75.382 52.1123 75.3946 52.1559 75.3926 52.2C75.3926 52.26 75.2726 52.28 75.1626 52.2L72.8326 51.52C72.7226 51.52 72.6826 51.31 72.7526 51.12C72.8226 50.93 72.9926 50.83 73.0826 50.88L75.2526 52Z" fill="#231F20"/>
<path d="M76.1226 52.42C76.178 52.4389 76.2267 52.4737 76.2626 52.52H76.1026C76.0126 52.52 75.9426 52.45 75.9526 52.42C75.9626 52.39 76.0026 52.38 76.1226 52.42Z" fill="#231F20"/>
<path d="M75.6327 51.49C75.7127 51.58 75.7227 51.67 75.6827 51.72C75.6427 51.77 75.5427 51.72 75.4527 51.72L73.5727 50.19C73.4827 50.12 73.5727 49.93 73.6527 49.78C73.7327 49.63 73.9827 49.61 74.0527 49.7L75.6327 51.49Z" fill="#231F20"/>
<path d="M76.2726 52.23C76.3326 52.3 76.3626 52.36 76.3526 52.37C76.3426 52.38 76.2826 52.37 76.2126 52.29C76.1426 52.21 76.1026 52.17 76.1126 52.14C76.1226 52.11 76.2126 52.16 76.2726 52.23Z" fill="#231F20"/>
<path d="M75.8525 51.33C75.877 51.3652 75.8902 51.4071 75.8902 51.45C75.8902 51.4929 75.877 51.5348 75.8525 51.57C75.8525 51.57 75.7025 51.57 75.6225 51.49L74.0425 49.66C73.9625 49.57 74.0425 49.4 74.1825 49.28C74.3225 49.16 74.5425 49.16 74.5925 49.28L75.8525 51.33Z" fill="#231F20"/>
<path d="M76.3527 52.17C76.4027 52.25 76.4227 52.31 76.4127 52.33C76.4027 52.35 76.3427 52.33 76.2827 52.22C76.2227 52.11 76.1927 52.08 76.2127 52.06C76.2327 52.04 76.3027 52.09 76.3527 52.17Z" fill="#231F20"/>
<path d="M76.4426 51.12C76.4426 51.24 76.4426 51.32 76.3526 51.34C76.2626 51.36 76.2126 51.29 76.1826 51.18L75.4326 48.88C75.4326 48.77 75.5226 48.63 75.7126 48.58C75.9026 48.53 76.0826 48.58 76.0926 48.72L76.4426 51.12Z" fill="#231F20"/>
<path d="M76.5725 52.09C76.587 52.1423 76.587 52.1976 76.5725 52.25C76.5725 52.25 76.5725 52.25 76.5025 52.11C76.4325 51.97 76.5025 51.94 76.5025 51.93C76.5025 51.92 76.5525 52 76.5725 52.09Z" fill="#231F20"/>
<path d="M76.7125 51.1C76.7125 51.21 76.6525 51.3 76.5825 51.31C76.5125 51.32 76.4525 51.23 76.4425 51.12L76.0925 48.72C76.0925 48.61 76.2225 48.5 76.4225 48.48C76.6225 48.46 76.7825 48.57 76.7825 48.68L76.7125 51.1Z" fill="#231F20"/>
<path d="M76.6726 52.07C76.685 52.1294 76.685 52.1906 76.6726 52.25C76.6726 52.25 76.6726 52.18 76.6726 52.09C76.6726 52 76.6726 51.92 76.6726 51.91C76.6726 51.9 76.6726 52 76.6726 52.07Z" fill="#231F20"/>
<path d="M77.3125 51.24C77.3002 51.2816 77.2754 51.3183 77.2413 51.3451C77.2073 51.372 77.1658 51.3877 77.1226 51.39C77.0626 51.39 77.0325 51.26 77.0625 51.15L77.6726 48.81C77.6726 48.7 77.8826 48.66 78.0726 48.72C78.2626 48.78 78.3726 48.93 78.3226 49.04L77.3125 51.24Z" fill="#231F20"/>
<path d="M76.9025 52.12C76.9025 52.2 76.8225 52.27 76.8025 52.27C76.7911 52.2139 76.7911 52.1561 76.8025 52.1C76.8025 52.01 76.8725 51.95 76.9025 51.96C76.9325 51.97 76.9425 52 76.9025 52.12Z" fill="#231F20"/>
<path d="M77.5526 51.37C77.4926 51.46 77.3926 51.52 77.3326 51.49C77.2726 51.46 77.2726 51.34 77.3326 51.24L78.3326 49.04C78.3826 48.94 78.5626 48.92 78.7426 49.04C78.9226 49.16 79.0026 49.3 78.9326 49.39L77.5526 51.37Z" fill="#231F20"/>
<path d="M77.0026 52.17C77.0026 52.25 76.8926 52.31 76.8826 52.3C76.8726 52.29 76.8826 52.22 76.8826 52.14C76.8826 52.06 77.0026 52 77.0026 52C77.0026 52 77.0026 52.1 77.0026 52.17Z" fill="#231F20"/>
<path d="M78.0027 51.82C77.9027 51.88 77.8027 51.89 77.7527 51.82C77.7027 51.75 77.7527 51.67 77.8327 51.59L79.6027 50C79.6827 49.92 79.8627 50 79.9827 50.14C80.1027 50.28 80.1227 50.48 79.9827 50.54L78.0027 51.82Z" fill="#231F20"/>
<path d="M77.1626 52.34C77.0926 52.34 77.0126 52.43 77.0026 52.41C76.9926 52.39 77.0026 52.34 77.1026 52.28C77.2026 52.22 77.2426 52.19 77.2626 52.21C77.2826 52.23 77.2426 52.29 77.1626 52.34Z" fill="#231F20"/>
<path d="M78.1226 52.06C78.0126 52.06 77.9026 52.06 77.8726 52.06C77.8426 52.06 77.8726 51.9 77.9926 51.84L79.9926 50.53C80.0826 50.47 80.2426 50.53 80.3426 50.73C80.4426 50.93 80.4226 51.09 80.3426 51.14L78.1226 52.06Z" fill="#231F20"/>
<path d="M77.2125 52.43C77.1565 52.4425 77.0985 52.4425 77.0425 52.43C77.0425 52.43 77.0425 52.36 77.1725 52.31C77.3025 52.26 77.3225 52.24 77.3325 52.31C77.3425 52.38 77.2925 52.4 77.2125 52.43Z" fill="#231F20"/>
<path d="M78.2427 52.67C78.1327 52.67 78.0227 52.62 78.0227 52.56C78.0227 52.5 78.1027 52.42 78.2127 52.4L80.5927 52C80.7127 52 80.8227 52.12 80.8427 52.32C80.8627 52.52 80.7727 52.68 80.6627 52.68L78.2427 52.67Z" fill="#231F20"/>
<path d="M77.2625 52.66H77.0825C77.0825 52.66 77.1625 52.66 77.2525 52.6C77.3425 52.54 77.4125 52.6 77.4125 52.6C77.4125 52.6 77.3525 52.66 77.2625 52.66Z" fill="#231F20"/>
<path d="M66.5825 42.58H182.503C186.324 42.58 189.762 40.5122 192.236 37.2112C194.71 33.9102 196.233 29.3639 196.233 24.36V24C196.233 18.9515 194.711 14.3975 192.236 11.0999C189.762 7.80214 186.323 5.75 182.503 5.75H66.5825C62.7462 5.75 59.308 7.81762 56.8373 11.1228C54.3668 14.4278 52.8525 18.9816 52.8525 24V24.33C52.8525 29.3487 54.3745 33.9025 56.8487 37.2073C59.3229 40.5122 62.7611 42.58 66.5825 42.58Z" fill="#FD941A" stroke="black" stroke-width="0.5"/>
<path d="M182.503 42.46H66.5827C59.0927 42.46 53.0027 34.33 53.0027 24.34V24C53.0027 14 59.0927 5.85999 66.5827 5.85999H182.503C189.993 5.85999 196.083 14 196.083 24V24.36C196.083 34.33 189.993 42.46 182.503 42.46ZM66.5827 6.11999C59.2027 6.11999 53.1927 14.12 53.1927 23.98V24.34C53.1927 34.19 59.1927 42.2 66.5827 42.2H182.503C189.883 42.2 195.893 34.2 195.893 24.34V24C195.893 14.15 189.893 6.13999 182.503 6.13999L66.5827 6.11999Z" fill="#231F20"/>
<path opacity="0.3" d="M194.933 31.31C187.253 30.57 180.523 25.95 173.643 21.36C163.163 14.36 139.793 18.36 101.493 21.11C76.9326 22.87 65.9226 14.89 59.1926 8.94C56.0081 11.933 53.9586 15.9366 53.3926 20.27C56.5526 25.49 61.1226 32.4 64.7026 35.33C70.8226 40.33 88.9226 38.33 124.483 33.33C146.793 30.2 173.193 35.26 189.773 39.47C192.215 37.2807 194.002 34.4556 194.933 31.31Z" fill="#EEEEFB"/>
<path d="M17.7825 11.29C16.5125 11.29 16.0825 11.29 16.0725 11.29V11.17C16.0725 11.17 18.7725 11.35 30.8025 10.8C42.8325 10.25 50.2825 10.3 50.3525 10.3V10.4C50.2725 10.4 42.8325 10.34 30.8025 10.89C23.5625 11.23 19.7025 11.29 17.7825 11.29Z" fill="#231F20"/>
<path d="M47.3425 54.16C47.3425 54.02 44.6825 40.82 43.6125 34.67C42.5425 28.52 41.8225 8.47002 41.8225 8.27002H41.9125C41.9125 8.47002 42.6325 28.53 43.7025 34.67C44.7725 40.81 47.4025 54 47.4325 54.14L47.3425 54.16Z" fill="#231F20"/>
<path d="M12.3426 25L16.7226 13.65C16.7939 13.4695 16.8257 13.2759 16.8159 13.0821C16.8061 12.8884 16.755 12.6989 16.666 12.5265C16.5769 12.3541 16.4521 12.2028 16.2997 12.0827C16.1473 11.9625 15.971 11.8764 15.7826 11.83L15.6526 12.13L9.94263 25.61L10.7626 25.8C11.0782 25.8795 11.4118 25.8423 11.7021 25.6953C11.9924 25.5483 12.2199 25.3014 12.3426 25Z" fill="#4FCEF6"/>
<path d="M11.0626 25.89C10.9595 25.8997 10.8557 25.8997 10.7526 25.89L9.93262 25.7V25.61L10.7526 25.8C11.0641 25.8779 11.3933 25.8397 11.6786 25.6925C11.9639 25.5452 12.1857 25.299 12.3026 25L16.6826 13.64C16.7527 13.4666 16.7837 13.28 16.7733 13.0933C16.763 12.9066 16.7115 12.7245 16.6226 12.56C16.5364 12.3935 16.4162 12.2469 16.2698 12.1298C16.1234 12.0126 15.954 11.9275 15.7726 11.88V11.79C15.9685 11.8367 16.1522 11.9246 16.3116 12.0477C16.4709 12.1709 16.6022 12.3266 16.6968 12.5044C16.7913 12.6822 16.847 12.878 16.8601 13.079C16.8732 13.28 16.8434 13.4814 16.7726 13.67L12.3926 25C12.2838 25.2632 12.0994 25.4883 11.8626 25.6467C11.6259 25.8052 11.3475 25.8898 11.0626 25.89Z" fill="#231F20"/>
<path d="M16.3726 43.22C16.047 43.2122 15.7377 43.0755 15.5126 42.84C15.2434 42.55 15.0996 42.1654 15.1126 41.77L15.7226 26.22C15.7724 24.8887 16.0012 23.5702 16.4026 22.3L19.6926 14.37C19.7671 14.1749 19.8717 13.9927 20.0026 13.83L20.2626 13.44C20.7026 12.69 21.0026 12.23 22.0026 12.2L31.7826 11.89H31.8626C32.2368 11.8848 32.6079 11.9577 32.9523 12.104C33.2967 12.2504 33.6067 12.467 33.8626 12.74C34.1709 13.0632 34.4119 13.4444 34.5716 13.8616C34.7313 14.2788 34.8064 14.7235 34.7926 15.17L34.4826 25L33.3626 35.69C33.3188 36.3193 33.0607 36.9146 32.6312 37.3768C32.2018 37.839 31.6271 38.1401 31.0026 38.23C28.7926 38.43 27.0526 38.61 25.8426 38.76C24.3114 39.0739 22.9465 39.934 22.0026 41.18C21.4243 41.8908 20.6194 42.3815 19.7226 42.57L16.6126 43.2L16.3726 43.22ZM31.8326 12H31.7526L22.0026 12.29C21.0826 12.29 20.8126 12.73 20.3226 13.49L20.0026 13.86C19.8871 14.026 19.7961 14.2079 19.7326 14.4L16.4426 22.33C16.0445 23.5904 15.8191 24.899 15.7726 26.22L15.2026 41.78C15.1945 41.9638 15.224 42.1473 15.2893 42.3192C15.3547 42.4912 15.4545 42.648 15.5826 42.78C15.6835 42.8891 15.8056 42.9764 15.9415 43.0366C16.0773 43.0968 16.224 43.1286 16.3726 43.13H16.5826L19.6926 42.51C20.5707 42.3215 21.3577 41.838 21.9226 41.14C22.8818 39.8832 24.2637 39.0164 25.8126 38.7C27.0226 38.55 28.8126 38.37 30.9826 38.17C31.59 38.084 32.1492 37.7915 32.5662 37.3416C32.9833 36.8918 33.2327 36.3121 33.2726 35.7L34.4026 25L34.6226 15.13C34.6379 14.6949 34.5662 14.2612 34.4116 13.8542C34.2571 13.4472 34.0228 13.0752 33.7226 12.76C33.4736 12.5144 33.1783 12.3208 32.8539 12.1903C32.5294 12.0599 32.1823 11.9952 31.8326 12Z" fill="#231F20"/>
<path d="M19.7427 25.61C19.1245 25.6157 18.5248 25.3993 18.0527 25C17.648 24.6546 17.3625 24.1903 17.2368 23.6733C17.1112 23.1562 17.1517 22.6127 17.3527 22.12L20.4927 14.58C20.6754 14.1217 20.9891 13.7274 21.3946 13.4464C21.8001 13.1654 22.2795 13.0101 22.7727 13L31.1327 12.84C31.4813 12.8342 31.8274 12.9004 32.1492 13.0346C32.471 13.1689 32.7616 13.3682 33.0027 13.62C33.2407 13.8602 33.4272 14.1463 33.551 14.4609C33.6748 14.7755 33.7332 15.1121 33.7227 15.45L33.5427 22.1C33.5209 22.713 33.2763 23.297 32.8547 23.7425C32.4331 24.188 31.8635 24.4644 31.2527 24.52L20.0027 25.6L19.7427 25.61ZM31.1327 12.94L22.7827 13.1C22.3109 13.108 21.8517 13.2531 21.461 13.5177C21.0704 13.7823 20.7652 14.1549 20.5827 14.59L17.4427 22.13C17.2478 22.5985 17.2057 23.1165 17.3224 23.6103C17.4391 24.1041 17.7087 24.5484 18.0927 24.88C18.5496 25.2806 19.1351 25.5042 19.7427 25.51H20.0027L31.2427 24.44C31.8287 24.3844 32.3743 24.1171 32.7774 23.6883C33.1805 23.2594 33.4135 22.6983 33.4327 22.11L33.6227 15.46C33.6267 15.1327 33.5658 14.8078 33.4436 14.5041C33.3213 14.2004 33.1402 13.9239 32.9105 13.6905C32.6809 13.4572 32.4074 13.2716 32.1057 13.1445C31.804 13.0174 31.4801 12.9513 31.1527 12.95L31.1327 12.94Z" fill="#231F20"/>
<path d="M19.0026 23.37C19.0026 23.53 18.8326 23.66 18.6126 23.66C18.3926 23.66 18.2126 23.54 18.2126 23.38L18.1326 14.64C18.1326 14.49 18.3026 14.36 18.5226 14.36C18.7426 14.36 18.9226 14.48 18.9226 14.63L19.0026 23.37Z" fill="#231F20"/>
<path d="M18.4426 15.22C18.4426 15.15 18.0426 14.22 17.7926 13.68C17.7331 13.5182 17.7077 13.3458 17.7181 13.1737C17.7284 13.0016 17.7742 12.8335 17.8526 12.68C17.9535 12.5444 18.0872 12.4365 18.2411 12.3666C18.395 12.2966 18.5641 12.2668 18.7326 12.28C19.7298 12.208 20.731 12.3443 21.6726 12.68L21.6026 12.85C20.6855 12.5283 19.7119 12.399 18.7426 12.47C18.6035 12.4593 18.4639 12.4818 18.3352 12.5357C18.2066 12.5896 18.0926 12.6734 18.0026 12.78C17.8909 13.0523 17.8909 13.3577 18.0026 13.63C18.1926 14.08 18.6426 15.13 18.6626 15.2H18.4826H18.5726L18.4426 15.22Z" fill="#231F20"/>
<path d="M22.0025 12.74C22.0081 12.8259 21.9798 12.9106 21.9238 12.976C21.8677 13.0414 21.7883 13.0823 21.7025 13.09C21.661 13.0941 21.6191 13.0898 21.5793 13.0773C21.5394 13.0648 21.5025 13.0444 21.4708 13.0173C21.4391 12.9903 21.4131 12.9571 21.3945 12.9197C21.3759 12.8824 21.365 12.8416 21.3625 12.8C21.3566 12.758 21.359 12.7152 21.3697 12.6741C21.3803 12.633 21.3989 12.5944 21.4244 12.5605C21.45 12.5266 21.4819 12.4981 21.5185 12.4766C21.5551 12.455 21.5955 12.4409 21.6375 12.435C21.6795 12.4291 21.7223 12.4315 21.7634 12.4421C21.8045 12.4527 21.8431 12.4713 21.877 12.4969C21.9109 12.5224 21.9394 12.5544 21.9609 12.5909C21.9825 12.6275 21.9966 12.668 22.0025 12.71V12.74Z" fill="#231F20"/>
<path opacity="0.7" d="M80.7527 5.53003H80.0227V42.72H80.7527V5.53003Z" fill="#C73547"/>
<path d="M19.3625 56.26H10.1325C9.91658 56.2369 9.71682 56.1347 9.57166 55.9732C9.4265 55.8117 9.34619 55.6022 9.34619 55.385C9.34619 55.1678 9.4265 54.9583 9.57166 54.7968C9.71682 54.6353 9.91658 54.5331 10.1325 54.51H19.3625C19.5785 54.5331 19.7782 54.6353 19.9234 54.7968C20.0686 54.9583 20.1489 55.1678 20.1489 55.385C20.1489 55.6022 20.0686 55.8117 19.9234 55.9732C19.7782 56.1347 19.5785 56.2369 19.3625 56.26Z" fill="#111010"/>
<path d="M9.00249 47.61C8.96876 48.0603 8.76606 48.4813 8.43503 48.7884C8.10399 49.0956 7.66909 49.2663 7.21749 49.2663C6.7659 49.2663 6.33099 49.0956 5.99996 48.7884C5.66892 48.4813 5.46622 48.0603 5.43249 47.61V33.83C5.41409 33.5844 5.44659 33.3376 5.52796 33.1051C5.60932 32.8726 5.7378 32.6593 5.90535 32.4788C6.0729 32.2982 6.27592 32.1542 6.5017 32.0557C6.72748 31.9572 6.97116 31.9063 7.21749 31.9063C7.46382 31.9063 7.7075 31.9572 7.93328 32.0557C8.15906 32.1542 8.36208 32.2982 8.52963 32.4788C8.69718 32.6593 8.82566 32.8726 8.90703 33.1051C8.98839 33.3376 9.02089 33.5844 9.00249 33.83V47.61Z" fill="#E3D0AA"/>
<path d="M7.1625 49.46C6.67185 49.46 6.2013 49.2651 5.85435 48.9181C5.50741 48.5712 5.3125 48.1006 5.3125 47.61V33.83C5.34692 33.3615 5.55729 32.9234 5.90138 32.6037C6.24547 32.284 6.69779 32.1063 7.1675 32.1063C7.63721 32.1063 8.08953 32.284 8.43362 32.6037C8.77771 32.9234 8.98808 33.3615 9.0225 33.83V47.61C9.02251 47.8538 8.97432 48.0951 8.88073 48.3203C8.78713 48.5454 8.64997 48.7497 8.47712 48.9217C8.30427 49.0936 8.09915 49.2296 7.87354 49.322C7.64793 49.4144 7.40629 49.4613 7.1625 49.46ZM7.1625 32.11C6.93663 32.11 6.71297 32.1545 6.50429 32.2409C6.29561 32.3273 6.106 32.454 5.94628 32.6137C5.62371 32.9363 5.4425 33.3738 5.4425 33.83V47.61C5.47563 48.0448 5.67174 48.451 5.99159 48.7474C6.31144 49.0439 6.73143 49.2085 7.1675 49.2085C7.60357 49.2085 8.02356 49.0439 8.34341 48.7474C8.66326 48.451 8.85937 48.0448 8.8925 47.61V33.83C8.88986 33.3729 8.70643 32.9354 8.38227 32.6131C8.05812 32.2909 7.6196 32.11 7.1625 32.11Z" fill="#231F20"/>
</g>
</svg>
