<svg width="18" height="16" viewBox="0 0 18 16" fill="none" xmlns="http://www.w3.org/2000/svg">
<path d="M0.5625 10.1377C0.711684 10.1377 0.854758 10.197 0.960248 10.3024C1.06574 10.4079 1.125 10.551 1.125 10.7002V13.5127C1.125 13.8111 1.24353 14.0972 1.4545 14.3082C1.66548 14.5192 1.95163 14.6377 2.25 14.6377H15.75C16.0484 14.6377 16.3345 14.5192 16.5455 14.3082C16.7565 14.0972 16.875 13.8111 16.875 13.5127V10.7002C16.875 10.551 16.9343 10.4079 17.0398 10.3024C17.1452 10.197 17.2883 10.1377 17.4375 10.1377C17.5867 10.1377 17.7298 10.197 17.8352 10.3024C17.9407 10.4079 18 10.551 18 10.7002V13.5127C18 14.1094 17.7629 14.6817 17.341 15.1037C16.919 15.5256 16.3467 15.7627 15.75 15.7627H2.25C1.65326 15.7627 1.08097 15.5256 0.65901 15.1037C0.237053 14.6817 0 14.1094 0 13.5127V10.7002C0 10.551 0.0592632 10.4079 0.164752 10.3024C0.270242 10.197 0.413316 10.1377 0.5625 10.1377Z" fill="black"/>
<path d="M8.60148 0.289279C8.65374 0.236895 8.71581 0.195335 8.78415 0.166977C8.85248 0.13862 8.92575 0.124023 8.99973 0.124023C9.07372 0.124023 9.14698 0.13862 9.21532 0.166977C9.28366 0.195335 9.34573 0.236895 9.39798 0.289279L12.773 3.66428C12.8786 3.7699 12.9379 3.91316 12.9379 4.06253C12.9379 4.2119 12.8786 4.35516 12.773 4.46078C12.6674 4.5664 12.5241 4.62574 12.3747 4.62574C12.2254 4.62574 12.0821 4.5664 11.9765 4.46078L9.56223 2.0454V11.9375C9.56223 12.0867 9.50297 12.2298 9.39748 12.3353C9.29199 12.4408 9.14892 12.5 8.99973 12.5C8.85055 12.5 8.70748 12.4408 8.60199 12.3353C8.4965 12.2298 8.43723 12.0867 8.43723 11.9375V2.0454L6.02298 4.46078C5.97069 4.51308 5.9086 4.55456 5.84027 4.58287C5.77193 4.61117 5.6987 4.62574 5.62473 4.62574C5.55077 4.62574 5.47753 4.61117 5.4092 4.58287C5.34087 4.55456 5.27878 4.51308 5.22648 4.46078C5.17419 4.40848 5.1327 4.34639 5.1044 4.27806C5.07609 4.20973 5.06152 4.13649 5.06152 4.06253C5.06152 3.98857 5.07609 3.91533 5.1044 3.847C5.1327 3.77867 5.17419 3.71658 5.22648 3.66428L8.60148 0.289279Z" fill="black"/>
</svg>
