<svg width="24" height="24" viewBox="0 0 24 24" fill="none" xmlns="http://www.w3.org/2000/svg">
<path d="M1.77771 14.4252L1.95215 13.9566L1.77771 14.4252L2.47245 14.6838C2.77435 14.7962 2.89275 15.1605 2.71456 15.4289L2.30452 16.0465C1.61886 17.0792 2.41069 18.4507 3.64788 18.3733L4.38774 18.327C4.70926 18.3068 4.96562 18.5916 4.912 18.9092L4.7886 19.6402C4.58227 20.8625 5.86347 21.7933 6.9622 21.2194L7.61926 20.8762C7.9048 20.727 8.2548 20.8828 8.33502 21.1948L8.5196 21.9128C8.82827 23.1134 10.3773 23.4426 11.1476 22.4714L11.6083 21.8906C11.8084 21.6382 12.1916 21.6382 12.3917 21.8906L12.8524 22.4714C13.6227 23.4426 15.1717 23.1134 15.4804 21.9128L15.665 21.1948C15.7452 20.8828 16.0952 20.727 16.3807 20.8762L17.0378 21.2194C18.1365 21.7933 19.4177 20.8625 19.2114 19.6402L19.088 18.9092C19.0344 18.5916 19.2907 18.3068 19.6123 18.327L20.3521 18.3733C21.5893 18.4507 22.3811 17.0792 21.6955 16.0465L21.2854 15.4289C21.1073 15.1605 21.2256 14.7962 21.5276 14.6838L22.2223 14.4252C23.384 13.9927 23.5496 12.4177 22.5031 11.7532L21.8773 11.3558C21.6054 11.1831 21.5654 10.802 21.7954 10.5766L22.3249 10.0577C23.2103 9.19012 22.7209 7.68398 21.4947 7.5025L20.7614 7.39397C20.4427 7.34681 20.2511 7.01501 20.3696 6.71545L20.6423 6.02611C21.0983 4.8734 20.0386 3.69652 18.8445 4.02949L18.1305 4.22862C17.8202 4.31515 17.5102 4.08995 17.4966 3.76809L17.4653 3.02744C17.413 1.78893 15.9663 1.14481 15.0109 1.93466L14.4396 2.407C14.1913 2.61227 13.8165 2.53261 13.6732 2.24411L13.2254 2.46657L13.6732 2.24411L13.3434 1.58021C12.7918 0.470052 11.2082 0.470054 10.6566 1.58021L11.0745 1.78779L10.6566 1.58021L10.3268 2.24411C10.1835 2.53261 9.80873 2.61227 9.56045 2.407L8.98911 1.93466C8.03372 1.1448 6.58698 1.78894 6.53467 3.02744L6.5034 3.76809C6.4898 4.08995 6.17984 4.31515 5.86953 4.22862L5.15547 4.02949C3.96141 3.69652 2.90174 4.8734 3.35771 6.02611L3.63038 6.71545C3.74888 7.01501 3.55731 7.34681 3.23863 7.39398L2.50531 7.5025C1.27906 7.68398 0.789681 9.19012 1.67507 10.0577L2.20455 10.5766C2.43465 10.802 2.3946 11.1831 2.12266 11.3558L2.3907 11.7778L2.12266 11.3558L1.49687 11.7532C0.450445 12.4177 0.615984 13.9927 1.77771 14.4252Z" fill="#4CD964" stroke="white"/>
<path d="M8.8125 11.9999L10.935 14.1224L15.1875 9.87744" stroke="white" stroke-width="1.5" stroke-linecap="round" stroke-linejoin="round"/>
</svg>
